ISO-10303-21;
HEADER;
/* Generated by software containing ST-Developer
 * from STEP Tools, Inc. (www.steptools.com) 
 */
/* OPTION: using custom renumber hook */

FILE_DESCRIPTION(
/* description */ ('STEP AP242',
'CAx-IF Rec.Pracs.---Representation and Presentation of Product Manufa
cturing Information (PMI)---4.0---2014-10-13',
'CAx-IF Rec.Pracs.---3D Tessellated Geometry---0.4---2014-09-14','2;1'),

/* implementation_level */ '2;1');

FILE_NAME(
/* name */ 'Part Studio 1 - Part 9',
/* time_stamp */ '2025-07-21T21:28:57Z',
/* author */ (''),
/* organization */ (''),
/* preprocessor_version */ 'ST-DEVELOPER v20',
/* originating_system */ 'ONSHAPE BY PTC INC, 1.201',
/* authorisation */ '  ');

FILE_SCHEMA (('AP242_MANAGED_MODEL_BASED_3D_ENGINEERING_MIM_LF { 1 0 10303 442 1 1 4 }'));
ENDSEC;

DATA;
#10=SHAPE_REPRESENTATION_RELATIONSHIP('','',#365,#11);
#11=ADVANCED_BREP_SHAPE_REPRESENTATION('',(#363),#591);
#12=SPHERICAL_SURFACE('',#389,0.00396875);
#13=CYLINDRICAL_SURFACE('',#373,0.0015875);
#14=CYLINDRICAL_SURFACE('',#375,0.0015875);
#15=CYLINDRICAL_SURFACE('',#384,0.0015875);
#16=CYLINDRICAL_SURFACE('',#386,0.0015875);
#17=CIRCLE('',#369,0.0015875);
#18=CIRCLE('',#370,0.0015875);
#19=CIRCLE('',#374,0.0015875);
#20=CIRCLE('',#376,0.0015875);
#21=CIRCLE('',#381,0.0015875);
#22=CIRCLE('',#382,0.0015875);
#23=CIRCLE('',#385,0.0015875);
#24=CIRCLE('',#387,0.0015875);
#25=CIRCLE('',#390,0.0036374194578712);
#26=CIRCLE('',#391,0.00363741945787119);
#27=CIRCLE('',#392,0.0036374194578712);
#28=CIRCLE('',#393,0.00363741945787121);
#29=ORIENTED_EDGE('',*,*,#117,.F.);
#30=ORIENTED_EDGE('',*,*,#118,.T.);
#31=ORIENTED_EDGE('',*,*,#119,.T.);
#32=ORIENTED_EDGE('',*,*,#120,.F.);
#33=ORIENTED_EDGE('',*,*,#121,.T.);
#34=ORIENTED_EDGE('',*,*,#122,.F.);
#35=ORIENTED_EDGE('',*,*,#119,.F.);
#36=ORIENTED_EDGE('',*,*,#123,.T.);
#37=ORIENTED_EDGE('',*,*,#124,.T.);
#38=ORIENTED_EDGE('',*,*,#125,.F.);
#39=ORIENTED_EDGE('',*,*,#126,.T.);
#40=ORIENTED_EDGE('',*,*,#127,.T.);
#41=ORIENTED_EDGE('',*,*,#128,.F.);
#42=ORIENTED_EDGE('',*,*,#129,.F.);
#43=ORIENTED_EDGE('',*,*,#120,.T.);
#44=ORIENTED_EDGE('',*,*,#125,.T.);
#45=ORIENTED_EDGE('',*,*,#130,.F.);
#46=ORIENTED_EDGE('',*,*,#131,.F.);
#47=ORIENTED_EDGE('',*,*,#124,.F.);
#48=ORIENTED_EDGE('',*,*,#132,.F.);
#49=ORIENTED_EDGE('',*,*,#133,.T.);
#50=ORIENTED_EDGE('',*,*,#130,.T.);
#51=ORIENTED_EDGE('',*,*,#134,.T.);
#52=ORIENTED_EDGE('',*,*,#121,.F.);
#53=ORIENTED_EDGE('',*,*,#135,.F.);
#54=ORIENTED_EDGE('',*,*,#122,.T.);
#55=ORIENTED_EDGE('',*,*,#123,.F.);
#56=ORIENTED_EDGE('',*,*,#118,.F.);
#57=ORIENTED_EDGE('',*,*,#136,.T.);
#58=ORIENTED_EDGE('',*,*,#137,.T.);
#59=ORIENTED_EDGE('',*,*,#138,.F.);
#60=ORIENTED_EDGE('',*,*,#139,.F.);
#61=ORIENTED_EDGE('',*,*,#140,.T.);
#62=ORIENTED_EDGE('',*,*,#132,.T.);
#63=ORIENTED_EDGE('',*,*,#135,.T.);
#64=ORIENTED_EDGE('',*,*,#134,.F.);
#65=ORIENTED_EDGE('',*,*,#140,.F.);
#66=ORIENTED_EDGE('',*,*,#141,.T.);
#67=ORIENTED_EDGE('',*,*,#131,.T.);
#68=ORIENTED_EDGE('',*,*,#133,.F.);
#69=ORIENTED_EDGE('',*,*,#142,.F.);
#70=ORIENTED_EDGE('',*,*,#143,.T.);
#71=ORIENTED_EDGE('',*,*,#144,.T.);
#72=ORIENTED_EDGE('',*,*,#145,.F.);
#73=ORIENTED_EDGE('',*,*,#139,.T.);
#74=ORIENTED_EDGE('',*,*,#146,.T.);
#75=ORIENTED_EDGE('',*,*,#126,.F.);
#76=ORIENTED_EDGE('',*,*,#141,.F.);
#77=ORIENTED_EDGE('',*,*,#146,.F.);
#78=ORIENTED_EDGE('',*,*,#138,.T.);
#79=ORIENTED_EDGE('',*,*,#147,.T.);
#80=ORIENTED_EDGE('',*,*,#127,.F.);
#81=ORIENTED_EDGE('',*,*,#148,.T.);
#82=ORIENTED_EDGE('',*,*,#149,.F.);
#83=ORIENTED_EDGE('',*,*,#147,.F.);
#84=ORIENTED_EDGE('',*,*,#137,.F.);
#85=ORIENTED_EDGE('',*,*,#150,.T.);
#86=ORIENTED_EDGE('',*,*,#128,.T.);
#87=ORIENTED_EDGE('',*,*,#151,.F.);
#88=ORIENTED_EDGE('',*,*,#149,.T.);
#89=ORIENTED_EDGE('',*,*,#152,.T.);
#90=ORIENTED_EDGE('',*,*,#148,.F.);
#91=ORIENTED_EDGE('',*,*,#152,.F.);
#92=ORIENTED_EDGE('',*,*,#151,.T.);
#93=ORIENTED_EDGE('',*,*,#117,.T.);
#94=ORIENTED_EDGE('',*,*,#129,.T.);
#95=ORIENTED_EDGE('',*,*,#150,.F.);
#96=ORIENTED_EDGE('',*,*,#136,.F.);
#97=ORIENTED_EDGE('',*,*,#153,.F.);
#98=ORIENTED_EDGE('',*,*,#154,.T.);
#99=ORIENTED_EDGE('',*,*,#155,.T.);
#100=ORIENTED_EDGE('',*,*,#156,.F.);
#101=ORIENTED_EDGE('',*,*,#157,.F.);
#102=ORIENTED_EDGE('',*,*,#153,.T.);
#103=ORIENTED_EDGE('',*,*,#158,.T.);
#104=ORIENTED_EDGE('',*,*,#143,.F.);
#105=ORIENTED_EDGE('',*,*,#154,.F.);
#106=ORIENTED_EDGE('',*,*,#157,.T.);
#107=ORIENTED_EDGE('',*,*,#142,.T.);
#108=ORIENTED_EDGE('',*,*,#159,.F.);
#109=ORIENTED_EDGE('',*,*,#155,.F.);
#110=ORIENTED_EDGE('',*,*,#159,.T.);
#111=ORIENTED_EDGE('',*,*,#145,.T.);
#112=ORIENTED_EDGE('',*,*,#160,.F.);
#113=ORIENTED_EDGE('',*,*,#158,.F.);
#114=ORIENTED_EDGE('',*,*,#156,.T.);
#115=ORIENTED_EDGE('',*,*,#160,.T.);
#116=ORIENTED_EDGE('',*,*,#144,.F.);
#117=EDGE_CURVE('',#161,#162,#193,.T.);
#118=EDGE_CURVE('',#161,#163,#194,.T.);
#119=EDGE_CURVE('',#163,#164,#195,.T.);
#120=EDGE_CURVE('',#162,#164,#196,.T.);
#121=EDGE_CURVE('',#165,#165,#17,.T.);
#122=EDGE_CURVE('',#166,#166,#18,.T.);
#123=EDGE_CURVE('',#163,#167,#197,.T.);
#124=EDGE_CURVE('',#167,#168,#198,.T.);
#125=EDGE_CURVE('',#164,#168,#199,.T.);
#126=EDGE_CURVE('',#169,#170,#200,.T.);
#127=EDGE_CURVE('',#170,#171,#201,.T.);
#128=EDGE_CURVE('',#172,#171,#202,.T.);
#129=EDGE_CURVE('',#162,#172,#203,.T.);
#130=EDGE_CURVE('',#173,#168,#204,.T.);
#131=EDGE_CURVE('',#169,#173,#205,.T.);
#132=EDGE_CURVE('',#174,#167,#206,.T.);
#133=EDGE_CURVE('',#174,#173,#207,.T.);
#134=EDGE_CURVE('',#175,#175,#19,.T.);
#135=EDGE_CURVE('',#176,#176,#20,.T.);
#136=EDGE_CURVE('',#161,#177,#208,.T.);
#137=EDGE_CURVE('',#177,#178,#209,.T.);
#138=EDGE_CURVE('',#179,#178,#210,.T.);
#139=EDGE_CURVE('',#180,#179,#211,.T.);
#140=EDGE_CURVE('',#180,#174,#212,.T.);
#141=EDGE_CURVE('',#180,#169,#213,.T.);
#142=EDGE_CURVE('',#181,#182,#214,.T.);
#143=EDGE_CURVE('',#181,#183,#215,.T.);
#144=EDGE_CURVE('',#183,#184,#216,.T.);
#145=EDGE_CURVE('',#182,#184,#217,.T.);
#146=EDGE_CURVE('',#179,#170,#218,.T.);
#147=EDGE_CURVE('',#178,#171,#219,.T.);
#148=EDGE_CURVE('',#185,#185,#21,.T.);
#149=EDGE_CURVE('',#186,#186,#22,.T.);
#150=EDGE_CURVE('',#177,#172,#220,.T.);
#151=EDGE_CURVE('',#187,#187,#23,.T.);
#152=EDGE_CURVE('',#188,#188,#24,.T.);
#153=EDGE_CURVE('',#189,#190,#25,.F.);
#154=EDGE_CURVE('',#189,#191,#26,.F.);
#155=EDGE_CURVE('',#191,#192,#27,.F.);
#156=EDGE_CURVE('',#190,#192,#28,.F.);
#157=EDGE_CURVE('',#189,#181,#221,.T.);
#158=EDGE_CURVE('',#190,#183,#222,.T.);
#159=EDGE_CURVE('',#191,#182,#223,.T.);
#160=EDGE_CURVE('',#192,#184,#224,.T.);
#161=VERTEX_POINT('',#497);
#162=VERTEX_POINT('',#498);
#163=VERTEX_POINT('',#500);
#164=VERTEX_POINT('',#502);
#165=VERTEX_POINT('',#506);
#166=VERTEX_POINT('',#508);
#167=VERTEX_POINT('',#510);
#168=VERTEX_POINT('',#512);
#169=VERTEX_POINT('',#516);
#170=VERTEX_POINT('',#517);
#171=VERTEX_POINT('',#519);
#172=VERTEX_POINT('',#521);
#173=VERTEX_POINT('',#524);
#174=VERTEX_POINT('',#528);
#175=VERTEX_POINT('',#532);
#176=VERTEX_POINT('',#535);
#177=VERTEX_POINT('',#538);
#178=VERTEX_POINT('',#540);
#179=VERTEX_POINT('',#542);
#180=VERTEX_POINT('',#544);
#181=VERTEX_POINT('',#550);
#182=VERTEX_POINT('',#551);
#183=VERTEX_POINT('',#553);
#184=VERTEX_POINT('',#555);
#185=VERTEX_POINT('',#561);
#186=VERTEX_POINT('',#563);
#187=VERTEX_POINT('',#568);
#188=VERTEX_POINT('',#571);
#189=VERTEX_POINT('',#575);
#190=VERTEX_POINT('',#576);
#191=VERTEX_POINT('',#578);
#192=VERTEX_POINT('',#580);
#193=LINE('',#496,#225);
#194=LINE('',#499,#226);
#195=LINE('',#501,#227);
#196=LINE('',#503,#228);
#197=LINE('',#509,#229);
#198=LINE('',#511,#230);
#199=LINE('',#513,#231);
#200=LINE('',#515,#232);
#201=LINE('',#518,#233);
#202=LINE('',#520,#234);
#203=LINE('',#522,#235);
#204=LINE('',#523,#236);
#205=LINE('',#525,#237);
#206=LINE('',#527,#238);
#207=LINE('',#529,#239);
#208=LINE('',#537,#240);
#209=LINE('',#539,#241);
#210=LINE('',#541,#242);
#211=LINE('',#543,#243);
#212=LINE('',#545,#244);
#213=LINE('',#547,#245);
#214=LINE('',#549,#246);
#215=LINE('',#552,#247);
#216=LINE('',#554,#248);
#217=LINE('',#556,#249);
#218=LINE('',#557,#250);
#219=LINE('',#559,#251);
#220=LINE('',#565,#252);
#221=LINE('',#583,#253);
#222=LINE('',#584,#254);
#223=LINE('',#586,#255);
#224=LINE('',#588,#256);
#225=VECTOR('',#402,1.);
#226=VECTOR('',#403,1.);
#227=VECTOR('',#404,1.);
#228=VECTOR('',#405,1.);
#229=VECTOR('',#412,1.);
#230=VECTOR('',#413,1.);
#231=VECTOR('',#414,1.);
#232=VECTOR('',#417,1.);
#233=VECTOR('',#418,1.);
#234=VECTOR('',#419,1.);
#235=VECTOR('',#420,1.);
#236=VECTOR('',#421,1.);
#237=VECTOR('',#422,1.);
#238=VECTOR('',#425,1.);
#239=VECTOR('',#426,1.);
#240=VECTOR('',#437,1.);
#241=VECTOR('',#438,1.);
#242=VECTOR('',#439,1.);
#243=VECTOR('',#440,1.);
#244=VECTOR('',#441,1.);
#245=VECTOR('',#444,1.);
#246=VECTOR('',#447,1.);
#247=VECTOR('',#448,1.);
#248=VECTOR('',#449,1.);
#249=VECTOR('',#450,1.);
#250=VECTOR('',#451,1.);
#251=VECTOR('',#454,1.);
#252=VECTOR('',#461,1.);
#253=VECTOR('',#484,1.);
#254=VECTOR('',#485,1.);
#255=VECTOR('',#488,1.);
#256=VECTOR('',#491,1.);
#257=EDGE_LOOP('',(#29,#30,#31,#32));
#258=EDGE_LOOP('',(#33));
#259=EDGE_LOOP('',(#34));
#260=EDGE_LOOP('',(#35,#36,#37,#38));
#261=EDGE_LOOP('',(#39,#40,#41,#42,#43,#44,#45,#46));
#262=EDGE_LOOP('',(#47,#48,#49,#50));
#263=EDGE_LOOP('',(#51));
#264=EDGE_LOOP('',(#52));
#265=EDGE_LOOP('',(#53));
#266=EDGE_LOOP('',(#54));
#267=EDGE_LOOP('',(#55,#56,#57,#58,#59,#60,#61,#62));
#268=EDGE_LOOP('',(#63));
#269=EDGE_LOOP('',(#64));
#270=EDGE_LOOP('',(#65,#66,#67,#68));
#271=EDGE_LOOP('',(#69,#70,#71,#72));
#272=EDGE_LOOP('',(#73,#74,#75,#76));
#273=EDGE_LOOP('',(#77,#78,#79,#80));
#274=EDGE_LOOP('',(#81));
#275=EDGE_LOOP('',(#82));
#276=EDGE_LOOP('',(#83,#84,#85,#86));
#277=EDGE_LOOP('',(#87));
#278=EDGE_LOOP('',(#88));
#279=EDGE_LOOP('',(#89));
#280=EDGE_LOOP('',(#90));
#281=EDGE_LOOP('',(#91));
#282=EDGE_LOOP('',(#92));
#283=EDGE_LOOP('',(#93,#94,#95,#96));
#284=EDGE_LOOP('',(#97,#98,#99,#100));
#285=EDGE_LOOP('',(#101,#102,#103,#104));
#286=EDGE_LOOP('',(#105,#106,#107,#108));
#287=EDGE_LOOP('',(#109,#110,#111,#112));
#288=EDGE_LOOP('',(#113,#114,#115,#116));
#289=FACE_BOUND('',#257,.T.);
#290=FACE_BOUND('',#258,.T.);
#291=FACE_BOUND('',#259,.T.);
#292=FACE_BOUND('',#260,.T.);
#293=FACE_BOUND('',#261,.T.);
#294=FACE_BOUND('',#262,.T.);
#295=FACE_BOUND('',#263,.T.);
#296=FACE_BOUND('',#264,.T.);
#297=FACE_BOUND('',#265,.T.);
#298=FACE_BOUND('',#266,.T.);
#299=FACE_BOUND('',#267,.T.);
#300=FACE_BOUND('',#268,.T.);
#301=FACE_BOUND('',#269,.T.);
#302=FACE_BOUND('',#270,.T.);
#303=FACE_BOUND('',#271,.T.);
#304=FACE_BOUND('',#272,.T.);
#305=FACE_BOUND('',#273,.T.);
#306=FACE_BOUND('',#274,.T.);
#307=FACE_BOUND('',#275,.T.);
#308=FACE_BOUND('',#276,.T.);
#309=FACE_BOUND('',#277,.T.);
#310=FACE_BOUND('',#278,.T.);
#311=FACE_BOUND('',#279,.T.);
#312=FACE_BOUND('',#280,.T.);
#313=FACE_BOUND('',#281,.T.);
#314=FACE_BOUND('',#282,.T.);
#315=FACE_BOUND('',#283,.T.);
#316=FACE_BOUND('',#284,.T.);
#317=FACE_BOUND('',#285,.T.);
#318=FACE_BOUND('',#286,.T.);
#319=FACE_BOUND('',#287,.T.);
#320=FACE_BOUND('',#288,.T.);
#321=PLANE('',#367);
#322=PLANE('',#368);
#323=PLANE('',#371);
#324=PLANE('',#372);
#325=PLANE('',#377);
#326=PLANE('',#378);
#327=PLANE('',#379);
#328=PLANE('',#380);
#329=PLANE('',#383);
#330=PLANE('',#388);
#331=PLANE('',#394);
#332=PLANE('',#395);
#333=PLANE('',#396);
#334=PLANE('',#397);
#335=ADVANCED_FACE('',(#289),#321,.F.);
#336=ADVANCED_FACE('',(#290,#291,#292),#322,.F.);
#337=ADVANCED_FACE('',(#293),#323,.F.);
#338=ADVANCED_FACE('',(#294),#324,.T.);
#339=ADVANCED_FACE('',(#295,#296),#13,.F.);
#340=ADVANCED_FACE('',(#297,#298),#14,.F.);
#341=ADVANCED_FACE('',(#299),#325,.T.);
#342=ADVANCED_FACE('',(#300,#301,#302),#326,.T.);
#343=ADVANCED_FACE('',(#303,#304),#327,.F.);
#344=ADVANCED_FACE('',(#305,#306,#307),#328,.T.);
#345=ADVANCED_FACE('',(#308),#329,.T.);
#346=ADVANCED_FACE('',(#309,#310),#15,.F.);
#347=ADVANCED_FACE('',(#311,#312),#16,.F.);
#348=ADVANCED_FACE('',(#313,#314,#315),#330,.T.);
#349=ADVANCED_FACE('',(#316),#12,.T.);
#350=ADVANCED_FACE('',(#317),#331,.T.);
#351=ADVANCED_FACE('',(#318),#332,.F.);
#352=ADVANCED_FACE('',(#319),#333,.F.);
#353=ADVANCED_FACE('',(#320),#334,.T.);
#354=CLOSED_SHELL('',(#335,#336,#337,#338,#339,#340,#341,#342,#343,#344,
#345,#346,#347,#348,#349,#350,#351,#352,#353));
#355=STYLED_ITEM('',(#356),#363);
#356=PRESENTATION_STYLE_ASSIGNMENT((#357));
#357=SURFACE_STYLE_USAGE(.BOTH.,#358);
#358=SURFACE_SIDE_STYLE('',(#359));
#359=SURFACE_STYLE_FILL_AREA(#360);
#360=FILL_AREA_STYLE('',(#361));
#361=FILL_AREA_STYLE_COLOUR('',#362);
#362=COLOUR_RGB('',0.972549019607843,0.529411764705882,0.00392156862745098);
#363=MANIFOLD_SOLID_BREP('Part 9',#354);
#364=SHAPE_DEFINITION_REPRESENTATION(#596,#365);
#365=SHAPE_REPRESENTATION('Part 9',(#366),#591);
#366=AXIS2_PLACEMENT_3D('',#494,#398,#399);
#367=AXIS2_PLACEMENT_3D('',#495,#400,#401);
#368=AXIS2_PLACEMENT_3D('',#504,#406,#407);
#369=AXIS2_PLACEMENT_3D('',#505,#408,#409);
#370=AXIS2_PLACEMENT_3D('',#507,#410,#411);
#371=AXIS2_PLACEMENT_3D('',#514,#415,#416);
#372=AXIS2_PLACEMENT_3D('',#526,#423,#424);
#373=AXIS2_PLACEMENT_3D('',#530,#427,#428);
#374=AXIS2_PLACEMENT_3D('',#531,#429,#430);
#375=AXIS2_PLACEMENT_3D('',#533,#431,#432);
#376=AXIS2_PLACEMENT_3D('',#534,#433,#434);
#377=AXIS2_PLACEMENT_3D('',#536,#435,#436);
#378=AXIS2_PLACEMENT_3D('',#546,#442,#443);
#379=AXIS2_PLACEMENT_3D('',#548,#445,#446);
#380=AXIS2_PLACEMENT_3D('',#558,#452,#453);
#381=AXIS2_PLACEMENT_3D('',#560,#455,#456);
#382=AXIS2_PLACEMENT_3D('',#562,#457,#458);
#383=AXIS2_PLACEMENT_3D('',#564,#459,#460);
#384=AXIS2_PLACEMENT_3D('',#566,#462,#463);
#385=AXIS2_PLACEMENT_3D('',#567,#464,#465);
#386=AXIS2_PLACEMENT_3D('',#569,#466,#467);
#387=AXIS2_PLACEMENT_3D('',#570,#468,#469);
#388=AXIS2_PLACEMENT_3D('',#572,#470,#471);
#389=AXIS2_PLACEMENT_3D('',#573,#472,#473);
#390=AXIS2_PLACEMENT_3D('',#574,#474,#475);
#391=AXIS2_PLACEMENT_3D('',#577,#476,#477);
#392=AXIS2_PLACEMENT_3D('',#579,#478,#479);
#393=AXIS2_PLACEMENT_3D('',#581,#480,#481);
#394=AXIS2_PLACEMENT_3D('',#582,#482,#483);
#395=AXIS2_PLACEMENT_3D('',#585,#486,#487);
#396=AXIS2_PLACEMENT_3D('',#587,#489,#490);
#397=AXIS2_PLACEMENT_3D('',#589,#492,#493);
#398=DIRECTION('',(0.,0.,1.));
#399=DIRECTION('',(1.,0.,0.));
#400=DIRECTION('',(-0.5,-0.866025403784439,0.));
#401=DIRECTION('',(0.866025403784439,-0.5,0.));
#402=DIRECTION('',(0.866025403784439,-0.5,0.));
#403=DIRECTION('',(0.,0.,1.));
#404=DIRECTION('',(0.866025403784439,-0.5,0.));
#405=DIRECTION('',(0.,0.,1.));
#406=DIRECTION('',(0.,0.,1.));
#407=DIRECTION('',(1.,0.,0.));
#408=DIRECTION('',(0.,0.,1.));
#409=DIRECTION('',(1.,0.,0.));
#410=DIRECTION('',(0.,0.,-1.));
#411=DIRECTION('',(1.,0.,0.));
#412=DIRECTION('',(0.5,0.866025403784439,0.));
#413=DIRECTION('',(0.866025403784439,-0.5,0.));
#414=DIRECTION('',(0.5,0.866025403784439,0.));
#415=DIRECTION('',(-0.866025403784439,0.5,0.));
#416=DIRECTION('',(-0.5,-0.866025403784439,0.));
#417=DIRECTION('',(0.,0.,-1.));
#418=DIRECTION('',(0.5,0.866025403784439,0.));
#419=DIRECTION('',(0.,0.,-1.));
#420=DIRECTION('',(0.5,0.866025403784439,0.));
#421=DIRECTION('',(0.,0.,-1.));
#422=DIRECTION('',(0.5,0.866025403784439,0.));
#423=DIRECTION('',(0.5,0.866025403784439,0.));
#424=DIRECTION('',(-0.866025403784439,0.5,0.));
#425=DIRECTION('',(0.,0.,-1.));
#426=DIRECTION('',(0.866025403784439,-0.5,0.));
#427=DIRECTION('',(0.,0.,-1.));
#428=DIRECTION('',(-1.,0.,0.));
#429=DIRECTION('',(0.,0.,1.));
#430=DIRECTION('',(1.,0.,0.));
#431=DIRECTION('',(0.,0.,-1.));
#432=DIRECTION('',(-1.,0.,0.));
#433=DIRECTION('',(0.,0.,-1.));
#434=DIRECTION('',(1.,0.,0.));
#435=DIRECTION('',(-0.866025403784439,0.5,0.));
#436=DIRECTION('',(-0.5,-0.866025403784439,0.));
#437=DIRECTION('',(0.5,0.866025403784439,0.));
#438=DIRECTION('',(0.,0.,-1.));
#439=DIRECTION('',(0.5,0.866025403784439,0.));
#440=DIRECTION('',(0.,0.,-1.));
#441=DIRECTION('',(0.5,0.866025403784439,0.));
#442=DIRECTION('',(0.,0.,1.));
#443=DIRECTION('',(1.,0.,0.));
#444=DIRECTION('',(0.866025403784439,-0.5,0.));
#445=DIRECTION('',(0.5,0.866025403784439,0.));
#446=DIRECTION('',(-0.866025403784439,0.5,0.));
#447=DIRECTION('',(-1.1829248808954E-16,6.82961998416067E-17,-1.));
#448=DIRECTION('',(0.866025403784439,-0.5,0.));
#449=DIRECTION('',(-1.1829248808954E-16,6.82961998416067E-17,-1.));
#450=DIRECTION('',(0.866025403784439,-0.5,0.));
#451=DIRECTION('',(0.866025403784439,-0.5,0.));
#452=DIRECTION('',(0.,0.,-1.));
#453=DIRECTION('',(1.,0.,0.));
#454=DIRECTION('',(0.866025403784439,-0.5,0.));
#455=DIRECTION('',(0.,0.,1.));
#456=DIRECTION('',(1.,0.,0.));
#457=DIRECTION('',(0.,0.,-1.));
#458=DIRECTION('',(1.,0.,0.));
#459=DIRECTION('',(0.5,0.866025403784439,0.));
#460=DIRECTION('',(-0.866025403784439,0.5,0.));
#461=DIRECTION('',(0.866025403784439,-0.5,0.));
#462=DIRECTION('',(0.,0.,-1.));
#463=DIRECTION('',(-1.,0.,0.));
#464=DIRECTION('',(0.,0.,-1.));
#465=DIRECTION('',(1.,0.,0.));
#466=DIRECTION('',(0.,0.,-1.));
#467=DIRECTION('',(-1.,0.,0.));
#468=DIRECTION('',(0.,0.,1.));
#469=DIRECTION('',(1.,0.,0.));
#470=DIRECTION('',(0.,0.,1.));
#471=DIRECTION('',(1.,0.,0.));
#472=DIRECTION('',(-0.866025403784438,0.5,0.));
#473=DIRECTION('',(0.,0.,1.));
#474=DIRECTION('',(0.,0.,1.));
#475=DIRECTION('',(1.,0.,0.));
#476=DIRECTION('',(0.866025403784438,-0.5,-1.36592399683213E-16));
#477=DIRECTION('',(0.5,0.866025403784439,0.));
#478=DIRECTION('',(0.,0.,1.));
#479=DIRECTION('',(1.,0.,0.));
#480=DIRECTION('',(0.866025403784438,-0.5,-1.36592399683213E-16));
#481=DIRECTION('',(0.5,0.866025403784439,0.));
#482=DIRECTION('',(0.,0.,1.));
#483=DIRECTION('',(1.,0.,0.));
#484=DIRECTION('',(0.5,0.866025403784438,0.));
#485=DIRECTION('',(0.5,0.866025403784438,0.));
#486=DIRECTION('',(0.866025403784438,-0.5,-1.36592399683213E-16));
#487=DIRECTION('',(0.5,0.866025403784439,0.));
#488=DIRECTION('',(0.5,0.866025403784438,0.));
#489=DIRECTION('',(0.,0.,1.));
#490=DIRECTION('',(1.,0.,0.));
#491=DIRECTION('',(0.5,0.866025403784438,0.));
#492=DIRECTION('',(0.866025403784438,-0.5,-1.36592399683213E-16));
#493=DIRECTION('',(0.5,0.866025403784439,0.));
#494=CARTESIAN_POINT('',(0.,0.,0.));
#495=CARTESIAN_POINT('',(-0.0261813084368741,-0.0453473564212977,0.109855));
#496=CARTESIAN_POINT('',(-0.0261813084368741,-0.0453473564212977,0.11303));
#497=CARTESIAN_POINT('',(-0.041769765704994,-0.0363473564212978,0.11303));
#498=CARTESIAN_POINT('',(-0.0105928511687542,-0.0543473564212977,0.11303));
#499=CARTESIAN_POINT('',(-0.041769765704994,-0.0363473564212978,0.109855));
#500=CARTESIAN_POINT('',(-0.0417697657049865,-0.0363473564213021,0.117475));
#501=CARTESIAN_POINT('',(-0.0261813084368741,-0.0453473564212977,0.117475));
#502=CARTESIAN_POINT('',(-0.0105928511687542,-0.0543473564212977,0.117475));
#503=CARTESIAN_POINT('',(-0.0105928511687542,-0.0543473564212977,0.109855));
#504=CARTESIAN_POINT('',(6.93889390390723E-18,-9.22872889219661E-16,0.117475));
#505=CARTESIAN_POINT('',(-0.032537819719463,-0.029882156921644,0.117475));
#506=CARTESIAN_POINT('',(-0.030950319719463,-0.029882156921644,0.117475));
#507=CARTESIAN_POINT('',(-0.00960979715427001,-0.0431196569216439,0.117475));
#508=CARTESIAN_POINT('',(-0.00802229715427001,-0.0431196569216439,0.117475));
#509=CARTESIAN_POINT('',(-0.0366622657049864,-0.027500906921644,0.117475));
#510=CARTESIAN_POINT('',(-0.0344122657049864,-0.023603792604614,0.117475));
#511=CARTESIAN_POINT('',(-0.0188238084368665,-0.0326037926046139,0.117475));
#512=CARTESIAN_POINT('',(-0.00323535116874662,-0.0416037926046139,0.117475));
#513=CARTESIAN_POINT('',(-0.00548535116874662,-0.0455009069216439,0.117475));
#514=CARTESIAN_POINT('',(-0.00548535116874662,-0.0455009069216439,0.12065));
#515=CARTESIAN_POINT('',(-0.0121803511687466,-0.0570969870783176,0.12065));
#516=CARTESIAN_POINT('',(-0.0121803511687466,-0.0570969870783176,0.12065));
#517=CARTESIAN_POINT('',(-0.0121803511687542,-0.0570969870783133,0.109855));
#518=CARTESIAN_POINT('',(-0.0113866011687542,-0.0557221717498055,0.109855));
#519=CARTESIAN_POINT('',(-0.00323535116874662,-0.0416037926046139,0.109855));
#520=CARTESIAN_POINT('',(-0.00323535116874662,-0.0416037926046139,0.11303));
#521=CARTESIAN_POINT('',(-0.00323535116874662,-0.0416037926046139,0.11303));
#522=CARTESIAN_POINT('',(-0.00548535116874662,-0.0455009069216439,0.11303));
#523=CARTESIAN_POINT('',(-0.00323535116874662,-0.0416037926046139,0.12065));
#524=CARTESIAN_POINT('',(-0.00323535116874662,-0.0416037926046139,0.12065));
#525=CARTESIAN_POINT('',(-0.00548535116874662,-0.0455009069216439,0.12065));
#526=CARTESIAN_POINT('',(-0.0188238084368665,-0.0326037926046139,0.12065));
#527=CARTESIAN_POINT('',(-0.0344122657049864,-0.023603792604614,0.12065));
#528=CARTESIAN_POINT('',(-0.0344122657049864,-0.023603792604614,0.12065));
#529=CARTESIAN_POINT('',(-0.0188238084368665,-0.0326037926046139,0.12065));
#530=CARTESIAN_POINT('',(-0.032537819719463,-0.029882156921644,0.12065));
#531=CARTESIAN_POINT('',(-0.032537819719463,-0.029882156921644,0.12065));
#532=CARTESIAN_POINT('',(-0.030950319719463,-0.029882156921644,0.12065));
#533=CARTESIAN_POINT('',(-0.00960979715427001,-0.0431196569216439,0.12065));
#534=CARTESIAN_POINT('',(-0.00960979715427001,-0.0431196569216439,0.12065));
#535=CARTESIAN_POINT('',(-0.00802229715427001,-0.0431196569216439,0.12065));
#536=CARTESIAN_POINT('',(-0.0366622657049864,-0.027500906921644,0.12065));
#537=CARTESIAN_POINT('',(-0.0366622657049864,-0.027500906921644,0.11303));
#538=CARTESIAN_POINT('',(-0.0344122657049864,-0.023603792604614,0.11303));
#539=CARTESIAN_POINT('',(-0.0344122657049864,-0.023603792604614,0.11303));
#540=CARTESIAN_POINT('',(-0.0344122657049864,-0.023603792604614,0.109855));
#541=CARTESIAN_POINT('',(-0.042563515704994,-0.0377221717498055,0.109855));
#542=CARTESIAN_POINT('',(-0.043357265704994,-0.0390969870783133,0.109855));
#543=CARTESIAN_POINT('',(-0.0433572657049864,-0.0390969870783175,0.12065));
#544=CARTESIAN_POINT('',(-0.0433572657049864,-0.0390969870783175,0.12065));
#545=CARTESIAN_POINT('',(-0.0366622657049864,-0.027500906921644,0.12065));
#546=CARTESIAN_POINT('',(6.93889390390723E-18,-9.22872889219661E-16,0.12065));
#547=CARTESIAN_POINT('',(-0.0277688084368665,-0.0480969870783176,0.12065));
#548=CARTESIAN_POINT('',(-0.0277688084368665,-0.0480969870783176,0.12065));
#549=CARTESIAN_POINT('',(-0.0291436237653819,-0.0473032370783133,0.1152525));
#550=CARTESIAN_POINT('',(-0.0291436237653819,-0.0473032370783133,0.11684));
#551=CARTESIAN_POINT('',(-0.0291436237653819,-0.0473032370783133,0.113665));
#552=CARTESIAN_POINT('',(-0.0277688084368742,-0.0480969870783133,0.11684));
#553=CARTESIAN_POINT('',(-0.0263939931083663,-0.0488907370783133,0.11684));
#554=CARTESIAN_POINT('',(-0.0263939931083663,-0.0488907370783133,0.1152525));
#555=CARTESIAN_POINT('',(-0.0263939931083664,-0.0488907370783133,0.113665));
#556=CARTESIAN_POINT('',(-0.0277688084368742,-0.0480969870783133,0.113665));
#557=CARTESIAN_POINT('',(-0.0277688084368742,-0.0480969870783133,0.109855));
#558=CARTESIAN_POINT('',(0.00609017558437713,-1.38777878078145E-17,0.109855));
#559=CARTESIAN_POINT('',(-0.0188238084368665,-0.0326037926046139,0.109855));
#560=CARTESIAN_POINT('',(-0.032537819719463,-0.029882156921644,0.109855));
#561=CARTESIAN_POINT('',(-0.030950319719463,-0.029882156921644,0.109855));
#562=CARTESIAN_POINT('',(-0.00960979715427001,-0.0431196569216439,0.109855));
#563=CARTESIAN_POINT('',(-0.00802229715427001,-0.0431196569216439,0.109855));
#564=CARTESIAN_POINT('',(-0.0188238084368665,-0.0326037926046139,0.11303));
#565=CARTESIAN_POINT('',(-0.0188238084368665,-0.0326037926046139,0.11303));
#566=CARTESIAN_POINT('',(-0.00960979715427001,-0.0431196569216439,0.11303));
#567=CARTESIAN_POINT('',(-0.00960979715427001,-0.0431196569216439,0.11303));
#568=CARTESIAN_POINT('',(-0.00802229715427001,-0.0431196569216439,0.11303));
#569=CARTESIAN_POINT('',(-0.032537819719463,-0.029882156921644,0.11303));
#570=CARTESIAN_POINT('',(-0.032537819719463,-0.029882156921644,0.11303));
#571=CARTESIAN_POINT('',(-0.030950319719463,-0.029882156921644,0.11303));
#572=CARTESIAN_POINT('',(6.93889390390723E-18,-9.22872889219661E-16,0.11303));
#573=CARTESIAN_POINT('',(-0.0321157771368741,-0.0556261577256249,0.1152525));
#574=CARTESIAN_POINT('',(-0.0321157771368741,-0.0556261577256249,0.11684));
#575=CARTESIAN_POINT('',(-0.0318542349202149,-0.051998153318047,0.11684));
#576=CARTESIAN_POINT('',(-0.0291046042631993,-0.053585653318047,0.11684));
#577=CARTESIAN_POINT('',(-0.0334905924653819,-0.0548324077256249,0.1152525));
#578=CARTESIAN_POINT('',(-0.0318542349202149,-0.051998153318047,0.113665));
#579=CARTESIAN_POINT('',(-0.0321157771368741,-0.0556261577256249,0.113665));
#580=CARTESIAN_POINT('',(-0.0291046042631993,-0.053585653318047,0.113665));
#581=CARTESIAN_POINT('',(-0.0307409618083664,-0.0564199077256249,0.1152525));
#582=CARTESIAN_POINT('',(-0.0321157771368742,-0.0556261577256249,0.11684));
#583=CARTESIAN_POINT('',(-0.0334905924653819,-0.0548324077256249,0.11684));
#584=CARTESIAN_POINT('',(-0.0307409618083664,-0.0564199077256249,0.11684));
#585=CARTESIAN_POINT('',(-0.0334905924653819,-0.0548324077256249,0.1152525));
#586=CARTESIAN_POINT('',(-0.0334905924653819,-0.0548324077256249,0.113665));
#587=CARTESIAN_POINT('',(-0.0321157771368742,-0.0556261577256249,0.113665));
#588=CARTESIAN_POINT('',(-0.0307409618083664,-0.0564199077256249,0.113665));
#589=CARTESIAN_POINT('',(-0.0307409618083664,-0.0564199077256249,0.1152525));
#590=MECHANICAL_DESIGN_GEOMETRIC_PRESENTATION_REPRESENTATION('',(#355),
#591);
#591=(
GEOMETRIC_REPRESENTATION_CONTEXT(3)
GLOBAL_UNCERTAINTY_ASSIGNED_CONTEXT((#592))
GLOBAL_UNIT_ASSIGNED_CONTEXT((#595,#594,#593))
REPRESENTATION_CONTEXT('Part 9','TOP_LEVEL_ASSEMBLY_PART')
);
#592=UNCERTAINTY_MEASURE_WITH_UNIT(LENGTH_MEASURE(1.E-8),#595,
'DISTANCE_ACCURACY_VALUE','Maximum Tolerance applied to model');
#593=(
NAMED_UNIT(*)
SI_UNIT($,.STERADIAN.)
SOLID_ANGLE_UNIT()
);
#594=(
NAMED_UNIT(*)
PLANE_ANGLE_UNIT()
SI_UNIT($,.RADIAN.)
);
#595=(
LENGTH_UNIT()
NAMED_UNIT(*)
SI_UNIT($,.METRE.)
);
#596=PRODUCT_DEFINITION_SHAPE('','',#597);
#597=PRODUCT_DEFINITION('','',#599,#598);
#598=PRODUCT_DEFINITION_CONTEXT('',#605,'design');
#599=PRODUCT_DEFINITION_FORMATION_WITH_SPECIFIED_SOURCE('','',#601,
 .NOT_KNOWN.);
#600=PRODUCT_RELATED_PRODUCT_CATEGORY('','',(#601));
#601=PRODUCT('Part 9','Part 9','Part 9',(#603));
#602=PRODUCT_CATEGORY('','');
#603=PRODUCT_CONTEXT('',#605,'mechanical');
#604=APPLICATION_PROTOCOL_DEFINITION('international standard',
'ap242_managed_model_based_3d_engineering',2011,#605);
#605=APPLICATION_CONTEXT('managed model based 3d engineering');
ENDSEC;
END-ISO-10303-21;
