ISO-10303-21;
HEADER;
/* Generated by software containing ST-Developer
 * from STEP Tools, Inc. (www.steptools.com) 
 */
/* OPTION: using custom renumber hook */

FILE_DESCRIPTION(
/* description */ ('STEP AP242',
'CAx-IF Rec.Pracs.---Representation and Presentation of Product Manufa
cturing Information (PMI)---4.0---2014-10-13',
'CAx-IF Rec.Pracs.---3D Tessellated Geometry---0.4---2014-09-14','2;1'),

/* implementation_level */ '2;1');

FILE_NAME(
/* name */ 'Part Studio 1 - Part 10',
/* time_stamp */ '2025-07-21T21:28:56Z',
/* author */ (''),
/* organization */ (''),
/* preprocessor_version */ 'ST-DEVELOPER v20',
/* originating_system */ 'ONSHAPE BY PTC INC, 1.201',
/* authorisation */ '  ');

FILE_SCHEMA (('AP242_MANAGED_MODEL_BASED_3D_ENGINEERING_MIM_LF { 1 0 10303 442 1 1 4 }'));
ENDSEC;

DATA;
#10=SHAPE_REPRESENTATION_RELATIONSHIP('','',#61,#11);
#11=ADVANCED_BREP_SHAPE_REPRESENTATION('',(#59),#179);
#12=VERTEX_LOOP('',#28);
#13=B_SPLINE_SURFACE_WITH_KNOTS('',3,3,((#87,#88,#89,#90,#91,#92,#93,#94,
#95,#96,#97),(#98,#99,#100,#101,#102,#103,#104,#105,#106,#107,#108),(#109,
#110,#111,#112,#113,#114,#115,#116,#117,#118,#119),(#120,#121,#122,#123,
#124,#125,#126,#127,#128,#129,#130)),.UNSPECIFIED.,.F.,.T.,.F.,(4,4),(1,
1,1,1,1,1,1,1,1,1,1,1,1,1,1),(0.,0.0931439353934962),(-2.35619449019234,
-1.5707963267949,-0.785398163397448,0.,0.785398163397448,1.5707963267949,
2.35619449019234,3.14159265358979,3.92699081698724,4.71238898038469,5.49778714378214,
6.28318530717959,7.06858347057703,7.85398163397448,8.63937979737193),
 .UNSPECIFIED.);
#14=B_SPLINE_SURFACE_WITH_KNOTS('',3,3,((#133,#134,#135,#136,#137,#138,
#139,#140,#141,#142,#143),(#144,#145,#146,#147,#148,#149,#150,#151,#152,
#153,#154),(#155,#156,#157,#158,#159,#160,#161,#162,#163,#164,#165),(#166,
#167,#168,#169,#170,#171,#172,#173,#174,#175,#176)),.UNSPECIFIED.,.F.,.T.,
 .F.,(4,4),(1,1,1,1,1,1,1,1,1,1,1,1,1,1,1),(0.0931439353934969,0.5),(-2.35619449019234,
-1.5707963267949,-0.785398163397448,0.,0.785398163397448,1.5707963267949,
2.35619449019234,3.14159265358979,3.92699081698724,4.71238898038469,5.49778714378214,
6.28318530717959,7.06858347057703,7.85398163397448,8.63937979737193),
 .UNSPECIFIED.);
#15=PLANE('',#65);
#16=ORIENTED_EDGE('',*,*,#22,.F.);
#17=ORIENTED_EDGE('',*,*,#23,.F.);
#18=ORIENTED_EDGE('',*,*,#22,.T.);
#19=ORIENTED_EDGE('',*,*,#24,.F.);
#20=ORIENTED_EDGE('',*,*,#23,.T.);
#21=ORIENTED_EDGE('',*,*,#24,.T.);
#22=EDGE_CURVE('',#25,#25,#29,.T.);
#23=EDGE_CURVE('',#26,#26,#30,.T.);
#24=EDGE_CURVE('',#27,#27,#31,.T.);
#25=VERTEX_POINT('',#83);
#26=VERTEX_POINT('',#86);
#27=VERTEX_POINT('',#132);
#28=VERTEX_POINT('',#177);
#29=CIRCLE('',#64,0.00407984257323072);
#30=CIRCLE('',#66,0.00322984257323069);
#31=CIRCLE('',#67,0.00400821712823709);
#32=EDGE_LOOP('',(#16));
#33=EDGE_LOOP('',(#17));
#34=EDGE_LOOP('',(#18));
#35=EDGE_LOOP('',(#19));
#36=EDGE_LOOP('',(#20));
#37=EDGE_LOOP('',(#21));
#38=FACE_BOUND('',#32,.T.);
#39=FACE_BOUND('',#33,.T.);
#40=FACE_BOUND('',#34,.T.);
#41=FACE_BOUND('',#35,.T.);
#42=FACE_BOUND('',#36,.T.);
#43=FACE_BOUND('',#12,.T.);
#44=FACE_BOUND('',#37,.T.);
#45=SPHERICAL_SURFACE('',#63,0.0055);
#46=ADVANCED_FACE('',(#38),#45,.T.);
#47=ADVANCED_FACE('',(#39,#40),#15,.F.);
#48=ADVANCED_FACE('',(#41,#42),#13,.F.);
#49=ADVANCED_FACE('',(#43,#44),#14,.F.);
#50=CLOSED_SHELL('',(#46,#47,#48,#49));
#51=STYLED_ITEM('',(#52),#59);
#52=PRESENTATION_STYLE_ASSIGNMENT((#53));
#53=SURFACE_STYLE_USAGE(.BOTH.,#54);
#54=SURFACE_SIDE_STYLE('',(#55));
#55=SURFACE_STYLE_FILL_AREA(#56);
#56=FILL_AREA_STYLE('',(#57));
#57=FILL_AREA_STYLE_COLOUR('',#58);
#58=COLOUR_RGB('',0.768627450980392,0.886274509803922,0.952941176470588);
#59=MANIFOLD_SOLID_BREP('Part 10',#50);
#60=SHAPE_DEFINITION_REPRESENTATION(#184,#61);
#61=SHAPE_REPRESENTATION('Part 10',(#62),#179);
#62=AXIS2_PLACEMENT_3D('',#80,#68,#69);
#63=AXIS2_PLACEMENT_3D('',#81,#70,#71);
#64=AXIS2_PLACEMENT_3D('',#82,#72,#73);
#65=AXIS2_PLACEMENT_3D('',#84,#74,#75);
#66=AXIS2_PLACEMENT_3D('',#85,#76,#77);
#67=AXIS2_PLACEMENT_3D('',#131,#78,#79);
#68=DIRECTION('',(0.,0.,1.));
#69=DIRECTION('',(1.,0.,0.));
#70=DIRECTION('',(0.426957108160408,-0.739511403986508,0.520413788408037));
#71=DIRECTION('',(-0.260206894204019,0.45069156124106,0.853914216320817));
#72=DIRECTION('',(0.426957108160408,-0.739511403986508,0.520413788408037));
#73=DIRECTION('',(-0.260206894204019,0.45069156124106,0.853914216320817));
#74=DIRECTION('',(-0.426957108160408,0.739511403986508,-0.520413788408037));
#75=DIRECTION('',(0.260206894204019,-0.45069156124106,-0.853914216320817));
#76=DIRECTION('',(0.426957108160408,-0.739511403986508,0.520413788408037));
#77=DIRECTION('',(-0.260206894204019,0.45069156124106,0.853914216320817));
#78=DIRECTION('',(0.426957108160408,-0.739511403986508,0.520413788408037));
#79=DIRECTION('',(-0.260206894204019,0.45069156124106,0.853914216320817));
#80=CARTESIAN_POINT('',(0.,0.,0.));
#81=CARTESIAN_POINT('',(-0.0197806461048337,0.0342610840601114,0.0808605361580583));
#82=CARTESIAN_POINT('',(-0.0182058233582091,0.0315334110500424,0.0827800719989609));
#83=CARTESIAN_POINT('',(-0.0192674265230308,0.0333721616689895,0.0862639075725935));
#84=CARTESIAN_POINT('',(-0.0191698489377043,0.0332031523335241,0.0859436897414732));
#85=CARTESIAN_POINT('',(-0.0182058233582091,0.0315334110500424,0.0827800719989609));
#86=CARTESIAN_POINT('',(-0.0190462506629574,0.0329890738419346,0.0855380804887208));
#87=CARTESIAN_POINT('',(-0.0166725317346756,0.0339395564291669,0.0849412795130855));
#88=CARTESIAN_POINT('',(-0.0191371800123932,0.0331465680950566,0.0858364809765385));
#89=CARTESIAN_POINT('',(-0.0210562521934962,0.0314086142422147,0.0849412795130854));
#90=CARTESIAN_POINT('',(-0.0213055818214674,0.0297437646668575,0.0827800719989609));
#91=CARTESIAN_POINT('',(-0.0197391149817427,0.0291272656709181,0.0806188644848363));
#92=CARTESIAN_POINT('',(-0.0172744667040251,0.0299202540050284,0.0797236630213833));
#93=CARTESIAN_POINT('',(-0.015355394522922,0.0316582078578702,0.0806188644848364));
#94=CARTESIAN_POINT('',(-0.0151060648949508,0.0333230574332275,0.0827800719989609));
#95=CARTESIAN_POINT('',(-0.0166725317346756,0.0339395564291669,0.0849412795130855));
#96=CARTESIAN_POINT('',(-0.0191371800123932,0.0331465680950566,0.0858364809765385));
#97=CARTESIAN_POINT('',(-0.0210562521934962,0.0314086142422147,0.0849412795130854));
#98=CARTESIAN_POINT('',(-0.0167700625210635,0.0347711673422158,0.0848606661627216));
#99=CARTESIAN_POINT('',(-0.019557373170373,0.0338743639936704,0.0858730639944605));
#100=CARTESIAN_POINT('',(-0.021727682977067,0.0319088838374022,0.0848606661627216));
#101=CARTESIAN_POINT('',(-0.0220096538909355,0.0300260784923779,0.0824165215868207));
#102=CARTESIAN_POINT('',(-0.0202381111748291,0.0293288697944043,0.0799723770109198));
#103=CARTESIAN_POINT('',(-0.0174508005255196,0.0302256731429497,0.0789599791791811));
#104=CARTESIAN_POINT('',(-0.0152804907188256,0.0321911532992179,0.0799723770109198));
#105=CARTESIAN_POINT('',(-0.0149985198049571,0.0340739586442421,0.0824165215868208));
#106=CARTESIAN_POINT('',(-0.0167700625210635,0.0347711673422158,0.0848606661627216));
#107=CARTESIAN_POINT('',(-0.019557373170373,0.0338743639936704,0.0858730639944605));
#108=CARTESIAN_POINT('',(-0.021727682977067,0.0319088838374022,0.0848606661627216));
#109=CARTESIAN_POINT('',(-0.0169320463073983,0.035441407801044,0.0846857272069721));
#110=CARTESIAN_POINT('',(-0.0199090916439447,0.0344835582598572,0.0857670398494844));
#111=CARTESIAN_POINT('',(-0.0222271363478889,0.0323842861407834,0.084685727206972));
#112=CARTESIAN_POINT('',(-0.0225283012698476,0.0303733165800645,0.0820752075602532));
#113=CARTESIAN_POINT('',(-0.0206361680830484,0.0296286482728501,0.0794646879135344));
#114=CARTESIAN_POINT('',(-0.0176591227465021,0.0305864978140369,0.0783833752710221));
#115=CARTESIAN_POINT('',(-0.0153410780425578,0.0326857699331107,0.0794646879135345));
#116=CARTESIAN_POINT('',(-0.0150399131205991,0.0346967394938296,0.0820752075602532));
#117=CARTESIAN_POINT('',(-0.0169320463073983,0.035441407801044,0.0846857272069721));
#118=CARTESIAN_POINT('',(-0.0199090916439447,0.0344835582598572,0.0857670398494844));
#119=CARTESIAN_POINT('',(-0.0222271363478889,0.0323842861407834,0.084685727206972));
#120=CARTESIAN_POINT('',(-0.0171395240688912,0.0359682975784186,0.08444250834515));
#121=CARTESIAN_POINT('',(-0.0201981392236064,0.0349842033536361,0.0855534485094708));
#122=CARTESIAN_POINT('',(-0.0225796973993432,0.0328274120416439,0.08444250834515));
#123=CARTESIAN_POINT('',(-0.0228891141163356,0.0307613427417986,0.0817604615334616));
#124=CARTESIAN_POINT('',(-0.0209451372581943,0.029996270829147,0.0790784147217732));
#125=CARTESIAN_POINT('',(-0.0178865221034791,0.0309803650539295,0.0779674745574524));
#126=CARTESIAN_POINT('',(-0.0155049639277422,0.0331371563659217,0.0790784147217732));
#127=CARTESIAN_POINT('',(-0.0151955472107498,0.035203225665767,0.0817604615334616));
#128=CARTESIAN_POINT('',(-0.0171395240688912,0.0359682975784186,0.08444250834515));
#129=CARTESIAN_POINT('',(-0.0201981392236064,0.0349842033536361,0.0855534485094708));
#130=CARTESIAN_POINT('',(-0.0225796973993432,0.0328274120416439,0.08444250834515));
#131=CARTESIAN_POINT('',(-0.0190423306635427,0.0329822842037828,0.0817604615334616));
#132=CARTESIAN_POINT('',(-0.0200852963937767,0.0347887538391011,0.0851831351213639));
#133=CARTESIAN_POINT('',(-0.0171395240688912,0.0359682975784186,0.08444250834515));
#134=CARTESIAN_POINT('',(-0.0201981392236064,0.0349842033536361,0.0855534485094708));
#135=CARTESIAN_POINT('',(-0.0225796973993432,0.0328274120416439,0.08444250834515));
#136=CARTESIAN_POINT('',(-0.0228891141163356,0.0307613427417986,0.0817604615334616));
#137=CARTESIAN_POINT('',(-0.0209451372581943,0.029996270829147,0.0790784147217732));
#138=CARTESIAN_POINT('',(-0.0178865221034791,0.0309803650539295,0.0779674745574524));
#139=CARTESIAN_POINT('',(-0.0155049639277422,0.0331371563659217,0.0790784147217732));
#140=CARTESIAN_POINT('',(-0.0151955472107498,0.035203225665767,0.0817604615334616));
#141=CARTESIAN_POINT('',(-0.0171395240688912,0.0359682975784186,0.08444250834515));
#142=CARTESIAN_POINT('',(-0.0201981392236064,0.0349842033536361,0.0855534485094708));
#143=CARTESIAN_POINT('',(-0.0225796973993432,0.0328274120416439,0.08444250834515));
#144=CARTESIAN_POINT('',(-0.0180457944039132,0.0382697711032209,0.0833801195965866));
#145=CARTESIAN_POINT('',(-0.0214607094623275,0.0371710391552255,0.084620473843275));
#146=CARTESIAN_POINT('',(-0.0241196967704482,0.0347630019368704,0.0833801195965866));
#147=CARTESIAN_POINT('',(-0.0244651576253562,0.0324562549919688,0.0803856395520843));
#148=CARTESIAN_POINT('',(-0.0222947257435153,0.0316020593958813,0.0773911595075823));
#149=CARTESIAN_POINT('',(-0.018879810685101,0.0327007913438767,0.0761508052608938));
#150=CARTESIAN_POINT('',(-0.0162208233769803,0.0351088285622318,0.0773911595075823));
#151=CARTESIAN_POINT('',(-0.0158753625220723,0.0374155755071334,0.0803856395520843));
#152=CARTESIAN_POINT('',(-0.0180457944039132,0.0382697711032209,0.0833801195965866));
#153=CARTESIAN_POINT('',(-0.0214607094623275,0.0371710391552255,0.084620473843275));
#154=CARTESIAN_POINT('',(-0.0241196967704482,0.0347630019368704,0.0833801195965866));
#155=CARTESIAN_POINT('',(-0.019820077895089,0.0378361510906179,0.0810149680851292));
#156=CARTESIAN_POINT('',(-0.0215275354242964,0.0372867851166201,0.0816351452084735));
#157=CARTESIAN_POINT('',(-0.0228570290783568,0.0360827665074424,0.0810149680851293));
#158=CARTESIAN_POINT('',(-0.0230297595058108,0.0349293930349915,0.079517728062878));
#159=CARTESIAN_POINT('',(-0.0219445435648902,0.0345022952369477,0.0780204880406268));
#160=CARTESIAN_POINT('',(-0.0202370860356829,0.0350516612109456,0.0774003109172826));
#161=CARTESIAN_POINT('',(-0.0189075923816224,0.0362556798201232,0.0780204880406269));
#162=CARTESIAN_POINT('',(-0.0187348619541685,0.0374090532925741,0.0795177280628781));
#163=CARTESIAN_POINT('',(-0.019820077895089,0.0378361510906179,0.0810149680851292));
#164=CARTESIAN_POINT('',(-0.0215275354242964,0.0372867851166201,0.0816351452084735));
#165=CARTESIAN_POINT('',(-0.0228570290783568,0.0360827665074424,0.0810149680851293));
#166=CARTESIAN_POINT('',(-0.0208823107299896,0.0361692231637831,0.0795177280628782));
#167=CARTESIAN_POINT('',(-0.0208823107299898,0.036169223163783,0.0795177280628782));
#168=CARTESIAN_POINT('',(-0.0208823107299899,0.0361692231637829,0.0795177280628782));
#169=CARTESIAN_POINT('',(-0.0208823107299899,0.0361692231637828,0.079517728062878));
#170=CARTESIAN_POINT('',(-0.0208823107299898,0.0361692231637827,0.0795177280628779));
#171=CARTESIAN_POINT('',(-0.0208823107299896,0.0361692231637828,0.0795177280628778));
#172=CARTESIAN_POINT('',(-0.0208823107299895,0.0361692231637829,0.0795177280628779));
#173=CARTESIAN_POINT('',(-0.0208823107299895,0.0361692231637831,0.079517728062878));
#174=CARTESIAN_POINT('',(-0.0208823107299896,0.0361692231637831,0.0795177280628782));
#175=CARTESIAN_POINT('',(-0.0208823107299898,0.036169223163783,0.0795177280628782));
#176=CARTESIAN_POINT('',(-0.0208823107299899,0.0361692231637829,0.0795177280628782));
#177=CARTESIAN_POINT('',(-0.0208823107299897,0.036169223163783,0.0795177280628782));
#178=MECHANICAL_DESIGN_GEOMETRIC_PRESENTATION_REPRESENTATION('',(#51),#179);
#179=(
GEOMETRIC_REPRESENTATION_CONTEXT(3)
GLOBAL_UNCERTAINTY_ASSIGNED_CONTEXT((#180))
GLOBAL_UNIT_ASSIGNED_CONTEXT((#183,#182,#181))
REPRESENTATION_CONTEXT('Part 10','TOP_LEVEL_ASSEMBLY_PART')
);
#180=UNCERTAINTY_MEASURE_WITH_UNIT(LENGTH_MEASURE(2.E-5),#183,
'DISTANCE_ACCURACY_VALUE','Maximum Tolerance applied to model');
#181=(
NAMED_UNIT(*)
SI_UNIT($,.STERADIAN.)
SOLID_ANGLE_UNIT()
);
#182=(
NAMED_UNIT(*)
PLANE_ANGLE_UNIT()
SI_UNIT($,.RADIAN.)
);
#183=(
LENGTH_UNIT()
NAMED_UNIT(*)
SI_UNIT($,.METRE.)
);
#184=PRODUCT_DEFINITION_SHAPE('','',#185);
#185=PRODUCT_DEFINITION('','',#187,#186);
#186=PRODUCT_DEFINITION_CONTEXT('',#193,'design');
#187=PRODUCT_DEFINITION_FORMATION_WITH_SPECIFIED_SOURCE('','',#189,
 .NOT_KNOWN.);
#188=PRODUCT_RELATED_PRODUCT_CATEGORY('','',(#189));
#189=PRODUCT('Part 10','Part 10','Part 10',(#191));
#190=PRODUCT_CATEGORY('','');
#191=PRODUCT_CONTEXT('',#193,'mechanical');
#192=APPLICATION_PROTOCOL_DEFINITION('international standard',
'ap242_managed_model_based_3d_engineering',2011,#193);
#193=APPLICATION_CONTEXT('managed model based 3d engineering');
ENDSEC;
END-ISO-10303-21;
