ISO-10303-21;
HEADER;
/* Generated by software containing ST-Developer
 * from STEP Tools, Inc. (www.steptools.com) 
 */
/* OPTION: using custom renumber hook */

FILE_DESCRIPTION(
/* description */ ('STEP AP242',
'CAx-IF Rec.Pracs.---Representation and Presentation of Product Manufa
cturing Information (PMI)---4.0---2014-10-13',
'CAx-IF Rec.Pracs.---3D Tessellated Geometry---0.4---2014-09-14','2;1'),

/* implementation_level */ '2;1');

FILE_NAME(
/* name */ 'Part Studio 1 - Part 15',
/* time_stamp */ '2025-07-21T21:28:57Z',
/* author */ (''),
/* organization */ (''),
/* preprocessor_version */ 'ST-DEVELOPER v20',
/* originating_system */ 'ONSHAPE BY PTC INC, 1.201',
/* authorisation */ '  ');

FILE_SCHEMA (('AP242_MANAGED_MODEL_BASED_3D_ENGINEERING_MIM_LF { 1 0 10303 442 1 1 4 }'));
ENDSEC;

DATA;
#10=SHAPE_REPRESENTATION_RELATIONSHIP('','',#235,#11);
#11=ADVANCED_BREP_SHAPE_REPRESENTATION('',(#233),#375);
#12=CIRCLE('',#239,0.00508);
#13=CIRCLE('',#240,0.00508);
#14=CIRCLE('',#245,0.0015875);
#15=CIRCLE('',#246,0.0015875);
#16=CYLINDRICAL_SURFACE('',#238,0.00508);
#17=CYLINDRICAL_SURFACE('',#244,0.0015875);
#18=ORIENTED_EDGE('',*,*,#74,.F.);
#19=ORIENTED_EDGE('',*,*,#75,.F.);
#20=ORIENTED_EDGE('',*,*,#76,.F.);
#21=ORIENTED_EDGE('',*,*,#77,.T.);
#22=ORIENTED_EDGE('',*,*,#78,.F.);
#23=ORIENTED_EDGE('',*,*,#79,.F.);
#24=ORIENTED_EDGE('',*,*,#80,.T.);
#25=ORIENTED_EDGE('',*,*,#81,.T.);
#26=ORIENTED_EDGE('',*,*,#82,.F.);
#27=ORIENTED_EDGE('',*,*,#81,.F.);
#28=ORIENTED_EDGE('',*,*,#83,.T.);
#29=ORIENTED_EDGE('',*,*,#75,.T.);
#30=ORIENTED_EDGE('',*,*,#84,.T.);
#31=ORIENTED_EDGE('',*,*,#85,.T.);
#32=ORIENTED_EDGE('',*,*,#85,.F.);
#33=ORIENTED_EDGE('',*,*,#86,.T.);
#34=ORIENTED_EDGE('',*,*,#87,.T.);
#35=ORIENTED_EDGE('',*,*,#88,.T.);
#36=ORIENTED_EDGE('',*,*,#89,.T.);
#37=ORIENTED_EDGE('',*,*,#87,.F.);
#38=ORIENTED_EDGE('',*,*,#90,.F.);
#39=ORIENTED_EDGE('',*,*,#77,.F.);
#40=ORIENTED_EDGE('',*,*,#91,.F.);
#41=ORIENTED_EDGE('',*,*,#79,.T.);
#42=ORIENTED_EDGE('',*,*,#92,.F.);
#43=ORIENTED_EDGE('',*,*,#93,.T.);
#44=ORIENTED_EDGE('',*,*,#80,.F.);
#45=ORIENTED_EDGE('',*,*,#91,.T.);
#46=ORIENTED_EDGE('',*,*,#76,.T.);
#47=ORIENTED_EDGE('',*,*,#83,.F.);
#48=ORIENTED_EDGE('',*,*,#92,.T.);
#49=ORIENTED_EDGE('',*,*,#78,.T.);
#50=ORIENTED_EDGE('',*,*,#82,.T.);
#51=ORIENTED_EDGE('',*,*,#88,.F.);
#52=ORIENTED_EDGE('',*,*,#89,.F.);
#53=ORIENTED_EDGE('',*,*,#93,.F.);
#54=ORIENTED_EDGE('',*,*,#86,.F.);
#55=ORIENTED_EDGE('',*,*,#94,.F.);
#56=ORIENTED_EDGE('',*,*,#95,.T.);
#57=ORIENTED_EDGE('',*,*,#96,.T.);
#58=ORIENTED_EDGE('',*,*,#84,.F.);
#59=ORIENTED_EDGE('',*,*,#97,.F.);
#60=ORIENTED_EDGE('',*,*,#98,.T.);
#61=ORIENTED_EDGE('',*,*,#94,.T.);
#62=ORIENTED_EDGE('',*,*,#74,.T.);
#63=ORIENTED_EDGE('',*,*,#99,.F.);
#64=ORIENTED_EDGE('',*,*,#100,.F.);
#65=ORIENTED_EDGE('',*,*,#97,.T.);
#66=ORIENTED_EDGE('',*,*,#90,.T.);
#67=ORIENTED_EDGE('',*,*,#96,.F.);
#68=ORIENTED_EDGE('',*,*,#101,.F.);
#69=ORIENTED_EDGE('',*,*,#99,.T.);
#70=ORIENTED_EDGE('',*,*,#95,.F.);
#71=ORIENTED_EDGE('',*,*,#98,.F.);
#72=ORIENTED_EDGE('',*,*,#100,.T.);
#73=ORIENTED_EDGE('',*,*,#101,.T.);
#74=EDGE_CURVE('',#102,#103,#120,.T.);
#75=EDGE_CURVE('',#104,#102,#121,.T.);
#76=EDGE_CURVE('',#105,#104,#122,.T.);
#77=EDGE_CURVE('',#105,#103,#123,.T.);
#78=EDGE_CURVE('',#106,#107,#12,.T.);
#79=EDGE_CURVE('',#108,#106,#124,.T.);
#80=EDGE_CURVE('',#108,#109,#13,.T.);
#81=EDGE_CURVE('',#109,#107,#125,.T.);
#82=EDGE_CURVE('',#107,#110,#126,.T.);
#83=EDGE_CURVE('',#109,#104,#127,.T.);
#84=EDGE_CURVE('',#102,#111,#128,.T.);
#85=EDGE_CURVE('',#111,#110,#129,.T.);
#86=EDGE_CURVE('',#111,#112,#130,.T.);
#87=EDGE_CURVE('',#112,#113,#131,.T.);
#88=EDGE_CURVE('',#113,#110,#132,.T.);
#89=EDGE_CURVE('',#106,#113,#133,.T.);
#90=EDGE_CURVE('',#103,#112,#134,.T.);
#91=EDGE_CURVE('',#108,#105,#135,.T.);
#92=EDGE_CURVE('',#114,#114,#14,.T.);
#93=EDGE_CURVE('',#115,#115,#15,.T.);
#94=EDGE_CURVE('',#116,#111,#136,.T.);
#95=EDGE_CURVE('',#116,#117,#137,.T.);
#96=EDGE_CURVE('',#117,#112,#138,.T.);
#97=EDGE_CURVE('',#118,#102,#139,.T.);
#98=EDGE_CURVE('',#118,#116,#140,.T.);
#99=EDGE_CURVE('',#119,#103,#141,.T.);
#100=EDGE_CURVE('',#118,#119,#142,.T.);
#101=EDGE_CURVE('',#119,#117,#143,.T.);
#102=VERTEX_POINT('',#317);
#103=VERTEX_POINT('',#318);
#104=VERTEX_POINT('',#320);
#105=VERTEX_POINT('',#322);
#106=VERTEX_POINT('',#326);
#107=VERTEX_POINT('',#327);
#108=VERTEX_POINT('',#329);
#109=VERTEX_POINT('',#331);
#110=VERTEX_POINT('',#335);
#111=VERTEX_POINT('',#338);
#112=VERTEX_POINT('',#342);
#113=VERTEX_POINT('',#344);
#114=VERTEX_POINT('',#352);
#115=VERTEX_POINT('',#354);
#116=VERTEX_POINT('',#359);
#117=VERTEX_POINT('',#361);
#118=VERTEX_POINT('',#365);
#119=VERTEX_POINT('',#369);
#120=LINE('',#316,#144);
#121=LINE('',#319,#145);
#122=LINE('',#321,#146);
#123=LINE('',#323,#147);
#124=LINE('',#328,#148);
#125=LINE('',#332,#149);
#126=LINE('',#334,#150);
#127=LINE('',#336,#151);
#128=LINE('',#337,#152);
#129=LINE('',#339,#153);
#130=LINE('',#341,#154);
#131=LINE('',#343,#155);
#132=LINE('',#345,#156);
#133=LINE('',#347,#157);
#134=LINE('',#348,#158);
#135=LINE('',#349,#159);
#136=LINE('',#358,#160);
#137=LINE('',#360,#161);
#138=LINE('',#362,#162);
#139=LINE('',#364,#163);
#140=LINE('',#366,#164);
#141=LINE('',#368,#165);
#142=LINE('',#370,#166);
#143=LINE('',#372,#167);
#144=VECTOR('',#258,1.);
#145=VECTOR('',#259,1.);
#146=VECTOR('',#260,1.);
#147=VECTOR('',#261,1.);
#148=VECTOR('',#266,1.);
#149=VECTOR('',#269,1.);
#150=VECTOR('',#272,1.);
#151=VECTOR('',#273,1.);
#152=VECTOR('',#274,1.);
#153=VECTOR('',#275,1.);
#154=VECTOR('',#278,1.);
#155=VECTOR('',#279,1.);
#156=VECTOR('',#280,1.);
#157=VECTOR('',#283,1.);
#158=VECTOR('',#284,1.);
#159=VECTOR('',#285,1.);
#160=VECTOR('',#298,1.);
#161=VECTOR('',#299,1.);
#162=VECTOR('',#300,1.);
#163=VECTOR('',#303,1.);
#164=VECTOR('',#304,1.);
#165=VECTOR('',#307,1.);
#166=VECTOR('',#308,1.);
#167=VECTOR('',#311,1.);
#168=EDGE_LOOP('',(#18,#19,#20,#21));
#169=EDGE_LOOP('',(#22,#23,#24,#25));
#170=EDGE_LOOP('',(#26,#27,#28,#29,#30,#31));
#171=EDGE_LOOP('',(#32,#33,#34,#35));
#172=EDGE_LOOP('',(#36,#37,#38,#39,#40,#41));
#173=EDGE_LOOP('',(#42));
#174=EDGE_LOOP('',(#43));
#175=EDGE_LOOP('',(#44,#45,#46,#47));
#176=EDGE_LOOP('',(#48));
#177=EDGE_LOOP('',(#49,#50,#51,#52));
#178=EDGE_LOOP('',(#53));
#179=EDGE_LOOP('',(#54,#55,#56,#57));
#180=EDGE_LOOP('',(#58,#59,#60,#61));
#181=EDGE_LOOP('',(#62,#63,#64,#65));
#182=EDGE_LOOP('',(#66,#67,#68,#69));
#183=EDGE_LOOP('',(#70,#71,#72,#73));
#184=FACE_BOUND('',#168,.T.);
#185=FACE_BOUND('',#169,.T.);
#186=FACE_BOUND('',#170,.T.);
#187=FACE_BOUND('',#171,.T.);
#188=FACE_BOUND('',#172,.T.);
#189=FACE_BOUND('',#173,.T.);
#190=FACE_BOUND('',#174,.T.);
#191=FACE_BOUND('',#175,.T.);
#192=FACE_BOUND('',#176,.T.);
#193=FACE_BOUND('',#177,.T.);
#194=FACE_BOUND('',#178,.T.);
#195=FACE_BOUND('',#179,.T.);
#196=FACE_BOUND('',#180,.T.);
#197=FACE_BOUND('',#181,.T.);
#198=FACE_BOUND('',#182,.T.);
#199=FACE_BOUND('',#183,.T.);
#200=PLANE('',#237);
#201=PLANE('',#241);
#202=PLANE('',#242);
#203=PLANE('',#243);
#204=PLANE('',#247);
#205=PLANE('',#248);
#206=PLANE('',#249);
#207=PLANE('',#250);
#208=PLANE('',#251);
#209=PLANE('',#252);
#210=PLANE('',#253);
#211=ADVANCED_FACE('',(#184),#200,.F.);
#212=ADVANCED_FACE('',(#185),#16,.T.);
#213=ADVANCED_FACE('',(#186),#201,.T.);
#214=ADVANCED_FACE('',(#187),#202,.F.);
#215=ADVANCED_FACE('',(#188),#203,.F.);
#216=ADVANCED_FACE('',(#189,#190),#17,.F.);
#217=ADVANCED_FACE('',(#191,#192),#204,.F.);
#218=ADVANCED_FACE('',(#193,#194),#205,.T.);
#219=ADVANCED_FACE('',(#195),#206,.T.);
#220=ADVANCED_FACE('',(#196),#207,.T.);
#221=ADVANCED_FACE('',(#197),#208,.F.);
#222=ADVANCED_FACE('',(#198),#209,.F.);
#223=ADVANCED_FACE('',(#199),#210,.T.);
#224=CLOSED_SHELL('',(#211,#212,#213,#214,#215,#216,#217,#218,#219,#220,
#221,#222,#223));
#225=STYLED_ITEM('',(#226),#233);
#226=PRESENTATION_STYLE_ASSIGNMENT((#227));
#227=SURFACE_STYLE_USAGE(.BOTH.,#228);
#228=SURFACE_SIDE_STYLE('',(#229));
#229=SURFACE_STYLE_FILL_AREA(#230);
#230=FILL_AREA_STYLE('',(#231));
#231=FILL_AREA_STYLE_COLOUR('',#232);
#232=COLOUR_RGB('',0.498039215686275,0.498039215686275,0.498039215686275);
#233=MANIFOLD_SOLID_BREP('Part 15',#224);
#234=SHAPE_DEFINITION_REPRESENTATION(#380,#235);
#235=SHAPE_REPRESENTATION('Part 15',(#236),#375);
#236=AXIS2_PLACEMENT_3D('',#314,#254,#255);
#237=AXIS2_PLACEMENT_3D('',#315,#256,#257);
#238=AXIS2_PLACEMENT_3D('',#324,#262,#263);
#239=AXIS2_PLACEMENT_3D('',#325,#264,#265);
#240=AXIS2_PLACEMENT_3D('',#330,#267,#268);
#241=AXIS2_PLACEMENT_3D('',#333,#270,#271);
#242=AXIS2_PLACEMENT_3D('',#340,#276,#277);
#243=AXIS2_PLACEMENT_3D('',#346,#281,#282);
#244=AXIS2_PLACEMENT_3D('',#350,#286,#287);
#245=AXIS2_PLACEMENT_3D('',#351,#288,#289);
#246=AXIS2_PLACEMENT_3D('',#353,#290,#291);
#247=AXIS2_PLACEMENT_3D('',#355,#292,#293);
#248=AXIS2_PLACEMENT_3D('',#356,#294,#295);
#249=AXIS2_PLACEMENT_3D('',#357,#296,#297);
#250=AXIS2_PLACEMENT_3D('',#363,#301,#302);
#251=AXIS2_PLACEMENT_3D('',#367,#305,#306);
#252=AXIS2_PLACEMENT_3D('',#371,#309,#310);
#253=AXIS2_PLACEMENT_3D('',#373,#312,#313);
#254=DIRECTION('',(0.,0.,1.));
#255=DIRECTION('',(1.,0.,0.));
#256=DIRECTION('',(-0.11791020705287,0.204226469346537,-0.971796651718351));
#257=DIRECTION('',(0.,0.978623272176303,0.205661107540887));
#258=DIRECTION('',(-0.485898325859175,0.84160058770075,0.235820414105741));
#259=DIRECTION('',(-0.866025403784439,-0.5,0.));
#260=DIRECTION('',(0.485898325859175,-0.84160058770075,-0.235820414105741));
#261=DIRECTION('',(-0.866025403784439,-0.5,0.));
#262=DIRECTION('',(-0.866025403784439,-0.5,0.));
#263=DIRECTION('',(0.5,-0.866025403784439,0.));
#264=DIRECTION('',(-0.866025403784439,-0.5,0.));
#265=DIRECTION('',(0.5,-0.866025403784439,0.));
#266=DIRECTION('',(-0.866025403784439,-0.5,0.));
#267=DIRECTION('',(-0.866025403784439,-0.5,0.));
#268=DIRECTION('',(0.5,-0.866025403784439,0.));
#269=DIRECTION('',(-0.866025403784439,-0.5,0.));
#270=DIRECTION('',(0.489423949962924,-0.847707147776832,-0.204589317440469));
#271=DIRECTION('',(0.866025403784439,0.5,0.));
#272=DIRECTION('',(0.102294658720234,-0.177179546246365,0.978847899925848));
#273=DIRECTION('',(0.102294658720234,-0.177179546246365,0.978847899925848));
#274=DIRECTION('',(-0.866025403784439,-0.5,0.));
#275=DIRECTION('',(-0.866025403784439,-0.5,0.));
#276=DIRECTION('',(-0.11791020705287,0.204226469346537,-0.971796651718351));
#277=DIRECTION('',(0.,0.978623272176303,0.205661107540887));
#278=DIRECTION('',(-0.485898325859175,0.84160058770075,0.235820414105741));
#279=DIRECTION('',(-0.866025403784439,-0.5,0.));
#280=DIRECTION('',(0.485898325859175,-0.84160058770075,-0.235820414105741));
#281=DIRECTION('',(0.481874606652644,-0.834631301599647,-0.266809770910733));
#282=DIRECTION('',(0.866025403784439,0.5,0.));
#283=DIRECTION('',(0.133404885455367,-0.231064039586601,0.963749213305288));
#284=DIRECTION('',(-0.866025403784439,-0.5,0.));
#285=DIRECTION('',(0.133404885455367,-0.231064039586601,0.963749213305288));
#286=DIRECTION('',(-0.866025403784439,-0.5,0.));
#287=DIRECTION('',(0.5,-0.866025403784439,0.));
#288=DIRECTION('',(-0.866025403784439,-0.5,0.));
#289=DIRECTION('',(0.5,-0.866025403784439,0.));
#290=DIRECTION('',(-0.866025403784439,-0.5,0.));
#291=DIRECTION('',(0.5,-0.866025403784439,0.));
#292=DIRECTION('',(-0.866025403784439,-0.5,0.));
#293=DIRECTION('',(0.5,-0.866025403784439,0.));
#294=DIRECTION('',(-0.866025403784439,-0.5,0.));
#295=DIRECTION('',(0.5,-0.866025403784439,0.));
#296=DIRECTION('',(-0.866025403784439,-0.5,9.04345866546697E-17));
#297=DIRECTION('',(0.5,-0.866025403784439,0.));
#298=DIRECTION('',(-0.11791020705287,0.204226469346537,-0.971796651718351));
#299=DIRECTION('',(-0.485898325859175,0.84160058770075,0.235820414105741));
#300=DIRECTION('',(-0.11791020705287,0.204226469346537,-0.971796651718351));
#301=DIRECTION('',(0.485898325859175,-0.84160058770075,-0.235820414105741));
#302=DIRECTION('',(0.866025403784439,0.5,0.));
#303=DIRECTION('',(-0.11791020705287,0.204226469346537,-0.971796651718351));
#304=DIRECTION('',(-0.866025403784439,-0.5,0.));
#305=DIRECTION('',(-0.866025403784439,-0.5,9.04345866546697E-17));
#306=DIRECTION('',(0.5,-0.866025403784439,0.));
#307=DIRECTION('',(-0.11791020705287,0.204226469346537,-0.971796651718351));
#308=DIRECTION('',(-0.485898325859175,0.84160058770075,0.235820414105741));
#309=DIRECTION('',(0.485898325859175,-0.84160058770075,-0.235820414105741));
#310=DIRECTION('',(0.866025403784439,0.5,0.));
#311=DIRECTION('',(-0.866025403784439,-0.5,0.));
#312=DIRECTION('',(0.11791020705287,-0.204226469346537,0.971796651718351));
#313=DIRECTION('',(-0.485898325859175,0.84160058770075,0.235820414105741));
#314=CARTESIAN_POINT('',(0.,0.,0.));
#315=CARTESIAN_POINT('',(0.00165288946466487,0.0471371072679052,0.0747579745804284));
#316=CARTESIAN_POINT('',(-0.0169666548980472,0.0363871083179052,0.0747579745804285));
#317=CARTESIAN_POINT('',(-0.0154239277134444,0.0337150264519553,0.0740092447656427));
#318=CARTESIAN_POINT('',(-0.0185093820826502,0.0390591901838551,0.0755067043952142));
#319=CARTESIAN_POINT('',(0.00319561664926774,0.0444650254019553,0.0740092447656427));
#320=CARTESIAN_POINT('',(0.00319561664926774,0.0444650254019553,0.0740092447656427));
#321=CARTESIAN_POINT('',(0.00165288946466487,0.0471371072679052,0.0747579745804284));
#322=CARTESIAN_POINT('',(0.000110162280061964,0.0498091891338551,0.0755067043952142));
#323=CARTESIAN_POINT('',(0.000110162280061964,0.0498091891338551,0.0755067043952142));
#324=CARTESIAN_POINT('',(-0.00536957325481936,0.0593003694923102,0.0168799848101986));
#325=CARTESIAN_POINT('',(-0.0486708434440413,0.0343003694923102,0.0168799848101986));
#326=CARTESIAN_POINT('',(-0.0511187664458367,0.0385402965044363,0.0182353784464252));
#327=CARTESIAN_POINT('',(-0.0461845697782296,0.0299940171816038,0.0158406710776011));
#328=CARTESIAN_POINT('',(-0.00781749625661479,0.0635402965044364,0.0182353784464252));
#329=CARTESIAN_POINT('',(-0.00781749625661479,0.0635402965044364,0.0182353784464252));
#330=CARTESIAN_POINT('',(-0.00536957325481936,0.0593003694923102,0.0168799848101986));
#331=CARTESIAN_POINT('',(-0.00288329958900771,0.0549940171816039,0.0158406710776011));
#332=CARTESIAN_POINT('',(-0.00288329958900771,0.0549940171816039,0.0158406710776011));
#333=CARTESIAN_POINT('',(0.000434095403606359,0.0492481205056217,0.0475845095376875));
#334=CARTESIAN_POINT('',(-0.0428671747856156,0.0242481205056217,0.0475845095376875));
#335=CARTESIAN_POINT('',(-0.0401056535399542,0.0194650254019553,0.0740092447656427));
#336=CARTESIAN_POINT('',(0.000434095403606359,0.0492481205056217,0.0475845095376875));
#337=CARTESIAN_POINT('',(0.00319561664926775,0.0444650254019553,0.0740092447656427));
#338=CARTESIAN_POINT('',(-0.0214861055399354,0.0302150264519553,0.0740092447656427));
#339=CARTESIAN_POINT('',(0.00319561664926774,0.0444650254019553,0.0740092447656427));
#340=CARTESIAN_POINT('',(0.00165288946466487,0.0471371072679052,0.0747579745804284));
#341=CARTESIAN_POINT('',(-0.0230288327245383,0.0328871083179052,0.0747579745804285));
#342=CARTESIAN_POINT('',(-0.0245715599091412,0.0355591901838551,0.0755067043952142));
#343=CARTESIAN_POINT('',(0.000110162280061964,0.0498091891338551,0.0755067043952142));
#344=CARTESIAN_POINT('',(-0.0431911079091599,0.0248091891338551,0.0755067043952142));
#345=CARTESIAN_POINT('',(-0.0416483807245571,0.0221371072679051,0.0747579745804284));
#346=CARTESIAN_POINT('',(-0.00385366698827642,0.0566747428191457,0.0468710414208197));
#347=CARTESIAN_POINT('',(-0.0471549371774983,0.0316747428191458,0.0468710414208197));
#348=CARTESIAN_POINT('',(0.000110162280061967,0.0498091891338551,0.0755067043952142));
#349=CARTESIAN_POINT('',(-0.00385366698827642,0.0566747428191457,0.0468710414208197));
#350=CARTESIAN_POINT('',(-0.00536957325481936,0.0593003694923102,0.0168799848101986));
#351=CARTESIAN_POINT('',(-0.00536957325481936,0.0593003694923102,0.0168799848101986));
#352=CARTESIAN_POINT('',(-0.00457582325481936,0.0579255541638024,0.0168799848101986));
#353=CARTESIAN_POINT('',(-0.0486708434440413,0.0343003694923102,0.0168799848101986));
#354=CARTESIAN_POINT('',(-0.0478770934440413,0.0329255541638024,0.0168799848101986));
#355=CARTESIAN_POINT('',(0.00687053001056915,0.0380998887467675,0.037753352197607));
#356=CARTESIAN_POINT('',(-0.0364307401786528,0.0130998887467675,0.037753352197607));
#357=CARTESIAN_POINT('',(-0.0228521324882489,0.0325810545309425,0.0762143090426936));
#358=CARTESIAN_POINT('',(-0.021309405303646,0.0299089726649926,0.0754655792279078));
#359=CARTESIAN_POINT('',(-0.021309405303646,0.0299089726649926,0.0754655792279078));
#360=CARTESIAN_POINT('',(-0.0228521324882489,0.0325810545309425,0.0762143090426936));
#361=CARTESIAN_POINT('',(-0.0243948596728517,0.0352531363968924,0.0769630388574793));
#362=CARTESIAN_POINT('',(-0.0243948596728517,0.0352531363968924,0.0769630388574793));
#363=CARTESIAN_POINT('',(0.00337231688555718,0.0441589716149926,0.0754655792279078));
#364=CARTESIAN_POINT('',(-0.0152472274771549,0.0334089726649926,0.0754655792279078));
#365=CARTESIAN_POINT('',(-0.0152472274771549,0.0334089726649926,0.0754655792279078));
#366=CARTESIAN_POINT('',(0.00337231688555718,0.0441589716149926,0.0754655792279078));
#367=CARTESIAN_POINT('',(-0.0167899546617578,0.0360810545309425,0.0762143090426936));
#368=CARTESIAN_POINT('',(-0.0183326818463607,0.0387531363968924,0.0769630388574793));
#369=CARTESIAN_POINT('',(-0.0183326818463607,0.0387531363968924,0.0769630388574793));
#370=CARTESIAN_POINT('',(-0.0167899546617578,0.0360810545309425,0.0762143090426936));
#371=CARTESIAN_POINT('',(0.000286862516351398,0.0495031353468924,0.0769630388574793));
#372=CARTESIAN_POINT('',(0.000286862516351398,0.0495031353468924,0.0769630388574793));
#373=CARTESIAN_POINT('',(-0.0198210453936567,0.0343310534809425,0.0762143090426936));
#374=MECHANICAL_DESIGN_GEOMETRIC_PRESENTATION_REPRESENTATION('',(#225),
#375);
#375=(
GEOMETRIC_REPRESENTATION_CONTEXT(3)
GLOBAL_UNCERTAINTY_ASSIGNED_CONTEXT((#376))
GLOBAL_UNIT_ASSIGNED_CONTEXT((#379,#378,#377))
REPRESENTATION_CONTEXT('Part 15','TOP_LEVEL_ASSEMBLY_PART')
);
#376=UNCERTAINTY_MEASURE_WITH_UNIT(LENGTH_MEASURE(1.E-8),#379,
'DISTANCE_ACCURACY_VALUE','Maximum Tolerance applied to model');
#377=(
NAMED_UNIT(*)
SI_UNIT($,.STERADIAN.)
SOLID_ANGLE_UNIT()
);
#378=(
NAMED_UNIT(*)
PLANE_ANGLE_UNIT()
SI_UNIT($,.RADIAN.)
);
#379=(
LENGTH_UNIT()
NAMED_UNIT(*)
SI_UNIT($,.METRE.)
);
#380=PRODUCT_DEFINITION_SHAPE('','',#381);
#381=PRODUCT_DEFINITION('','',#383,#382);
#382=PRODUCT_DEFINITION_CONTEXT('',#389,'design');
#383=PRODUCT_DEFINITION_FORMATION_WITH_SPECIFIED_SOURCE('','',#385,
 .NOT_KNOWN.);
#384=PRODUCT_RELATED_PRODUCT_CATEGORY('','',(#385));
#385=PRODUCT('Part 15','Part 15','Part 15',(#387));
#386=PRODUCT_CATEGORY('','');
#387=PRODUCT_CONTEXT('',#389,'mechanical');
#388=APPLICATION_PROTOCOL_DEFINITION('international standard',
'ap242_managed_model_based_3d_engineering',2011,#389);
#389=APPLICATION_CONTEXT('managed model based 3d engineering');
ENDSEC;
END-ISO-10303-21;
