ISO-10303-21;
HEADER;
/* Generated by software containing ST-Developer
 * from STEP Tools, Inc. (www.steptools.com) 
 */
/* OPTION: using custom renumber hook */

FILE_DESCRIPTION(
/* description */ ('STEP AP242',
'CAx-IF Rec.Pracs.---Representation and Presentation of Product Manufa
cturing Information (PMI)---4.0---2014-10-13',
'CAx-IF Rec.Pracs.---3D Tessellated Geometry---0.4---2014-09-14','2;1'),

/* implementation_level */ '2;1');

FILE_NAME(
/* name */ 'Part Studio 1 - Part 12',
/* time_stamp */ '2025-07-21T21:28:57Z',
/* author */ (''),
/* organization */ (''),
/* preprocessor_version */ 'ST-DEVELOPER v20',
/* originating_system */ 'ONSHAPE BY PTC INC, 1.201',
/* authorisation */ '  ');

FILE_SCHEMA (('AP242_MANAGED_MODEL_BASED_3D_ENGINEERING_MIM_LF { 1 0 10303 442 1 1 4 }'));
ENDSEC;

DATA;
#10=SHAPE_REPRESENTATION_RELATIONSHIP('','',#817,#11);
#11=ADVANCED_BREP_SHAPE_REPRESENTATION('',(#815),#1299);
#12=CYLINDRICAL_SURFACE('',#833,0.0500000016);
#13=CYLINDRICAL_SURFACE('',#835,0.0500000016);
#14=CYLINDRICAL_SURFACE('',#837,0.0500000016);
#15=CIRCLE('',#830,0.0500000016);
#16=CIRCLE('',#831,0.0500000016);
#17=CIRCLE('',#832,0.0500000016);
#18=CIRCLE('',#834,0.0500000016);
#19=CIRCLE('',#836,0.0500000016);
#20=CIRCLE('',#838,0.0500000016);
#21=ORIENTED_EDGE('',*,*,#237,.T.);
#22=ORIENTED_EDGE('',*,*,#238,.F.);
#23=ORIENTED_EDGE('',*,*,#239,.F.);
#24=ORIENTED_EDGE('',*,*,#240,.F.);
#25=ORIENTED_EDGE('',*,*,#239,.T.);
#26=ORIENTED_EDGE('',*,*,#241,.F.);
#27=ORIENTED_EDGE('',*,*,#242,.F.);
#28=ORIENTED_EDGE('',*,*,#243,.F.);
#29=ORIENTED_EDGE('',*,*,#242,.T.);
#30=ORIENTED_EDGE('',*,*,#244,.F.);
#31=ORIENTED_EDGE('',*,*,#245,.F.);
#32=ORIENTED_EDGE('',*,*,#246,.F.);
#33=ORIENTED_EDGE('',*,*,#247,.T.);
#34=ORIENTED_EDGE('',*,*,#245,.T.);
#35=ORIENTED_EDGE('',*,*,#248,.T.);
#36=ORIENTED_EDGE('',*,*,#237,.F.);
#37=ORIENTED_EDGE('',*,*,#238,.T.);
#38=ORIENTED_EDGE('',*,*,#248,.F.);
#39=ORIENTED_EDGE('',*,*,#244,.T.);
#40=ORIENTED_EDGE('',*,*,#241,.T.);
#41=ORIENTED_EDGE('',*,*,#249,.T.);
#42=ORIENTED_EDGE('',*,*,#250,.F.);
#43=ORIENTED_EDGE('',*,*,#251,.F.);
#44=ORIENTED_EDGE('',*,*,#252,.F.);
#45=ORIENTED_EDGE('',*,*,#251,.T.);
#46=ORIENTED_EDGE('',*,*,#253,.F.);
#47=ORIENTED_EDGE('',*,*,#254,.F.);
#48=ORIENTED_EDGE('',*,*,#255,.F.);
#49=ORIENTED_EDGE('',*,*,#254,.T.);
#50=ORIENTED_EDGE('',*,*,#256,.F.);
#51=ORIENTED_EDGE('',*,*,#257,.F.);
#52=ORIENTED_EDGE('',*,*,#258,.F.);
#53=ORIENTED_EDGE('',*,*,#259,.T.);
#54=ORIENTED_EDGE('',*,*,#257,.T.);
#55=ORIENTED_EDGE('',*,*,#260,.T.);
#56=ORIENTED_EDGE('',*,*,#249,.F.);
#57=ORIENTED_EDGE('',*,*,#250,.T.);
#58=ORIENTED_EDGE('',*,*,#260,.F.);
#59=ORIENTED_EDGE('',*,*,#256,.T.);
#60=ORIENTED_EDGE('',*,*,#253,.T.);
#61=ORIENTED_EDGE('',*,*,#247,.F.);
#62=ORIENTED_EDGE('',*,*,#240,.T.);
#63=ORIENTED_EDGE('',*,*,#243,.T.);
#64=ORIENTED_EDGE('',*,*,#246,.T.);
#65=ORIENTED_EDGE('',*,*,#259,.F.);
#66=ORIENTED_EDGE('',*,*,#252,.T.);
#67=ORIENTED_EDGE('',*,*,#255,.T.);
#68=ORIENTED_EDGE('',*,*,#258,.T.);
#69=ORIENTED_EDGE('',*,*,#261,.F.);
#70=ORIENTED_EDGE('',*,*,#262,.T.);
#71=ORIENTED_EDGE('',*,*,#263,.T.);
#72=ORIENTED_EDGE('',*,*,#264,.F.);
#73=ORIENTED_EDGE('',*,*,#265,.F.);
#74=ORIENTED_EDGE('',*,*,#266,.T.);
#75=ORIENTED_EDGE('',*,*,#267,.T.);
#76=ORIENTED_EDGE('',*,*,#268,.F.);
#77=ORIENTED_EDGE('',*,*,#269,.F.);
#78=ORIENTED_EDGE('',*,*,#270,.T.);
#79=ORIENTED_EDGE('',*,*,#271,.T.);
#80=ORIENTED_EDGE('',*,*,#272,.F.);
#81=ORIENTED_EDGE('',*,*,#273,.T.);
#82=ORIENTED_EDGE('',*,*,#274,.F.);
#83=ORIENTED_EDGE('',*,*,#275,.T.);
#84=ORIENTED_EDGE('',*,*,#276,.T.);
#85=ORIENTED_EDGE('',*,*,#277,.T.);
#86=ORIENTED_EDGE('',*,*,#278,.F.);
#87=ORIENTED_EDGE('',*,*,#279,.T.);
#88=ORIENTED_EDGE('',*,*,#280,.T.);
#89=ORIENTED_EDGE('',*,*,#281,.T.);
#90=ORIENTED_EDGE('',*,*,#282,.F.);
#91=ORIENTED_EDGE('',*,*,#283,.T.);
#92=ORIENTED_EDGE('',*,*,#284,.T.);
#93=ORIENTED_EDGE('',*,*,#285,.F.);
#94=ORIENTED_EDGE('',*,*,#286,.T.);
#95=ORIENTED_EDGE('',*,*,#287,.T.);
#96=ORIENTED_EDGE('',*,*,#288,.T.);
#97=ORIENTED_EDGE('',*,*,#289,.T.);
#98=ORIENTED_EDGE('',*,*,#290,.T.);
#99=ORIENTED_EDGE('',*,*,#281,.F.);
#100=ORIENTED_EDGE('',*,*,#291,.F.);
#101=ORIENTED_EDGE('',*,*,#292,.T.);
#102=ORIENTED_EDGE('',*,*,#293,.T.);
#103=ORIENTED_EDGE('',*,*,#277,.F.);
#104=ORIENTED_EDGE('',*,*,#294,.F.);
#105=ORIENTED_EDGE('',*,*,#295,.F.);
#106=ORIENTED_EDGE('',*,*,#296,.T.);
#107=ORIENTED_EDGE('',*,*,#297,.T.);
#108=ORIENTED_EDGE('',*,*,#273,.F.);
#109=ORIENTED_EDGE('',*,*,#296,.F.);
#110=ORIENTED_EDGE('',*,*,#298,.F.);
#111=ORIENTED_EDGE('',*,*,#299,.F.);
#112=ORIENTED_EDGE('',*,*,#300,.T.);
#113=ORIENTED_EDGE('',*,*,#289,.F.);
#114=ORIENTED_EDGE('',*,*,#301,.F.);
#115=ORIENTED_EDGE('',*,*,#302,.F.);
#116=ORIENTED_EDGE('',*,*,#303,.T.);
#117=ORIENTED_EDGE('',*,*,#292,.F.);
#118=ORIENTED_EDGE('',*,*,#304,.F.);
#119=ORIENTED_EDGE('',*,*,#305,.F.);
#120=ORIENTED_EDGE('',*,*,#306,.T.);
#121=ORIENTED_EDGE('',*,*,#274,.T.);
#122=ORIENTED_EDGE('',*,*,#297,.F.);
#123=ORIENTED_EDGE('',*,*,#306,.F.);
#124=ORIENTED_EDGE('',*,*,#307,.T.);
#125=ORIENTED_EDGE('',*,*,#275,.F.);
#126=ORIENTED_EDGE('',*,*,#307,.F.);
#127=ORIENTED_EDGE('',*,*,#305,.T.);
#128=ORIENTED_EDGE('',*,*,#308,.T.);
#129=ORIENTED_EDGE('',*,*,#276,.F.);
#130=ORIENTED_EDGE('',*,*,#308,.F.);
#131=ORIENTED_EDGE('',*,*,#304,.T.);
#132=ORIENTED_EDGE('',*,*,#294,.T.);
#133=ORIENTED_EDGE('',*,*,#278,.T.);
#134=ORIENTED_EDGE('',*,*,#293,.F.);
#135=ORIENTED_EDGE('',*,*,#303,.F.);
#136=ORIENTED_EDGE('',*,*,#309,.T.);
#137=ORIENTED_EDGE('',*,*,#279,.F.);
#138=ORIENTED_EDGE('',*,*,#309,.F.);
#139=ORIENTED_EDGE('',*,*,#302,.T.);
#140=ORIENTED_EDGE('',*,*,#310,.T.);
#141=ORIENTED_EDGE('',*,*,#280,.F.);
#142=ORIENTED_EDGE('',*,*,#310,.F.);
#143=ORIENTED_EDGE('',*,*,#301,.T.);
#144=ORIENTED_EDGE('',*,*,#291,.T.);
#145=ORIENTED_EDGE('',*,*,#282,.T.);
#146=ORIENTED_EDGE('',*,*,#290,.F.);
#147=ORIENTED_EDGE('',*,*,#300,.F.);
#148=ORIENTED_EDGE('',*,*,#311,.T.);
#149=ORIENTED_EDGE('',*,*,#283,.F.);
#150=ORIENTED_EDGE('',*,*,#311,.F.);
#151=ORIENTED_EDGE('',*,*,#299,.T.);
#152=ORIENTED_EDGE('',*,*,#312,.T.);
#153=ORIENTED_EDGE('',*,*,#284,.F.);
#154=ORIENTED_EDGE('',*,*,#312,.F.);
#155=ORIENTED_EDGE('',*,*,#298,.T.);
#156=ORIENTED_EDGE('',*,*,#295,.T.);
#157=ORIENTED_EDGE('',*,*,#269,.T.);
#158=ORIENTED_EDGE('',*,*,#313,.F.);
#159=ORIENTED_EDGE('',*,*,#314,.F.);
#160=ORIENTED_EDGE('',*,*,#315,.T.);
#161=ORIENTED_EDGE('',*,*,#272,.T.);
#162=ORIENTED_EDGE('',*,*,#316,.F.);
#163=ORIENTED_EDGE('',*,*,#317,.F.);
#164=ORIENTED_EDGE('',*,*,#313,.T.);
#165=ORIENTED_EDGE('',*,*,#271,.F.);
#166=ORIENTED_EDGE('',*,*,#318,.F.);
#167=ORIENTED_EDGE('',*,*,#319,.T.);
#168=ORIENTED_EDGE('',*,*,#316,.T.);
#169=ORIENTED_EDGE('',*,*,#314,.T.);
#170=ORIENTED_EDGE('',*,*,#317,.T.);
#171=ORIENTED_EDGE('',*,*,#319,.F.);
#172=ORIENTED_EDGE('',*,*,#320,.F.);
#173=ORIENTED_EDGE('',*,*,#270,.F.);
#174=ORIENTED_EDGE('',*,*,#315,.F.);
#175=ORIENTED_EDGE('',*,*,#320,.T.);
#176=ORIENTED_EDGE('',*,*,#318,.T.);
#177=ORIENTED_EDGE('',*,*,#265,.T.);
#178=ORIENTED_EDGE('',*,*,#321,.F.);
#179=ORIENTED_EDGE('',*,*,#322,.F.);
#180=ORIENTED_EDGE('',*,*,#323,.T.);
#181=ORIENTED_EDGE('',*,*,#268,.T.);
#182=ORIENTED_EDGE('',*,*,#324,.F.);
#183=ORIENTED_EDGE('',*,*,#325,.F.);
#184=ORIENTED_EDGE('',*,*,#321,.T.);
#185=ORIENTED_EDGE('',*,*,#267,.F.);
#186=ORIENTED_EDGE('',*,*,#326,.F.);
#187=ORIENTED_EDGE('',*,*,#327,.T.);
#188=ORIENTED_EDGE('',*,*,#324,.T.);
#189=ORIENTED_EDGE('',*,*,#322,.T.);
#190=ORIENTED_EDGE('',*,*,#325,.T.);
#191=ORIENTED_EDGE('',*,*,#327,.F.);
#192=ORIENTED_EDGE('',*,*,#328,.F.);
#193=ORIENTED_EDGE('',*,*,#266,.F.);
#194=ORIENTED_EDGE('',*,*,#323,.F.);
#195=ORIENTED_EDGE('',*,*,#328,.T.);
#196=ORIENTED_EDGE('',*,*,#326,.T.);
#197=ORIENTED_EDGE('',*,*,#261,.T.);
#198=ORIENTED_EDGE('',*,*,#329,.F.);
#199=ORIENTED_EDGE('',*,*,#330,.F.);
#200=ORIENTED_EDGE('',*,*,#331,.T.);
#201=ORIENTED_EDGE('',*,*,#264,.T.);
#202=ORIENTED_EDGE('',*,*,#332,.F.);
#203=ORIENTED_EDGE('',*,*,#333,.F.);
#204=ORIENTED_EDGE('',*,*,#329,.T.);
#205=ORIENTED_EDGE('',*,*,#263,.F.);
#206=ORIENTED_EDGE('',*,*,#334,.F.);
#207=ORIENTED_EDGE('',*,*,#335,.T.);
#208=ORIENTED_EDGE('',*,*,#332,.T.);
#209=ORIENTED_EDGE('',*,*,#330,.T.);
#210=ORIENTED_EDGE('',*,*,#333,.T.);
#211=ORIENTED_EDGE('',*,*,#335,.F.);
#212=ORIENTED_EDGE('',*,*,#336,.F.);
#213=ORIENTED_EDGE('',*,*,#262,.F.);
#214=ORIENTED_EDGE('',*,*,#331,.F.);
#215=ORIENTED_EDGE('',*,*,#336,.T.);
#216=ORIENTED_EDGE('',*,*,#334,.T.);
#217=ORIENTED_EDGE('',*,*,#337,.T.);
#218=ORIENTED_EDGE('',*,*,#338,.F.);
#219=ORIENTED_EDGE('',*,*,#339,.F.);
#220=ORIENTED_EDGE('',*,*,#286,.F.);
#221=ORIENTED_EDGE('',*,*,#339,.T.);
#222=ORIENTED_EDGE('',*,*,#340,.F.);
#223=ORIENTED_EDGE('',*,*,#341,.F.);
#224=ORIENTED_EDGE('',*,*,#287,.F.);
#225=ORIENTED_EDGE('',*,*,#341,.T.);
#226=ORIENTED_EDGE('',*,*,#342,.F.);
#227=ORIENTED_EDGE('',*,*,#343,.F.);
#228=ORIENTED_EDGE('',*,*,#288,.F.);
#229=ORIENTED_EDGE('',*,*,#285,.T.);
#230=ORIENTED_EDGE('',*,*,#343,.T.);
#231=ORIENTED_EDGE('',*,*,#344,.T.);
#232=ORIENTED_EDGE('',*,*,#337,.F.);
#233=ORIENTED_EDGE('',*,*,#338,.T.);
#234=ORIENTED_EDGE('',*,*,#344,.F.);
#235=ORIENTED_EDGE('',*,*,#342,.T.);
#236=ORIENTED_EDGE('',*,*,#340,.T.);
#237=EDGE_CURVE('',#345,#346,#417,.T.);
#238=EDGE_CURVE('',#347,#346,#418,.T.);
#239=EDGE_CURVE('',#348,#347,#419,.T.);
#240=EDGE_CURVE('',#345,#348,#420,.T.);
#241=EDGE_CURVE('',#349,#347,#421,.T.);
#242=EDGE_CURVE('',#350,#349,#422,.T.);
#243=EDGE_CURVE('',#348,#350,#423,.T.);
#244=EDGE_CURVE('',#351,#349,#424,.T.);
#245=EDGE_CURVE('',#352,#351,#425,.T.);
#246=EDGE_CURVE('',#350,#352,#426,.T.);
#247=EDGE_CURVE('',#345,#352,#427,.T.);
#248=EDGE_CURVE('',#351,#346,#428,.T.);
#249=EDGE_CURVE('',#353,#354,#429,.T.);
#250=EDGE_CURVE('',#355,#354,#430,.T.);
#251=EDGE_CURVE('',#356,#355,#431,.T.);
#252=EDGE_CURVE('',#353,#356,#432,.T.);
#253=EDGE_CURVE('',#357,#355,#433,.T.);
#254=EDGE_CURVE('',#358,#357,#434,.T.);
#255=EDGE_CURVE('',#356,#358,#435,.T.);
#256=EDGE_CURVE('',#359,#357,#436,.T.);
#257=EDGE_CURVE('',#360,#359,#437,.T.);
#258=EDGE_CURVE('',#358,#360,#438,.T.);
#259=EDGE_CURVE('',#353,#360,#439,.T.);
#260=EDGE_CURVE('',#359,#354,#440,.T.);
#261=EDGE_CURVE('',#361,#362,#441,.T.);
#262=EDGE_CURVE('',#361,#363,#442,.T.);
#263=EDGE_CURVE('',#363,#364,#443,.T.);
#264=EDGE_CURVE('',#362,#364,#444,.T.);
#265=EDGE_CURVE('',#365,#366,#445,.T.);
#266=EDGE_CURVE('',#365,#367,#446,.T.);
#267=EDGE_CURVE('',#367,#368,#447,.T.);
#268=EDGE_CURVE('',#366,#368,#448,.T.);
#269=EDGE_CURVE('',#369,#370,#449,.T.);
#270=EDGE_CURVE('',#369,#371,#450,.T.);
#271=EDGE_CURVE('',#371,#372,#451,.T.);
#272=EDGE_CURVE('',#370,#372,#452,.T.);
#273=EDGE_CURVE('',#373,#374,#15,.T.);
#274=EDGE_CURVE('',#375,#374,#453,.T.);
#275=EDGE_CURVE('',#375,#376,#454,.T.);
#276=EDGE_CURVE('',#376,#377,#455,.T.);
#277=EDGE_CURVE('',#377,#378,#16,.T.);
#278=EDGE_CURVE('',#379,#378,#456,.T.);
#279=EDGE_CURVE('',#379,#380,#457,.T.);
#280=EDGE_CURVE('',#380,#381,#458,.T.);
#281=EDGE_CURVE('',#381,#382,#17,.T.);
#282=EDGE_CURVE('',#383,#382,#459,.T.);
#283=EDGE_CURVE('',#383,#384,#460,.T.);
#284=EDGE_CURVE('',#384,#373,#461,.T.);
#285=EDGE_CURVE('',#385,#386,#462,.T.);
#286=EDGE_CURVE('',#385,#387,#463,.T.);
#287=EDGE_CURVE('',#387,#388,#464,.T.);
#288=EDGE_CURVE('',#388,#386,#465,.T.);
#289=EDGE_CURVE('',#389,#390,#18,.T.);
#290=EDGE_CURVE('',#390,#382,#466,.T.);
#291=EDGE_CURVE('',#389,#381,#467,.T.);
#292=EDGE_CURVE('',#391,#392,#19,.T.);
#293=EDGE_CURVE('',#392,#378,#468,.T.);
#294=EDGE_CURVE('',#391,#377,#469,.T.);
#295=EDGE_CURVE('',#393,#373,#470,.T.);
#296=EDGE_CURVE('',#393,#394,#20,.T.);
#297=EDGE_CURVE('',#394,#374,#471,.T.);
#298=EDGE_CURVE('',#395,#393,#472,.T.);
#299=EDGE_CURVE('',#396,#395,#473,.T.);
#300=EDGE_CURVE('',#396,#390,#474,.T.);
#301=EDGE_CURVE('',#397,#389,#475,.T.);
#302=EDGE_CURVE('',#398,#397,#476,.T.);
#303=EDGE_CURVE('',#398,#392,#477,.T.);
#304=EDGE_CURVE('',#399,#391,#478,.T.);
#305=EDGE_CURVE('',#400,#399,#479,.T.);
#306=EDGE_CURVE('',#400,#394,#480,.T.);
#307=EDGE_CURVE('',#400,#375,#481,.T.);
#308=EDGE_CURVE('',#399,#376,#482,.T.);
#309=EDGE_CURVE('',#398,#379,#483,.T.);
#310=EDGE_CURVE('',#397,#380,#484,.T.);
#311=EDGE_CURVE('',#396,#383,#485,.T.);
#312=EDGE_CURVE('',#395,#384,#486,.T.);
#313=EDGE_CURVE('',#401,#370,#487,.T.);
#314=EDGE_CURVE('',#402,#401,#488,.T.);
#315=EDGE_CURVE('',#402,#369,#489,.T.);
#316=EDGE_CURVE('',#403,#372,#490,.T.);
#317=EDGE_CURVE('',#401,#403,#491,.T.);
#318=EDGE_CURVE('',#404,#371,#492,.T.);
#319=EDGE_CURVE('',#404,#403,#493,.T.);
#320=EDGE_CURVE('',#402,#404,#494,.T.);
#321=EDGE_CURVE('',#405,#366,#495,.T.);
#322=EDGE_CURVE('',#406,#405,#496,.T.);
#323=EDGE_CURVE('',#406,#365,#497,.T.);
#324=EDGE_CURVE('',#407,#368,#498,.T.);
#325=EDGE_CURVE('',#405,#407,#499,.T.);
#326=EDGE_CURVE('',#408,#367,#500,.T.);
#327=EDGE_CURVE('',#408,#407,#501,.T.);
#328=EDGE_CURVE('',#406,#408,#502,.T.);
#329=EDGE_CURVE('',#409,#362,#503,.T.);
#330=EDGE_CURVE('',#410,#409,#504,.T.);
#331=EDGE_CURVE('',#410,#361,#505,.T.);
#332=EDGE_CURVE('',#411,#364,#506,.T.);
#333=EDGE_CURVE('',#409,#411,#507,.T.);
#334=EDGE_CURVE('',#412,#363,#508,.T.);
#335=EDGE_CURVE('',#412,#411,#509,.T.);
#336=EDGE_CURVE('',#410,#412,#510,.T.);
#337=EDGE_CURVE('',#385,#413,#511,.T.);
#338=EDGE_CURVE('',#414,#413,#512,.T.);
#339=EDGE_CURVE('',#387,#414,#513,.T.);
#340=EDGE_CURVE('',#415,#414,#514,.T.);
#341=EDGE_CURVE('',#388,#415,#515,.T.);
#342=EDGE_CURVE('',#416,#415,#516,.T.);
#343=EDGE_CURVE('',#386,#416,#517,.T.);
#344=EDGE_CURVE('',#416,#413,#518,.T.);
#345=VERTEX_POINT('',#1076);
#346=VERTEX_POINT('',#1077);
#347=VERTEX_POINT('',#1079);
#348=VERTEX_POINT('',#1081);
#349=VERTEX_POINT('',#1085);
#350=VERTEX_POINT('',#1087);
#351=VERTEX_POINT('',#1091);
#352=VERTEX_POINT('',#1093);
#353=VERTEX_POINT('',#1101);
#354=VERTEX_POINT('',#1102);
#355=VERTEX_POINT('',#1104);
#356=VERTEX_POINT('',#1106);
#357=VERTEX_POINT('',#1110);
#358=VERTEX_POINT('',#1112);
#359=VERTEX_POINT('',#1116);
#360=VERTEX_POINT('',#1118);
#361=VERTEX_POINT('',#1126);
#362=VERTEX_POINT('',#1127);
#363=VERTEX_POINT('',#1129);
#364=VERTEX_POINT('',#1131);
#365=VERTEX_POINT('',#1134);
#366=VERTEX_POINT('',#1135);
#367=VERTEX_POINT('',#1137);
#368=VERTEX_POINT('',#1139);
#369=VERTEX_POINT('',#1142);
#370=VERTEX_POINT('',#1143);
#371=VERTEX_POINT('',#1145);
#372=VERTEX_POINT('',#1147);
#373=VERTEX_POINT('',#1150);
#374=VERTEX_POINT('',#1151);
#375=VERTEX_POINT('',#1153);
#376=VERTEX_POINT('',#1155);
#377=VERTEX_POINT('',#1157);
#378=VERTEX_POINT('',#1159);
#379=VERTEX_POINT('',#1161);
#380=VERTEX_POINT('',#1163);
#381=VERTEX_POINT('',#1165);
#382=VERTEX_POINT('',#1167);
#383=VERTEX_POINT('',#1169);
#384=VERTEX_POINT('',#1171);
#385=VERTEX_POINT('',#1174);
#386=VERTEX_POINT('',#1175);
#387=VERTEX_POINT('',#1177);
#388=VERTEX_POINT('',#1179);
#389=VERTEX_POINT('',#1183);
#390=VERTEX_POINT('',#1184);
#391=VERTEX_POINT('',#1189);
#392=VERTEX_POINT('',#1190);
#393=VERTEX_POINT('',#1195);
#394=VERTEX_POINT('',#1197);
#395=VERTEX_POINT('',#1201);
#396=VERTEX_POINT('',#1203);
#397=VERTEX_POINT('',#1206);
#398=VERTEX_POINT('',#1208);
#399=VERTEX_POINT('',#1211);
#400=VERTEX_POINT('',#1213);
#401=VERTEX_POINT('',#1232);
#402=VERTEX_POINT('',#1234);
#403=VERTEX_POINT('',#1238);
#404=VERTEX_POINT('',#1242);
#405=VERTEX_POINT('',#1249);
#406=VERTEX_POINT('',#1251);
#407=VERTEX_POINT('',#1255);
#408=VERTEX_POINT('',#1259);
#409=VERTEX_POINT('',#1266);
#410=VERTEX_POINT('',#1268);
#411=VERTEX_POINT('',#1272);
#412=VERTEX_POINT('',#1276);
#413=VERTEX_POINT('',#1283);
#414=VERTEX_POINT('',#1285);
#415=VERTEX_POINT('',#1289);
#416=VERTEX_POINT('',#1293);
#417=LINE('',#1075,#519);
#418=LINE('',#1078,#520);
#419=LINE('',#1080,#521);
#420=LINE('',#1082,#522);
#421=LINE('',#1084,#523);
#422=LINE('',#1086,#524);
#423=LINE('',#1088,#525);
#424=LINE('',#1090,#526);
#425=LINE('',#1092,#527);
#426=LINE('',#1094,#528);
#427=LINE('',#1096,#529);
#428=LINE('',#1097,#530);
#429=LINE('',#1100,#531);
#430=LINE('',#1103,#532);
#431=LINE('',#1105,#533);
#432=LINE('',#1107,#534);
#433=LINE('',#1109,#535);
#434=LINE('',#1111,#536);
#435=LINE('',#1113,#537);
#436=LINE('',#1115,#538);
#437=LINE('',#1117,#539);
#438=LINE('',#1119,#540);
#439=LINE('',#1121,#541);
#440=LINE('',#1122,#542);
#441=LINE('',#1125,#543);
#442=LINE('',#1128,#544);
#443=LINE('',#1130,#545);
#444=LINE('',#1132,#546);
#445=LINE('',#1133,#547);
#446=LINE('',#1136,#548);
#447=LINE('',#1138,#549);
#448=LINE('',#1140,#550);
#449=LINE('',#1141,#551);
#450=LINE('',#1144,#552);
#451=LINE('',#1146,#553);
#452=LINE('',#1148,#554);
#453=LINE('',#1152,#555);
#454=LINE('',#1154,#556);
#455=LINE('',#1156,#557);
#456=LINE('',#1160,#558);
#457=LINE('',#1162,#559);
#458=LINE('',#1164,#560);
#459=LINE('',#1168,#561);
#460=LINE('',#1170,#562);
#461=LINE('',#1172,#563);
#462=LINE('',#1173,#564);
#463=LINE('',#1176,#565);
#464=LINE('',#1178,#566);
#465=LINE('',#1180,#567);
#466=LINE('',#1185,#568);
#467=LINE('',#1186,#569);
#468=LINE('',#1191,#570);
#469=LINE('',#1192,#571);
#470=LINE('',#1194,#572);
#471=LINE('',#1198,#573);
#472=LINE('',#1200,#574);
#473=LINE('',#1202,#575);
#474=LINE('',#1204,#576);
#475=LINE('',#1205,#577);
#476=LINE('',#1207,#578);
#477=LINE('',#1209,#579);
#478=LINE('',#1210,#580);
#479=LINE('',#1212,#581);
#480=LINE('',#1214,#582);
#481=LINE('',#1216,#583);
#482=LINE('',#1218,#584);
#483=LINE('',#1221,#585);
#484=LINE('',#1223,#586);
#485=LINE('',#1226,#587);
#486=LINE('',#1228,#588);
#487=LINE('',#1231,#589);
#488=LINE('',#1233,#590);
#489=LINE('',#1235,#591);
#490=LINE('',#1237,#592);
#491=LINE('',#1239,#593);
#492=LINE('',#1241,#594);
#493=LINE('',#1243,#595);
#494=LINE('',#1245,#596);
#495=LINE('',#1248,#597);
#496=LINE('',#1250,#598);
#497=LINE('',#1252,#599);
#498=LINE('',#1254,#600);
#499=LINE('',#1256,#601);
#500=LINE('',#1258,#602);
#501=LINE('',#1260,#603);
#502=LINE('',#1262,#604);
#503=LINE('',#1265,#605);
#504=LINE('',#1267,#606);
#505=LINE('',#1269,#607);
#506=LINE('',#1271,#608);
#507=LINE('',#1273,#609);
#508=LINE('',#1275,#610);
#509=LINE('',#1277,#611);
#510=LINE('',#1279,#612);
#511=LINE('',#1282,#613);
#512=LINE('',#1284,#614);
#513=LINE('',#1286,#615);
#514=LINE('',#1288,#616);
#515=LINE('',#1290,#617);
#516=LINE('',#1292,#618);
#517=LINE('',#1294,#619);
#518=LINE('',#1296,#620);
#519=VECTOR('',#873,1.);
#520=VECTOR('',#874,1.);
#521=VECTOR('',#875,1.);
#522=VECTOR('',#876,1.);
#523=VECTOR('',#879,1.);
#524=VECTOR('',#880,1.);
#525=VECTOR('',#881,1.);
#526=VECTOR('',#884,1.);
#527=VECTOR('',#885,1.);
#528=VECTOR('',#886,1.);
#529=VECTOR('',#889,1.);
#530=VECTOR('',#890,1.);
#531=VECTOR('',#895,1.);
#532=VECTOR('',#896,1.);
#533=VECTOR('',#897,1.);
#534=VECTOR('',#898,1.);
#535=VECTOR('',#901,1.);
#536=VECTOR('',#902,1.);
#537=VECTOR('',#903,1.);
#538=VECTOR('',#906,1.);
#539=VECTOR('',#907,1.);
#540=VECTOR('',#908,1.);
#541=VECTOR('',#911,1.);
#542=VECTOR('',#912,1.);
#543=VECTOR('',#917,1.);
#544=VECTOR('',#918,1.);
#545=VECTOR('',#919,1.);
#546=VECTOR('',#920,1.);
#547=VECTOR('',#921,1.);
#548=VECTOR('',#922,1.);
#549=VECTOR('',#923,1.);
#550=VECTOR('',#924,1.);
#551=VECTOR('',#925,1.);
#552=VECTOR('',#926,1.);
#553=VECTOR('',#927,1.);
#554=VECTOR('',#928,1.);
#555=VECTOR('',#931,1.);
#556=VECTOR('',#932,1.);
#557=VECTOR('',#933,1.);
#558=VECTOR('',#936,1.);
#559=VECTOR('',#937,1.);
#560=VECTOR('',#938,1.);
#561=VECTOR('',#941,1.);
#562=VECTOR('',#942,1.);
#563=VECTOR('',#943,1.);
#564=VECTOR('',#944,1.);
#565=VECTOR('',#945,1.);
#566=VECTOR('',#946,1.);
#567=VECTOR('',#947,1.);
#568=VECTOR('',#952,1.);
#569=VECTOR('',#953,1.);
#570=VECTOR('',#958,1.);
#571=VECTOR('',#959,1.);
#572=VECTOR('',#962,1.);
#573=VECTOR('',#965,1.);
#574=VECTOR('',#968,1.);
#575=VECTOR('',#969,1.);
#576=VECTOR('',#970,1.);
#577=VECTOR('',#971,1.);
#578=VECTOR('',#972,1.);
#579=VECTOR('',#973,1.);
#580=VECTOR('',#974,1.);
#581=VECTOR('',#975,1.);
#582=VECTOR('',#976,1.);
#583=VECTOR('',#979,1.);
#584=VECTOR('',#982,1.);
#585=VECTOR('',#987,1.);
#586=VECTOR('',#990,1.);
#587=VECTOR('',#995,1.);
#588=VECTOR('',#998,1.);
#589=VECTOR('',#1003,1.);
#590=VECTOR('',#1004,1.);
#591=VECTOR('',#1005,1.);
#592=VECTOR('',#1008,1.);
#593=VECTOR('',#1009,1.);
#594=VECTOR('',#1012,1.);
#595=VECTOR('',#1013,1.);
#596=VECTOR('',#1016,1.);
#597=VECTOR('',#1021,1.);
#598=VECTOR('',#1022,1.);
#599=VECTOR('',#1023,1.);
#600=VECTOR('',#1026,1.);
#601=VECTOR('',#1027,1.);
#602=VECTOR('',#1030,1.);
#603=VECTOR('',#1031,1.);
#604=VECTOR('',#1034,1.);
#605=VECTOR('',#1039,1.);
#606=VECTOR('',#1040,1.);
#607=VECTOR('',#1041,1.);
#608=VECTOR('',#1044,1.);
#609=VECTOR('',#1045,1.);
#610=VECTOR('',#1048,1.);
#611=VECTOR('',#1049,1.);
#612=VECTOR('',#1052,1.);
#613=VECTOR('',#1057,1.);
#614=VECTOR('',#1058,1.);
#615=VECTOR('',#1059,1.);
#616=VECTOR('',#1062,1.);
#617=VECTOR('',#1063,1.);
#618=VECTOR('',#1066,1.);
#619=VECTOR('',#1067,1.);
#620=VECTOR('',#1070,1.);
#621=EDGE_LOOP('',(#21,#22,#23,#24));
#622=EDGE_LOOP('',(#25,#26,#27,#28));
#623=EDGE_LOOP('',(#29,#30,#31,#32));
#624=EDGE_LOOP('',(#33,#34,#35,#36));
#625=EDGE_LOOP('',(#37,#38,#39,#40));
#626=EDGE_LOOP('',(#41,#42,#43,#44));
#627=EDGE_LOOP('',(#45,#46,#47,#48));
#628=EDGE_LOOP('',(#49,#50,#51,#52));
#629=EDGE_LOOP('',(#53,#54,#55,#56));
#630=EDGE_LOOP('',(#57,#58,#59,#60));
#631=EDGE_LOOP('',(#61,#62,#63,#64));
#632=EDGE_LOOP('',(#65,#66,#67,#68));
#633=EDGE_LOOP('',(#69,#70,#71,#72));
#634=EDGE_LOOP('',(#73,#74,#75,#76));
#635=EDGE_LOOP('',(#77,#78,#79,#80));
#636=EDGE_LOOP('',(#81,#82,#83,#84,#85,#86,#87,#88,#89,#90,#91,#92));
#637=EDGE_LOOP('',(#93,#94,#95,#96));
#638=EDGE_LOOP('',(#97,#98,#99,#100));
#639=EDGE_LOOP('',(#101,#102,#103,#104));
#640=EDGE_LOOP('',(#105,#106,#107,#108));
#641=EDGE_LOOP('',(#109,#110,#111,#112,#113,#114,#115,#116,#117,#118,#119,
#120));
#642=EDGE_LOOP('',(#121,#122,#123,#124));
#643=EDGE_LOOP('',(#125,#126,#127,#128));
#644=EDGE_LOOP('',(#129,#130,#131,#132));
#645=EDGE_LOOP('',(#133,#134,#135,#136));
#646=EDGE_LOOP('',(#137,#138,#139,#140));
#647=EDGE_LOOP('',(#141,#142,#143,#144));
#648=EDGE_LOOP('',(#145,#146,#147,#148));
#649=EDGE_LOOP('',(#149,#150,#151,#152));
#650=EDGE_LOOP('',(#153,#154,#155,#156));
#651=EDGE_LOOP('',(#157,#158,#159,#160));
#652=EDGE_LOOP('',(#161,#162,#163,#164));
#653=EDGE_LOOP('',(#165,#166,#167,#168));
#654=EDGE_LOOP('',(#169,#170,#171,#172));
#655=EDGE_LOOP('',(#173,#174,#175,#176));
#656=EDGE_LOOP('',(#177,#178,#179,#180));
#657=EDGE_LOOP('',(#181,#182,#183,#184));
#658=EDGE_LOOP('',(#185,#186,#187,#188));
#659=EDGE_LOOP('',(#189,#190,#191,#192));
#660=EDGE_LOOP('',(#193,#194,#195,#196));
#661=EDGE_LOOP('',(#197,#198,#199,#200));
#662=EDGE_LOOP('',(#201,#202,#203,#204));
#663=EDGE_LOOP('',(#205,#206,#207,#208));
#664=EDGE_LOOP('',(#209,#210,#211,#212));
#665=EDGE_LOOP('',(#213,#214,#215,#216));
#666=EDGE_LOOP('',(#217,#218,#219,#220));
#667=EDGE_LOOP('',(#221,#222,#223,#224));
#668=EDGE_LOOP('',(#225,#226,#227,#228));
#669=EDGE_LOOP('',(#229,#230,#231,#232));
#670=EDGE_LOOP('',(#233,#234,#235,#236));
#671=FACE_BOUND('',#621,.T.);
#672=FACE_BOUND('',#622,.T.);
#673=FACE_BOUND('',#623,.T.);
#674=FACE_BOUND('',#624,.T.);
#675=FACE_BOUND('',#625,.T.);
#676=FACE_BOUND('',#626,.T.);
#677=FACE_BOUND('',#627,.T.);
#678=FACE_BOUND('',#628,.T.);
#679=FACE_BOUND('',#629,.T.);
#680=FACE_BOUND('',#630,.T.);
#681=FACE_BOUND('',#631,.T.);
#682=FACE_BOUND('',#632,.T.);
#683=FACE_BOUND('',#633,.T.);
#684=FACE_BOUND('',#634,.T.);
#685=FACE_BOUND('',#635,.T.);
#686=FACE_BOUND('',#636,.T.);
#687=FACE_BOUND('',#637,.T.);
#688=FACE_BOUND('',#638,.T.);
#689=FACE_BOUND('',#639,.T.);
#690=FACE_BOUND('',#640,.T.);
#691=FACE_BOUND('',#641,.T.);
#692=FACE_BOUND('',#642,.T.);
#693=FACE_BOUND('',#643,.T.);
#694=FACE_BOUND('',#644,.T.);
#695=FACE_BOUND('',#645,.T.);
#696=FACE_BOUND('',#646,.T.);
#697=FACE_BOUND('',#647,.T.);
#698=FACE_BOUND('',#648,.T.);
#699=FACE_BOUND('',#649,.T.);
#700=FACE_BOUND('',#650,.T.);
#701=FACE_BOUND('',#651,.T.);
#702=FACE_BOUND('',#652,.T.);
#703=FACE_BOUND('',#653,.T.);
#704=FACE_BOUND('',#654,.T.);
#705=FACE_BOUND('',#655,.T.);
#706=FACE_BOUND('',#656,.T.);
#707=FACE_BOUND('',#657,.T.);
#708=FACE_BOUND('',#658,.T.);
#709=FACE_BOUND('',#659,.T.);
#710=FACE_BOUND('',#660,.T.);
#711=FACE_BOUND('',#661,.T.);
#712=FACE_BOUND('',#662,.T.);
#713=FACE_BOUND('',#663,.T.);
#714=FACE_BOUND('',#664,.T.);
#715=FACE_BOUND('',#665,.T.);
#716=FACE_BOUND('',#666,.T.);
#717=FACE_BOUND('',#667,.T.);
#718=FACE_BOUND('',#668,.T.);
#719=FACE_BOUND('',#669,.T.);
#720=FACE_BOUND('',#670,.T.);
#721=PLANE('',#819);
#722=PLANE('',#820);
#723=PLANE('',#821);
#724=PLANE('',#822);
#725=PLANE('',#823);
#726=PLANE('',#824);
#727=PLANE('',#825);
#728=PLANE('',#826);
#729=PLANE('',#827);
#730=PLANE('',#828);
#731=PLANE('',#829);
#732=PLANE('',#839);
#733=PLANE('',#840);
#734=PLANE('',#841);
#735=PLANE('',#842);
#736=PLANE('',#843);
#737=PLANE('',#844);
#738=PLANE('',#845);
#739=PLANE('',#846);
#740=PLANE('',#847);
#741=PLANE('',#848);
#742=PLANE('',#849);
#743=PLANE('',#850);
#744=PLANE('',#851);
#745=PLANE('',#852);
#746=PLANE('',#853);
#747=PLANE('',#854);
#748=PLANE('',#855);
#749=PLANE('',#856);
#750=PLANE('',#857);
#751=PLANE('',#858);
#752=PLANE('',#859);
#753=PLANE('',#860);
#754=PLANE('',#861);
#755=PLANE('',#862);
#756=PLANE('',#863);
#757=PLANE('',#864);
#758=PLANE('',#865);
#759=PLANE('',#866);
#760=PLANE('',#867);
#761=PLANE('',#868);
#762=ADVANCED_FACE('',(#671),#721,.T.);
#763=ADVANCED_FACE('',(#672),#722,.T.);
#764=ADVANCED_FACE('',(#673),#723,.T.);
#765=ADVANCED_FACE('',(#674),#724,.F.);
#766=ADVANCED_FACE('',(#675),#725,.F.);
#767=ADVANCED_FACE('',(#676),#726,.T.);
#768=ADVANCED_FACE('',(#677),#727,.T.);
#769=ADVANCED_FACE('',(#678),#728,.T.);
#770=ADVANCED_FACE('',(#679),#729,.F.);
#771=ADVANCED_FACE('',(#680),#730,.F.);
#772=ADVANCED_FACE('',(#681,#682,#683,#684,#685,#686,#687),#731,.T.);
#773=ADVANCED_FACE('',(#688),#12,.T.);
#774=ADVANCED_FACE('',(#689),#13,.T.);
#775=ADVANCED_FACE('',(#690),#14,.T.);
#776=ADVANCED_FACE('',(#691),#732,.F.);
#777=ADVANCED_FACE('',(#692),#733,.F.);
#778=ADVANCED_FACE('',(#693),#734,.T.);
#779=ADVANCED_FACE('',(#694),#735,.T.);
#780=ADVANCED_FACE('',(#695),#736,.F.);
#781=ADVANCED_FACE('',(#696),#737,.T.);
#782=ADVANCED_FACE('',(#697),#738,.T.);
#783=ADVANCED_FACE('',(#698),#739,.F.);
#784=ADVANCED_FACE('',(#699),#740,.T.);
#785=ADVANCED_FACE('',(#700),#741,.T.);
#786=ADVANCED_FACE('',(#701),#742,.F.);
#787=ADVANCED_FACE('',(#702),#743,.F.);
#788=ADVANCED_FACE('',(#703),#744,.T.);
#789=ADVANCED_FACE('',(#704),#745,.T.);
#790=ADVANCED_FACE('',(#705),#746,.T.);
#791=ADVANCED_FACE('',(#706),#747,.F.);
#792=ADVANCED_FACE('',(#707),#748,.F.);
#793=ADVANCED_FACE('',(#708),#749,.T.);
#794=ADVANCED_FACE('',(#709),#750,.T.);
#795=ADVANCED_FACE('',(#710),#751,.T.);
#796=ADVANCED_FACE('',(#711),#752,.F.);
#797=ADVANCED_FACE('',(#712),#753,.F.);
#798=ADVANCED_FACE('',(#713),#754,.T.);
#799=ADVANCED_FACE('',(#714),#755,.T.);
#800=ADVANCED_FACE('',(#715),#756,.T.);
#801=ADVANCED_FACE('',(#716),#757,.T.);
#802=ADVANCED_FACE('',(#717),#758,.T.);
#803=ADVANCED_FACE('',(#718),#759,.T.);
#804=ADVANCED_FACE('',(#719),#760,.F.);
#805=ADVANCED_FACE('',(#720),#761,.F.);
#806=CLOSED_SHELL('',(#762,#763,#764,#765,#766,#767,#768,#769,#770,#771,
#772,#773,#774,#775,#776,#777,#778,#779,#780,#781,#782,#783,#784,#785,#786,
#787,#788,#789,#790,#791,#792,#793,#794,#795,#796,#797,#798,#799,#800,#801,
#802,#803,#804,#805));
#807=STYLED_ITEM('',(#808),#815);
#808=PRESENTATION_STYLE_ASSIGNMENT((#809));
#809=SURFACE_STYLE_USAGE(.BOTH.,#810);
#810=SURFACE_SIDE_STYLE('',(#811));
#811=SURFACE_STYLE_FILL_AREA(#812);
#812=FILL_AREA_STYLE('',(#813));
#813=FILL_AREA_STYLE_COLOUR('',#814);
#814=COLOUR_RGB('',0.768627450980392,0.886274509803922,0.952941176470588);
#815=MANIFOLD_SOLID_BREP('Part 12',#806);
#816=SHAPE_DEFINITION_REPRESENTATION(#1304,#817);
#817=SHAPE_REPRESENTATION('Part 12',(#818),#1299);
#818=AXIS2_PLACEMENT_3D('',#1073,#869,#870);
#819=AXIS2_PLACEMENT_3D('',#1074,#871,#872);
#820=AXIS2_PLACEMENT_3D('',#1083,#877,#878);
#821=AXIS2_PLACEMENT_3D('',#1089,#882,#883);
#822=AXIS2_PLACEMENT_3D('',#1095,#887,#888);
#823=AXIS2_PLACEMENT_3D('',#1098,#891,#892);
#824=AXIS2_PLACEMENT_3D('',#1099,#893,#894);
#825=AXIS2_PLACEMENT_3D('',#1108,#899,#900);
#826=AXIS2_PLACEMENT_3D('',#1114,#904,#905);
#827=AXIS2_PLACEMENT_3D('',#1120,#909,#910);
#828=AXIS2_PLACEMENT_3D('',#1123,#913,#914);
#829=AXIS2_PLACEMENT_3D('',#1124,#915,#916);
#830=AXIS2_PLACEMENT_3D('',#1149,#929,#930);
#831=AXIS2_PLACEMENT_3D('',#1158,#934,#935);
#832=AXIS2_PLACEMENT_3D('',#1166,#939,#940);
#833=AXIS2_PLACEMENT_3D('',#1181,#948,#949);
#834=AXIS2_PLACEMENT_3D('',#1182,#950,#951);
#835=AXIS2_PLACEMENT_3D('',#1187,#954,#955);
#836=AXIS2_PLACEMENT_3D('',#1188,#956,#957);
#837=AXIS2_PLACEMENT_3D('',#1193,#960,#961);
#838=AXIS2_PLACEMENT_3D('',#1196,#963,#964);
#839=AXIS2_PLACEMENT_3D('',#1199,#966,#967);
#840=AXIS2_PLACEMENT_3D('',#1215,#977,#978);
#841=AXIS2_PLACEMENT_3D('',#1217,#980,#981);
#842=AXIS2_PLACEMENT_3D('',#1219,#983,#984);
#843=AXIS2_PLACEMENT_3D('',#1220,#985,#986);
#844=AXIS2_PLACEMENT_3D('',#1222,#988,#989);
#845=AXIS2_PLACEMENT_3D('',#1224,#991,#992);
#846=AXIS2_PLACEMENT_3D('',#1225,#993,#994);
#847=AXIS2_PLACEMENT_3D('',#1227,#996,#997);
#848=AXIS2_PLACEMENT_3D('',#1229,#999,#1000);
#849=AXIS2_PLACEMENT_3D('',#1230,#1001,#1002);
#850=AXIS2_PLACEMENT_3D('',#1236,#1006,#1007);
#851=AXIS2_PLACEMENT_3D('',#1240,#1010,#1011);
#852=AXIS2_PLACEMENT_3D('',#1244,#1014,#1015);
#853=AXIS2_PLACEMENT_3D('',#1246,#1017,#1018);
#854=AXIS2_PLACEMENT_3D('',#1247,#1019,#1020);
#855=AXIS2_PLACEMENT_3D('',#1253,#1024,#1025);
#856=AXIS2_PLACEMENT_3D('',#1257,#1028,#1029);
#857=AXIS2_PLACEMENT_3D('',#1261,#1032,#1033);
#858=AXIS2_PLACEMENT_3D('',#1263,#1035,#1036);
#859=AXIS2_PLACEMENT_3D('',#1264,#1037,#1038);
#860=AXIS2_PLACEMENT_3D('',#1270,#1042,#1043);
#861=AXIS2_PLACEMENT_3D('',#1274,#1046,#1047);
#862=AXIS2_PLACEMENT_3D('',#1278,#1050,#1051);
#863=AXIS2_PLACEMENT_3D('',#1280,#1053,#1054);
#864=AXIS2_PLACEMENT_3D('',#1281,#1055,#1056);
#865=AXIS2_PLACEMENT_3D('',#1287,#1060,#1061);
#866=AXIS2_PLACEMENT_3D('',#1291,#1064,#1065);
#867=AXIS2_PLACEMENT_3D('',#1295,#1068,#1069);
#868=AXIS2_PLACEMENT_3D('',#1297,#1071,#1072);
#869=DIRECTION('',(0.,0.,1.));
#870=DIRECTION('',(1.,0.,0.));
#871=DIRECTION('',(0.866025403784438,-0.5,0.));
#872=DIRECTION('',(0.,0.,1.));
#873=DIRECTION('',(0.,0.,-1.));
#874=DIRECTION('',(-0.5,-0.866025403784438,0.));
#875=DIRECTION('',(0.,0.,-1.));
#876=DIRECTION('',(0.5,0.866025403784438,0.));
#877=DIRECTION('',(-0.5,-0.866025403784438,0.));
#878=DIRECTION('',(0.,0.,-1.));
#879=DIRECTION('',(-0.866025403784438,0.5,0.));
#880=DIRECTION('',(0.,0.,-1.));
#881=DIRECTION('',(0.866025403784438,-0.5,0.));
#882=DIRECTION('',(-0.866025403784438,0.5,0.));
#883=DIRECTION('',(0.,0.,-1.));
#884=DIRECTION('',(0.5,0.866025403784438,0.));
#885=DIRECTION('',(0.,0.,-1.));
#886=DIRECTION('',(-0.5,-0.866025403784438,0.));
#887=DIRECTION('',(-0.5,-0.866025403784438,0.));
#888=DIRECTION('',(0.,0.,-1.));
#889=DIRECTION('',(0.866025403784438,-0.5,0.));
#890=DIRECTION('',(-0.866025403784438,0.5,0.));
#891=DIRECTION('',(0.,0.,-1.));
#892=DIRECTION('',(-0.5,-0.866025403784438,0.));
#893=DIRECTION('',(-0.866025403784439,-0.5,0.));
#894=DIRECTION('',(0.,0.,1.));
#895=DIRECTION('',(0.,0.,-1.));
#896=DIRECTION('',(-0.5,0.866025403784439,0.));
#897=DIRECTION('',(0.,0.,-1.));
#898=DIRECTION('',(0.5,-0.866025403784439,0.));
#899=DIRECTION('',(-0.5,0.866025403784439,0.));
#900=DIRECTION('',(0.,0.,-1.));
#901=DIRECTION('',(0.866025403784439,0.5,0.));
#902=DIRECTION('',(0.,0.,-1.));
#903=DIRECTION('',(-0.866025403784439,-0.5,0.));
#904=DIRECTION('',(0.866025403784439,0.5,0.));
#905=DIRECTION('',(0.,0.,-1.));
#906=DIRECTION('',(0.5,-0.866025403784439,0.));
#907=DIRECTION('',(0.,0.,-1.));
#908=DIRECTION('',(-0.5,0.866025403784439,0.));
#909=DIRECTION('',(-0.5,0.866025403784439,0.));
#910=DIRECTION('',(0.,0.,-1.));
#911=DIRECTION('',(-0.866025403784439,-0.5,0.));
#912=DIRECTION('',(0.866025403784439,0.5,0.));
#913=DIRECTION('',(0.,0.,-1.));
#914=DIRECTION('',(-0.5,0.866025403784439,0.));
#915=DIRECTION('',(0.,0.,1.));
#916=DIRECTION('',(1.,0.,0.));
#917=DIRECTION('',(0.866025403784438,-0.5,0.));
#918=DIRECTION('',(0.5,0.866025403784438,0.));
#919=DIRECTION('',(0.866025403784438,-0.5,0.));
#920=DIRECTION('',(0.5,0.866025403784438,0.));
#921=DIRECTION('',(-0.866025403784439,-0.5,0.));
#922=DIRECTION('',(0.5,-0.866025403784439,0.));
#923=DIRECTION('',(-0.866025403784439,-0.5,0.));
#924=DIRECTION('',(0.5,-0.866025403784439,0.));
#925=DIRECTION('',(0.,1.,0.));
#926=DIRECTION('',(-1.,0.,0.));
#927=DIRECTION('',(0.,1.,0.));
#928=DIRECTION('',(-1.,0.,0.));
#929=DIRECTION('',(0.,0.,1.));
#930=DIRECTION('',(1.,0.,0.));
#931=DIRECTION('',(0.5,-0.866025403784439,0.));
#932=DIRECTION('',(-0.866025403784439,-0.5,0.));
#933=DIRECTION('',(0.5,-0.866025403784439,0.));
#934=DIRECTION('',(0.,0.,1.));
#935=DIRECTION('',(1.,0.,0.));
#936=DIRECTION('',(0.5,0.866025403784439,0.));
#937=DIRECTION('',(0.866025403784439,-0.5,0.));
#938=DIRECTION('',(0.5,0.866025403784439,0.));
#939=DIRECTION('',(0.,0.,1.));
#940=DIRECTION('',(1.,0.,0.));
#941=DIRECTION('',(-1.,-1.32916253550378E-16,0.));
#942=DIRECTION('',(0.,1.,0.));
#943=DIRECTION('',(-1.,-1.32916253550378E-16,0.));
#944=DIRECTION('',(0.,1.,0.));
#945=DIRECTION('',(-1.,0.,0.));
#946=DIRECTION('',(0.,1.,0.));
#947=DIRECTION('',(1.,0.,0.));
#948=DIRECTION('',(0.,0.,1.));
#949=DIRECTION('',(1.,0.,0.));
#950=DIRECTION('',(0.,0.,1.));
#951=DIRECTION('',(1.,0.,0.));
#952=DIRECTION('',(0.,0.,1.));
#953=DIRECTION('',(0.,0.,1.));
#954=DIRECTION('',(0.,0.,1.));
#955=DIRECTION('',(1.,0.,0.));
#956=DIRECTION('',(0.,0.,1.));
#957=DIRECTION('',(1.,0.,0.));
#958=DIRECTION('',(0.,0.,1.));
#959=DIRECTION('',(0.,0.,1.));
#960=DIRECTION('',(0.,0.,1.));
#961=DIRECTION('',(1.,0.,0.));
#962=DIRECTION('',(0.,0.,1.));
#963=DIRECTION('',(0.,0.,1.));
#964=DIRECTION('',(1.,0.,0.));
#965=DIRECTION('',(0.,0.,1.));
#966=DIRECTION('',(0.,0.,1.));
#967=DIRECTION('',(1.,0.,0.));
#968=DIRECTION('',(-1.,-1.32916253550378E-16,0.));
#969=DIRECTION('',(0.,1.,0.));
#970=DIRECTION('',(-1.,-1.32916253550378E-16,0.));
#971=DIRECTION('',(0.5,0.866025403784439,0.));
#972=DIRECTION('',(0.866025403784439,-0.5,0.));
#973=DIRECTION('',(0.5,0.866025403784439,0.));
#974=DIRECTION('',(0.5,-0.866025403784439,0.));
#975=DIRECTION('',(-0.866025403784439,-0.5,0.));
#976=DIRECTION('',(0.5,-0.866025403784439,0.));
#977=DIRECTION('',(-0.866025403784439,-0.5,0.));
#978=DIRECTION('',(0.5,-0.866025403784439,0.));
#979=DIRECTION('',(0.,0.,1.));
#980=DIRECTION('',(-0.5,0.866025403784439,0.));
#981=DIRECTION('',(-0.866025403784439,-0.5,0.));
#982=DIRECTION('',(0.,0.,1.));
#983=DIRECTION('',(-0.866025403784439,-0.5,0.));
#984=DIRECTION('',(0.5,-0.866025403784439,0.));
#985=DIRECTION('',(0.866025403784439,-0.5,0.));
#986=DIRECTION('',(0.5,0.866025403784439,0.));
#987=DIRECTION('',(0.,0.,1.));
#988=DIRECTION('',(-0.5,-0.866025403784439,0.));
#989=DIRECTION('',(0.866025403784439,-0.5,0.));
#990=DIRECTION('',(0.,0.,1.));
#991=DIRECTION('',(0.866025403784439,-0.5,0.));
#992=DIRECTION('',(0.5,0.866025403784439,0.));
#993=DIRECTION('',(-1.32916253550378E-16,1.,0.));
#994=DIRECTION('',(-1.,-1.32916253550378E-16,0.));
#995=DIRECTION('',(0.,0.,1.));
#996=DIRECTION('',(1.,0.,0.));
#997=DIRECTION('',(0.,0.,-1.));
#998=DIRECTION('',(0.,0.,1.));
#999=DIRECTION('',(-1.32916253550378E-16,1.,0.));
#1000=DIRECTION('',(-1.,-1.32916253550378E-16,0.));
#1001=DIRECTION('',(-1.,0.,0.));
#1002=DIRECTION('',(0.,0.,1.));
#1003=DIRECTION('',(0.,0.,-1.));
#1004=DIRECTION('',(0.,1.,0.));
#1005=DIRECTION('',(0.,0.,-1.));
#1006=DIRECTION('',(0.,-1.,0.));
#1007=DIRECTION('',(0.,0.,-1.));
#1008=DIRECTION('',(0.,0.,-1.));
#1009=DIRECTION('',(-1.,0.,0.));
#1010=DIRECTION('',(-1.,0.,0.));
#1011=DIRECTION('',(0.,0.,1.));
#1012=DIRECTION('',(0.,0.,-1.));
#1013=DIRECTION('',(0.,1.,0.));
#1014=DIRECTION('',(0.,0.,1.));
#1015=DIRECTION('',(1.,0.,0.));
#1016=DIRECTION('',(-1.,0.,0.));
#1017=DIRECTION('',(0.,-1.,0.));
#1018=DIRECTION('',(0.,0.,-1.));
#1019=DIRECTION('',(0.5,-0.866025403784439,0.));
#1020=DIRECTION('',(0.866025403784439,0.5,0.));
#1021=DIRECTION('',(0.,0.,-1.));
#1022=DIRECTION('',(-0.866025403784439,-0.5,0.));
#1023=DIRECTION('',(0.,0.,-1.));
#1024=DIRECTION('',(0.866025403784439,0.5,0.));
#1025=DIRECTION('',(-0.5,0.866025403784439,0.));
#1026=DIRECTION('',(0.,0.,-1.));
#1027=DIRECTION('',(0.5,-0.866025403784439,0.));
#1028=DIRECTION('',(0.5,-0.866025403784439,0.));
#1029=DIRECTION('',(0.866025403784439,0.5,0.));
#1030=DIRECTION('',(0.,0.,-1.));
#1031=DIRECTION('',(-0.866025403784439,-0.5,0.));
#1032=DIRECTION('',(0.,0.,1.));
#1033=DIRECTION('',(-0.5,0.866025403784439,0.));
#1034=DIRECTION('',(0.5,-0.866025403784439,0.));
#1035=DIRECTION('',(0.866025403784439,0.5,0.));
#1036=DIRECTION('',(-0.5,0.866025403784439,0.));
#1037=DIRECTION('',(0.5,0.866025403784439,0.));
#1038=DIRECTION('',(-0.866025403784439,0.5,0.));
#1039=DIRECTION('',(0.,0.,-1.));
#1040=DIRECTION('',(0.866025403784438,-0.5,0.));
#1041=DIRECTION('',(0.,0.,-1.));
#1042=DIRECTION('',(-0.866025403784439,0.5,0.));
#1043=DIRECTION('',(-0.5,-0.866025403784439,0.));
#1044=DIRECTION('',(0.,0.,-1.));
#1045=DIRECTION('',(0.5,0.866025403784438,0.));
#1046=DIRECTION('',(0.5,0.866025403784439,0.));
#1047=DIRECTION('',(-0.866025403784439,0.5,0.));
#1048=DIRECTION('',(0.,0.,-1.));
#1049=DIRECTION('',(0.866025403784438,-0.5,0.));
#1050=DIRECTION('',(0.,0.,1.));
#1051=DIRECTION('',(-0.5,-0.866025403784438,0.));
#1052=DIRECTION('',(0.5,0.866025403784438,0.));
#1053=DIRECTION('',(-0.866025403784439,0.5,0.));
#1054=DIRECTION('',(-0.5,-0.866025403784439,0.));
#1055=DIRECTION('',(0.,1.,0.));
#1056=DIRECTION('',(0.,0.,1.));
#1057=DIRECTION('',(0.,0.,-1.));
#1058=DIRECTION('',(1.,0.,0.));
#1059=DIRECTION('',(0.,0.,-1.));
#1060=DIRECTION('',(1.,0.,0.));
#1061=DIRECTION('',(0.,0.,-1.));
#1062=DIRECTION('',(0.,-1.,0.));
#1063=DIRECTION('',(0.,0.,-1.));
#1064=DIRECTION('',(0.,-1.,0.));
#1065=DIRECTION('',(0.,0.,-1.));
#1066=DIRECTION('',(-1.,0.,0.));
#1067=DIRECTION('',(0.,0.,-1.));
#1068=DIRECTION('',(1.,0.,0.));
#1069=DIRECTION('',(0.,0.,-1.));
#1070=DIRECTION('',(0.,-1.,0.));
#1071=DIRECTION('',(0.,0.,-1.));
#1072=DIRECTION('',(1.,0.,0.));
#1073=CARTESIAN_POINT('',(0.,0.,0.));
#1074=CARTESIAN_POINT('',(0.0137264243554489,-0.0541129756101116,0.0001625));
#1075=CARTESIAN_POINT('',(0.0126014243554489,-0.0560615327686266,0.0001625));
#1076=CARTESIAN_POINT('',(0.0126014243554489,-0.0560615327686266,0.));
#1077=CARTESIAN_POINT('',(0.0126014243554489,-0.0560615327686266,-0.001425));
#1078=CARTESIAN_POINT('',(0.0137264243554489,-0.0541129756101116,-0.001425));
#1079=CARTESIAN_POINT('',(0.0148514243554489,-0.0521644184515966,-0.001425));
#1080=CARTESIAN_POINT('',(0.0148514243554489,-0.0521644184515966,0.0001625));
#1081=CARTESIAN_POINT('',(0.0148514243554489,-0.0521644184515966,5.42101086242752E-20));
#1082=CARTESIAN_POINT('',(0.0365597239872859,-0.0145645405433262,0.));
#1083=CARTESIAN_POINT('',(0.0153926902328142,-0.0524769184515966,0.0001625));
#1084=CARTESIAN_POINT('',(0.0153926902328142,-0.0524769184515966,-0.001425));
#1085=CARTESIAN_POINT('',(0.0159339561101795,-0.0527894184515966,-0.001425));
#1086=CARTESIAN_POINT('',(0.0159339561101795,-0.0527894184515966,0.0001625));
#1087=CARTESIAN_POINT('',(0.0159339561101795,-0.0527894184515966,5.42101086242752E-20));
#1088=CARTESIAN_POINT('',(-0.0188749996874999,-0.0326924584515966,0.));
#1089=CARTESIAN_POINT('',(0.0148089561101794,-0.0547379756101116,0.0001625));
#1090=CARTESIAN_POINT('',(0.0148089561101794,-0.0547379756101116,-0.001425));
#1091=CARTESIAN_POINT('',(0.0136839561101794,-0.0566865327686266,-0.001425));
#1092=CARTESIAN_POINT('',(0.0136839561101794,-0.0566865327686266,0.0001625));
#1093=CARTESIAN_POINT('',(0.0136839561101794,-0.0566865327686266,5.42101086242752E-20));
#1094=CARTESIAN_POINT('',(0.0376422557420165,-0.0151895405433261,0.));
#1095=CARTESIAN_POINT('',(0.0131426902328142,-0.0563740327686266,0.0001625));
#1096=CARTESIAN_POINT('',(-0.0211249996874999,-0.0365895727686266,0.));
#1097=CARTESIAN_POINT('',(0.0131426902328142,-0.0563740327686266,-0.001425));
#1098=CARTESIAN_POINT('',(-0.00111683978657428,-0.0019344232542611,-0.001425));
#1099=CARTESIAN_POINT('',(-0.0537264237304488,0.0151690556101116,0.0001625));
#1100=CARTESIAN_POINT('',(-0.0548514237304488,0.0171176127686266,0.0001625));
#1101=CARTESIAN_POINT('',(-0.0548514237304488,0.0171176127686266,0.));
#1102=CARTESIAN_POINT('',(-0.0548514237304488,0.0171176127686266,-0.001425));
#1103=CARTESIAN_POINT('',(-0.0537264237304488,0.0151690556101116,-0.001425));
#1104=CARTESIAN_POINT('',(-0.0526014237304488,0.0132204984515966,-0.001425));
#1105=CARTESIAN_POINT('',(-0.0526014237304488,0.0132204984515966,0.0001625));
#1106=CARTESIAN_POINT('',(-0.0526014237304488,0.0132204984515966,5.42101086242752E-20));
#1107=CARTESIAN_POINT('',(-0.0308931240986118,-0.0243793794566739,0.));
#1108=CARTESIAN_POINT('',(-0.0531426896078141,0.0129079984515966,0.0001625));
#1109=CARTESIAN_POINT('',(-0.0531426896078141,0.0129079984515966,-0.001425));
#1110=CARTESIAN_POINT('',(-0.0536839554851794,0.0125954984515966,-0.001425));
#1111=CARTESIAN_POINT('',(-0.0536839554851794,0.0125954984515966,0.0001625));
#1112=CARTESIAN_POINT('',(-0.0536839554851794,0.0125954984515966,5.42101086242752E-20));
#1113=CARTESIAN_POINT('',(-0.0188749996874999,0.0326924584515966,0.));
#1114=CARTESIAN_POINT('',(-0.0548089554851794,0.0145440556101116,0.0001625));
#1115=CARTESIAN_POINT('',(-0.0548089554851794,0.0145440556101116,-0.001425));
#1116=CARTESIAN_POINT('',(-0.0559339554851794,0.0164926127686266,-0.001425));
#1117=CARTESIAN_POINT('',(-0.0559339554851794,0.0164926127686266,0.0001625));
#1118=CARTESIAN_POINT('',(-0.0559339554851794,0.0164926127686266,5.42101086242752E-20));
#1119=CARTESIAN_POINT('',(-0.0319756558533424,-0.0250043794566738,0.));
#1120=CARTESIAN_POINT('',(-0.0553926896078141,0.0168051127686266,0.0001625));
#1121=CARTESIAN_POINT('',(-0.0211249996874999,0.0365895727686266,0.));
#1122=CARTESIAN_POINT('',(-0.0553926896078141,0.0168051127686266,-0.001425));
#1123=CARTESIAN_POINT('',(-0.00111683978657433,0.00193442325426107,-0.001425));
#1124=CARTESIAN_POINT('',(-0.00566659988867412,0.,0.));
#1125=CARTESIAN_POINT('',(-0.0361468973250795,-0.0646651547030131,0.));
#1126=CARTESIAN_POINT('',(-0.0481174110995003,-0.0577539753530132,0.));
#1127=CARTESIAN_POINT('',(-0.0266399833373123,-0.0701539740530131,0.));
#1128=CARTESIAN_POINT('',(-0.0473236610995003,-0.0563791600245053,0.));
#1129=CARTESIAN_POINT('',(-0.0465299110995003,-0.0550043446959975,0.));
#1130=CARTESIAN_POINT('',(-0.0345593973250795,-0.0619155240459976,0.));
#1131=CARTESIAN_POINT('',(-0.0250524833373123,-0.0674043433959976,0.));
#1132=CARTESIAN_POINT('',(-0.0258462333373123,-0.0687791587245054,0.));
#1133=CARTESIAN_POINT('',(-0.0379282180499204,0.0636367087030132,0.));
#1134=CARTESIAN_POINT('',(-0.0259577042754996,0.0705478880530132,0.));
#1135=CARTESIAN_POINT('',(-0.0474351320376876,0.0581478893530132,0.));
#1136=CARTESIAN_POINT('',(-0.0251639542754996,0.0691730727245054,0.));
#1137=CARTESIAN_POINT('',(-0.0243702042754995,0.0677982573959976,0.));
#1138=CARTESIAN_POINT('',(-0.0363407180499205,0.0608870780459976,0.));
#1139=CARTESIAN_POINT('',(-0.0458476320376876,0.0553982586959976,0.));
#1140=CARTESIAN_POINT('',(-0.0466413820376876,0.0567730740245054,0.));
#1141=CARTESIAN_POINT('',(0.0740751153749999,0.001028446,0.));
#1142=CARTESIAN_POINT('',(0.0740751153749999,-0.0127939127,0.));
#1143=CARTESIAN_POINT('',(0.0740751153749999,0.0120060847,0.));
#1144=CARTESIAN_POINT('',(0.0724876153749999,-0.0127939127,0.));
#1145=CARTESIAN_POINT('',(0.0709001153749999,-0.0127939127,0.));
#1146=CARTESIAN_POINT('',(0.0709001153749999,0.001028446,0.));
#1147=CARTESIAN_POINT('',(0.0709001153749999,0.0120060847,0.));
#1148=CARTESIAN_POINT('',(0.0724876153749999,0.0120060847,0.));
#1149=CARTESIAN_POINT('',(5.20417042793042E-18,-1.7347234759768E-18,0.));
#1150=CARTESIAN_POINT('',(0.0282201086992946,0.041275,0.));
#1151=CARTESIAN_POINT('',(0.0216351441915555,0.0450768310311474,0.));
#1152=CARTESIAN_POINT('',(0.00858389252262911,0.0676822620240958,0.));
#1153=CARTESIAN_POINT('',(-0.00446735914629722,0.0902876930170444,0.));
#1154=CARTESIAN_POINT('',(-0.0402125576874999,0.0696501930170444,0.));
#1155=CARTESIAN_POINT('',(-0.0759577562287027,0.0490126930170444,0.));
#1156=CARTESIAN_POINT('',(-0.0629065045597763,0.0264072620240959,0.));
#1157=CARTESIAN_POINT('',(-0.04985525289085,0.00380183103114736,0.));
#1158=CARTESIAN_POINT('',(5.20417042793042E-18,-1.7347234759768E-18,0.));
#1159=CARTESIAN_POINT('',(-0.04985525289085,-0.00380183103114734,0.));
#1160=CARTESIAN_POINT('',(-0.0629065045597763,-0.0264072620240959,0.));
#1161=CARTESIAN_POINT('',(-0.0759577562287027,-0.0490126930170444,0.));
#1162=CARTESIAN_POINT('',(-0.0402125576874999,-0.0696501930170444,0.));
#1163=CARTESIAN_POINT('',(-0.0044673591462972,-0.0902876930170443,0.));
#1164=CARTESIAN_POINT('',(0.00858389252262911,-0.0676822620240958,0.));
#1165=CARTESIAN_POINT('',(0.0216351441915555,-0.0450768310311473,0.));
#1166=CARTESIAN_POINT('',(5.20417042793042E-18,-1.7347234759768E-18,0.));
#1167=CARTESIAN_POINT('',(0.0282201086992946,-0.041275,0.));
#1168=CARTESIAN_POINT('',(0.0543226120371472,-0.041275,0.));
#1169=CARTESIAN_POINT('',(0.0804251153749999,-0.041275,0.));
#1170=CARTESIAN_POINT('',(0.0804251153749999,0.,0.));
#1171=CARTESIAN_POINT('',(0.0804251153749999,0.041275,0.));
#1172=CARTESIAN_POINT('',(0.0543226120371472,0.041275,0.));
#1173=CARTESIAN_POINT('',(0.0422499993749999,0.,0.));
#1174=CARTESIAN_POINT('',(0.0422499993749999,0.03894392,0.));
#1175=CARTESIAN_POINT('',(0.0422499993749999,0.04019392,5.42101086242752E-20));
#1176=CARTESIAN_POINT('',(-0.00566659988867412,0.03894392,0.));
#1177=CARTESIAN_POINT('',(0.0377499993749999,0.03894392,5.42101086242752E-20));
#1178=CARTESIAN_POINT('',(0.0377499993749999,0.,0.));
#1179=CARTESIAN_POINT('',(0.0377499993749999,0.04019392,5.42101086242752E-20));
#1180=CARTESIAN_POINT('',(-0.00566659988867412,0.04019392,0.));
#1181=CARTESIAN_POINT('',(5.20417042793042E-18,-1.7347234759768E-18,-0.003175));
#1182=CARTESIAN_POINT('',(5.20417042793042E-18,-1.7347234759768E-18,-0.003175));
#1183=CARTESIAN_POINT('',(0.0216351441915555,-0.0450768310311473,-0.003175));
#1184=CARTESIAN_POINT('',(0.0282201086992946,-0.041275,-0.003175));
#1185=CARTESIAN_POINT('',(0.0282201086992946,-0.041275,-0.003175));
#1186=CARTESIAN_POINT('',(0.0216351441915555,-0.0450768310311473,-0.003175));
#1187=CARTESIAN_POINT('',(5.20417042793042E-18,-1.7347234759768E-18,-0.003175));
#1188=CARTESIAN_POINT('',(5.20417042793042E-18,-1.7347234759768E-18,-0.003175));
#1189=CARTESIAN_POINT('',(-0.04985525289085,0.00380183103114736,-0.003175));
#1190=CARTESIAN_POINT('',(-0.04985525289085,-0.00380183103114734,-0.003175));
#1191=CARTESIAN_POINT('',(-0.04985525289085,-0.00380183103114734,-0.003175));
#1192=CARTESIAN_POINT('',(-0.04985525289085,0.00380183103114736,-0.003175));
#1193=CARTESIAN_POINT('',(5.20417042793042E-18,-1.7347234759768E-18,-0.003175));
#1194=CARTESIAN_POINT('',(0.0282201086992946,0.041275,-0.003175));
#1195=CARTESIAN_POINT('',(0.0282201086992946,0.041275,-0.003175));
#1196=CARTESIAN_POINT('',(5.20417042793042E-18,-1.7347234759768E-18,-0.003175));
#1197=CARTESIAN_POINT('',(0.0216351441915555,0.0450768310311473,-0.003175));
#1198=CARTESIAN_POINT('',(0.0216351441915555,0.0450768310311473,-0.003175));
#1199=CARTESIAN_POINT('',(-0.00566659988867412,0.,-0.003175));
#1200=CARTESIAN_POINT('',(0.0543226120371472,0.041275,-0.003175));
#1201=CARTESIAN_POINT('',(0.0804251153749999,0.041275,-0.003175));
#1202=CARTESIAN_POINT('',(0.0804251153749999,0.,-0.003175));
#1203=CARTESIAN_POINT('',(0.0804251153749999,-0.041275,-0.003175));
#1204=CARTESIAN_POINT('',(0.0543226120371472,-0.041275,-0.003175));
#1205=CARTESIAN_POINT('',(0.00858389252262911,-0.0676822620240958,-0.003175));
#1206=CARTESIAN_POINT('',(-0.0044673591462972,-0.0902876930170443,-0.003175));
#1207=CARTESIAN_POINT('',(-0.0402125576874999,-0.0696501930170444,-0.003175));
#1208=CARTESIAN_POINT('',(-0.0759577562287027,-0.0490126930170444,-0.003175));
#1209=CARTESIAN_POINT('',(-0.0629065045597763,-0.0264072620240959,-0.003175));
#1210=CARTESIAN_POINT('',(-0.0629065045597763,0.0264072620240959,-0.003175));
#1211=CARTESIAN_POINT('',(-0.0759577562287027,0.0490126930170444,-0.003175));
#1212=CARTESIAN_POINT('',(-0.0402125576874999,0.0696501930170444,-0.003175));
#1213=CARTESIAN_POINT('',(-0.00446735914629722,0.0902876930170444,-0.003175));
#1214=CARTESIAN_POINT('',(0.00858389252262911,0.0676822620240958,-0.003175));
#1215=CARTESIAN_POINT('',(0.00858389252262911,0.0676822620240958,-0.003175));
#1216=CARTESIAN_POINT('',(-0.00446735914629722,0.0902876930170444,-0.003175));
#1217=CARTESIAN_POINT('',(-0.0402125576874999,0.0696501930170444,-0.003175));
#1218=CARTESIAN_POINT('',(-0.0759577562287027,0.0490126930170444,-0.003175));
#1219=CARTESIAN_POINT('',(-0.0629065045597763,0.0264072620240959,-0.003175));
#1220=CARTESIAN_POINT('',(-0.0629065045597763,-0.0264072620240959,-0.003175));
#1221=CARTESIAN_POINT('',(-0.0759577562287027,-0.0490126930170444,-0.003175));
#1222=CARTESIAN_POINT('',(-0.0402125576874999,-0.0696501930170444,-0.003175));
#1223=CARTESIAN_POINT('',(-0.0044673591462972,-0.0902876930170443,-0.003175));
#1224=CARTESIAN_POINT('',(0.00858389252262911,-0.0676822620240958,-0.003175));
#1225=CARTESIAN_POINT('',(0.0543226120371472,-0.041275,-0.003175));
#1226=CARTESIAN_POINT('',(0.0804251153749999,-0.041275,-0.003175));
#1227=CARTESIAN_POINT('',(0.0804251153749999,0.,-0.003175));
#1228=CARTESIAN_POINT('',(0.0804251153749999,0.041275,-0.003175));
#1229=CARTESIAN_POINT('',(0.0543226120371472,0.041275,-0.003175));
#1230=CARTESIAN_POINT('',(0.0740751153749999,0.001028446,0.0204982064));
#1231=CARTESIAN_POINT('',(0.0740751153749999,0.0120060847,0.0204982064));
#1232=CARTESIAN_POINT('',(0.0740751153749999,0.0120060847,0.0204982064));
#1233=CARTESIAN_POINT('',(0.0740751153749999,0.001028446,0.0204982064));
#1234=CARTESIAN_POINT('',(0.0740751153749999,-0.0127939127,0.0204982064));
#1235=CARTESIAN_POINT('',(0.0740751153749999,-0.0127939127,0.0204982064));
#1236=CARTESIAN_POINT('',(0.0724876153749999,0.0120060847,0.0204982064));
#1237=CARTESIAN_POINT('',(0.0709001153749999,0.0120060847,0.0204982064));
#1238=CARTESIAN_POINT('',(0.0709001153749999,0.0120060847,0.0204982064));
#1239=CARTESIAN_POINT('',(0.0724876153749999,0.0120060847,0.0204982064));
#1240=CARTESIAN_POINT('',(0.0709001153749999,0.001028446,0.0204982064));
#1241=CARTESIAN_POINT('',(0.0709001153749999,-0.0127939127,0.0204982064));
#1242=CARTESIAN_POINT('',(0.0709001153749999,-0.0127939127,0.0204982064));
#1243=CARTESIAN_POINT('',(0.0709001153749999,0.001028446,0.0204982064));
#1244=CARTESIAN_POINT('',(-0.00566659988867412,0.,0.0204982064));
#1245=CARTESIAN_POINT('',(0.0724876153749999,-0.0127939127,0.0204982064));
#1246=CARTESIAN_POINT('',(0.0724876153749999,-0.0127939127,0.0204982064));
#1247=CARTESIAN_POINT('',(-0.0379282180499204,0.0636367087030132,0.0204982064));
#1248=CARTESIAN_POINT('',(-0.0474351320376876,0.0581478893530132,0.0204982064));
#1249=CARTESIAN_POINT('',(-0.0474351320376876,0.0581478893530132,0.0204982064));
#1250=CARTESIAN_POINT('',(-0.0379282180499204,0.0636367087030132,0.0204982064));
#1251=CARTESIAN_POINT('',(-0.0259577042754996,0.0705478880530132,0.0204982064));
#1252=CARTESIAN_POINT('',(-0.0259577042754996,0.0705478880530132,0.0204982064));
#1253=CARTESIAN_POINT('',(-0.0466413820376876,0.0567730740245054,0.0204982064));
#1254=CARTESIAN_POINT('',(-0.0458476320376876,0.0553982586959976,0.0204982064));
#1255=CARTESIAN_POINT('',(-0.0458476320376876,0.0553982586959976,0.0204982064));
#1256=CARTESIAN_POINT('',(-0.0466413820376876,0.0567730740245054,0.0204982064));
#1257=CARTESIAN_POINT('',(-0.0363407180499205,0.0608870780459976,0.0204982064));
#1258=CARTESIAN_POINT('',(-0.0243702042754995,0.0677982573959976,0.0204982064));
#1259=CARTESIAN_POINT('',(-0.0243702042754995,0.0677982573959976,0.0204982064));
#1260=CARTESIAN_POINT('',(-0.0363407180499205,0.0608870780459976,0.0204982064));
#1261=CARTESIAN_POINT('',(0.00283329994433706,-0.00490741945667386,0.0204982064));
#1262=CARTESIAN_POINT('',(-0.0251639542754996,0.0691730727245054,0.0204982064));
#1263=CARTESIAN_POINT('',(-0.0251639542754996,0.0691730727245054,0.0204982064));
#1264=CARTESIAN_POINT('',(-0.0361468973250795,-0.0646651547030131,0.0204982064));
#1265=CARTESIAN_POINT('',(-0.0266399833373123,-0.0701539740530131,0.0204982064));
#1266=CARTESIAN_POINT('',(-0.0266399833373123,-0.0701539740530131,0.0204982064));
#1267=CARTESIAN_POINT('',(-0.0361468973250795,-0.0646651547030131,0.0204982064));
#1268=CARTESIAN_POINT('',(-0.0481174110995003,-0.0577539753530132,0.0204982064));
#1269=CARTESIAN_POINT('',(-0.0481174110995003,-0.0577539753530132,0.0204982064));
#1270=CARTESIAN_POINT('',(-0.0258462333373123,-0.0687791587245054,0.0204982064));
#1271=CARTESIAN_POINT('',(-0.0250524833373123,-0.0674043433959976,0.0204982064));
#1272=CARTESIAN_POINT('',(-0.0250524833373123,-0.0674043433959976,0.0204982064));
#1273=CARTESIAN_POINT('',(-0.0258462333373123,-0.0687791587245054,0.0204982064));
#1274=CARTESIAN_POINT('',(-0.0345593973250795,-0.0619155240459976,0.0204982064));
#1275=CARTESIAN_POINT('',(-0.0465299110995003,-0.0550043446959975,0.0204982064));
#1276=CARTESIAN_POINT('',(-0.0465299110995003,-0.0550043446959975,0.0204982064));
#1277=CARTESIAN_POINT('',(-0.0345593973250795,-0.0619155240459976,0.0204982064));
#1278=CARTESIAN_POINT('',(0.00283329994433706,0.00490741945667385,0.0204982064));
#1279=CARTESIAN_POINT('',(-0.0473236610995003,-0.0563791600245053,0.0204982064));
#1280=CARTESIAN_POINT('',(-0.0473236610995003,-0.0563791600245053,0.0204982064));
#1281=CARTESIAN_POINT('',(0.0399999993749999,0.03894392,0.0001625));
#1282=CARTESIAN_POINT('',(0.0422499993749999,0.03894392,0.0001625));
#1283=CARTESIAN_POINT('',(0.0422499993749999,0.03894392,-0.001425));
#1284=CARTESIAN_POINT('',(0.0399999993749999,0.03894392,-0.001425));
#1285=CARTESIAN_POINT('',(0.0377499993749999,0.03894392,-0.001425));
#1286=CARTESIAN_POINT('',(0.0377499993749999,0.03894392,0.0001625));
#1287=CARTESIAN_POINT('',(0.0377499993749999,0.03956892,0.0001625));
#1288=CARTESIAN_POINT('',(0.0377499993749999,0.03956892,-0.001425));
#1289=CARTESIAN_POINT('',(0.0377499993749999,0.04019392,-0.001425));
#1290=CARTESIAN_POINT('',(0.0377499993749999,0.04019392,0.0001625));
#1291=CARTESIAN_POINT('',(0.0399999993749999,0.04019392,0.0001625));
#1292=CARTESIAN_POINT('',(0.0399999993749999,0.04019392,-0.001425));
#1293=CARTESIAN_POINT('',(0.0422499993749999,0.04019392,-0.001425));
#1294=CARTESIAN_POINT('',(0.0422499993749999,0.04019392,0.0001625));
#1295=CARTESIAN_POINT('',(0.0422499993749999,0.03956892,0.0001625));
#1296=CARTESIAN_POINT('',(0.0422499993749999,0.03956892,-0.001425));
#1297=CARTESIAN_POINT('',(0.00223367957314862,2.77555756156289E-17,-0.001425));
#1298=MECHANICAL_DESIGN_GEOMETRIC_PRESENTATION_REPRESENTATION('',(#807),
#1299);
#1299=(
GEOMETRIC_REPRESENTATION_CONTEXT(3)
GLOBAL_UNCERTAINTY_ASSIGNED_CONTEXT((#1300))
GLOBAL_UNIT_ASSIGNED_CONTEXT((#1303,#1302,#1301))
REPRESENTATION_CONTEXT('Part 12','TOP_LEVEL_ASSEMBLY_PART')
);
#1300=UNCERTAINTY_MEASURE_WITH_UNIT(LENGTH_MEASURE(1.E-8),#1303,
'DISTANCE_ACCURACY_VALUE','Maximum Tolerance applied to model');
#1301=(
NAMED_UNIT(*)
SI_UNIT($,.STERADIAN.)
SOLID_ANGLE_UNIT()
);
#1302=(
NAMED_UNIT(*)
PLANE_ANGLE_UNIT()
SI_UNIT($,.RADIAN.)
);
#1303=(
LENGTH_UNIT()
NAMED_UNIT(*)
SI_UNIT($,.METRE.)
);
#1304=PRODUCT_DEFINITION_SHAPE('','',#1305);
#1305=PRODUCT_DEFINITION('','',#1307,#1306);
#1306=PRODUCT_DEFINITION_CONTEXT('',#1313,'design');
#1307=PRODUCT_DEFINITION_FORMATION_WITH_SPECIFIED_SOURCE('','',#1309,
 .NOT_KNOWN.);
#1308=PRODUCT_RELATED_PRODUCT_CATEGORY('','',(#1309));
#1309=PRODUCT('Part 12','Part 12','Part 12',(#1311));
#1310=PRODUCT_CATEGORY('','');
#1311=PRODUCT_CONTEXT('',#1313,'mechanical');
#1312=APPLICATION_PROTOCOL_DEFINITION('international standard',
'ap242_managed_model_based_3d_engineering',2011,#1313);
#1313=APPLICATION_CONTEXT('managed model based 3d engineering');
ENDSEC;
END-ISO-10303-21;
