ISO-10303-21;
HEADER;
/* Generated by software containing ST-Developer
 * from STEP Tools, Inc. (www.steptools.com) 
 */
/* OPTION: using custom renumber hook */

FILE_DESCRIPTION(
/* description */ ('STEP AP242',
'CAx-IF Rec.Pracs.---Representation and Presentation of Product Manufa
cturing Information (PMI)---4.0---2014-10-13',
'CAx-IF Rec.Pracs.---3D Tessellated Geometry---0.4---2014-09-14','2;1'),

/* implementation_level */ '2;1');

FILE_NAME(
/* name */ 'Part Studio 1 - Part 3',
/* time_stamp */ '2025-07-21T21:28:57Z',
/* author */ (''),
/* organization */ (''),
/* preprocessor_version */ 'ST-DEVELOPER v20',
/* originating_system */ 'ONSHAPE BY PTC INC, 1.201',
/* authorisation */ '  ');

FILE_SCHEMA (('AP242_MANAGED_MODEL_BASED_3D_ENGINEERING_MIM_LF { 1 0 10303 442 1 1 4 }'));
ENDSEC;

DATA;
#10=SHAPE_REPRESENTATION_RELATIONSHIP('','',#131,#11);
#11=ADVANCED_BREP_SHAPE_REPRESENTATION('',(#129),#215);
#12=PLANE('',#136);
#13=PLANE('',#140);
#14=PLANE('',#144);
#15=PLANE('',#145);
#16=LINE('',#187,#24);
#17=LINE('',#191,#25);
#18=LINE('',#193,#26);
#19=LINE('',#195,#27);
#20=LINE('',#197,#28);
#21=LINE('',#203,#29);
#22=LINE('',#205,#30);
#23=LINE('',#206,#31);
#24=VECTOR('',#152,1.);
#25=VECTOR('',#155,1.);
#26=VECTOR('',#158,1.);
#27=VECTOR('',#159,1.);
#28=VECTOR('',#160,1.);
#29=VECTOR('',#167,1.);
#30=VECTOR('',#170,1.);
#31=VECTOR('',#171,1.);
#32=ORIENTED_EDGE('',*,*,#60,.T.);
#33=ORIENTED_EDGE('',*,*,#61,.F.);
#34=ORIENTED_EDGE('',*,*,#62,.F.);
#35=ORIENTED_EDGE('',*,*,#63,.T.);
#36=ORIENTED_EDGE('',*,*,#64,.F.);
#37=ORIENTED_EDGE('',*,*,#63,.F.);
#38=ORIENTED_EDGE('',*,*,#65,.T.);
#39=ORIENTED_EDGE('',*,*,#66,.T.);
#40=ORIENTED_EDGE('',*,*,#67,.F.);
#41=ORIENTED_EDGE('',*,*,#66,.F.);
#42=ORIENTED_EDGE('',*,*,#68,.T.);
#43=ORIENTED_EDGE('',*,*,#69,.T.);
#44=ORIENTED_EDGE('',*,*,#70,.T.);
#45=ORIENTED_EDGE('',*,*,#69,.F.);
#46=ORIENTED_EDGE('',*,*,#71,.F.);
#47=ORIENTED_EDGE('',*,*,#61,.T.);
#48=ORIENTED_EDGE('',*,*,#72,.F.);
#49=ORIENTED_EDGE('',*,*,#73,.T.);
#50=ORIENTED_EDGE('',*,*,#62,.T.);
#51=ORIENTED_EDGE('',*,*,#71,.T.);
#52=ORIENTED_EDGE('',*,*,#68,.F.);
#53=ORIENTED_EDGE('',*,*,#65,.F.);
#54=ORIENTED_EDGE('',*,*,#72,.T.);
#55=ORIENTED_EDGE('',*,*,#60,.F.);
#56=ORIENTED_EDGE('',*,*,#64,.T.);
#57=ORIENTED_EDGE('',*,*,#67,.T.);
#58=ORIENTED_EDGE('',*,*,#70,.F.);
#59=ORIENTED_EDGE('',*,*,#73,.F.);
#60=EDGE_CURVE('',#74,#75,#84,.T.);
#61=EDGE_CURVE('',#76,#75,#16,.T.);
#62=EDGE_CURVE('',#77,#76,#85,.T.);
#63=EDGE_CURVE('',#77,#74,#17,.T.);
#64=EDGE_CURVE('',#74,#78,#18,.T.);
#65=EDGE_CURVE('',#77,#79,#19,.T.);
#66=EDGE_CURVE('',#79,#78,#20,.T.);
#67=EDGE_CURVE('',#78,#80,#86,.T.);
#68=EDGE_CURVE('',#79,#81,#87,.T.);
#69=EDGE_CURVE('',#81,#80,#21,.T.);
#70=EDGE_CURVE('',#75,#80,#22,.T.);
#71=EDGE_CURVE('',#76,#81,#23,.T.);
#72=EDGE_CURVE('',#82,#82,#88,.T.);
#73=EDGE_CURVE('',#83,#83,#89,.T.);
#74=VERTEX_POINT('',#185);
#75=VERTEX_POINT('',#186);
#76=VERTEX_POINT('',#188);
#77=VERTEX_POINT('',#190);
#78=VERTEX_POINT('',#194);
#79=VERTEX_POINT('',#196);
#80=VERTEX_POINT('',#200);
#81=VERTEX_POINT('',#202);
#82=VERTEX_POINT('',#209);
#83=VERTEX_POINT('',#211);
#84=CIRCLE('',#134,0.00635);
#85=CIRCLE('',#135,0.00635);
#86=CIRCLE('',#138,0.00508);
#87=CIRCLE('',#139,0.00508);
#88=CIRCLE('',#142,0.0015875);
#89=CIRCLE('',#143,0.0015875);
#90=EDGE_LOOP('',(#32,#33,#34,#35));
#91=EDGE_LOOP('',(#36,#37,#38,#39));
#92=EDGE_LOOP('',(#40,#41,#42,#43));
#93=EDGE_LOOP('',(#44,#45,#46,#47));
#94=EDGE_LOOP('',(#48));
#95=EDGE_LOOP('',(#49));
#96=EDGE_LOOP('',(#50,#51,#52,#53));
#97=EDGE_LOOP('',(#54));
#98=EDGE_LOOP('',(#55,#56,#57,#58));
#99=EDGE_LOOP('',(#59));
#100=FACE_BOUND('',#90,.T.);
#101=FACE_BOUND('',#91,.T.);
#102=FACE_BOUND('',#92,.T.);
#103=FACE_BOUND('',#93,.T.);
#104=FACE_BOUND('',#94,.T.);
#105=FACE_BOUND('',#95,.T.);
#106=FACE_BOUND('',#96,.T.);
#107=FACE_BOUND('',#97,.T.);
#108=FACE_BOUND('',#98,.T.);
#109=FACE_BOUND('',#99,.T.);
#110=CYLINDRICAL_SURFACE('',#133,0.00635);
#111=CYLINDRICAL_SURFACE('',#137,0.00508);
#112=CYLINDRICAL_SURFACE('',#141,0.0015875);
#113=ADVANCED_FACE('',(#100),#110,.F.);
#114=ADVANCED_FACE('',(#101),#12,.T.);
#115=ADVANCED_FACE('',(#102),#111,.T.);
#116=ADVANCED_FACE('',(#103),#13,.F.);
#117=ADVANCED_FACE('',(#104,#105),#112,.F.);
#118=ADVANCED_FACE('',(#106,#107),#14,.F.);
#119=ADVANCED_FACE('',(#108,#109),#15,.T.);
#120=CLOSED_SHELL('',(#113,#114,#115,#116,#117,#118,#119));
#121=STYLED_ITEM('',(#122),#129);
#122=PRESENTATION_STYLE_ASSIGNMENT((#123));
#123=SURFACE_STYLE_USAGE(.BOTH.,#124);
#124=SURFACE_SIDE_STYLE('',(#125));
#125=SURFACE_STYLE_FILL_AREA(#126);
#126=FILL_AREA_STYLE('',(#127));
#127=FILL_AREA_STYLE_COLOUR('',#128);
#128=COLOUR_RGB('',0.231372549019608,0.380392156862745,0.705882352941177);
#129=MANIFOLD_SOLID_BREP('Part 3',#120);
#130=SHAPE_DEFINITION_REPRESENTATION(#220,#131);
#131=SHAPE_REPRESENTATION('Part 3',(#132),#215);
#132=AXIS2_PLACEMENT_3D('',#182,#146,#147);
#133=AXIS2_PLACEMENT_3D('',#183,#148,#149);
#134=AXIS2_PLACEMENT_3D('',#184,#150,#151);
#135=AXIS2_PLACEMENT_3D('',#189,#153,#154);
#136=AXIS2_PLACEMENT_3D('',#192,#156,#157);
#137=AXIS2_PLACEMENT_3D('',#198,#161,#162);
#138=AXIS2_PLACEMENT_3D('',#199,#163,#164);
#139=AXIS2_PLACEMENT_3D('',#201,#165,#166);
#140=AXIS2_PLACEMENT_3D('',#204,#168,#169);
#141=AXIS2_PLACEMENT_3D('',#207,#172,#173);
#142=AXIS2_PLACEMENT_3D('',#208,#174,#175);
#143=AXIS2_PLACEMENT_3D('',#210,#176,#177);
#144=AXIS2_PLACEMENT_3D('',#212,#178,#179);
#145=AXIS2_PLACEMENT_3D('',#213,#180,#181);
#146=DIRECTION('',(0.,0.,1.));
#147=DIRECTION('',(1.,0.,0.));
#148=DIRECTION('',(-3.38350590204176E-16,1.,0.));
#149=DIRECTION('',(-1.,-3.38350590204176E-16,0.));
#150=DIRECTION('',(-3.38350590204176E-16,1.,0.));
#151=DIRECTION('',(-1.,-3.38350590204176E-16,0.));
#152=DIRECTION('',(-3.38350590204176E-16,1.,0.));
#153=DIRECTION('',(-3.38350590204176E-16,1.,0.));
#154=DIRECTION('',(-1.,-3.38350590204176E-16,0.));
#155=DIRECTION('',(-3.38350590204176E-16,1.,0.));
#156=DIRECTION('',(-0.138278068007516,-4.67864659226363E-17,0.990393445004615));
#157=DIRECTION('',(0.990393445004615,0.,0.138278068007516));
#158=DIRECTION('',(0.990393445004615,3.35100206651658E-16,0.138278068007516));
#159=DIRECTION('',(0.990393445004615,3.35100206651658E-16,0.138278068007516));
#160=DIRECTION('',(-3.38350590204176E-16,1.,0.));
#161=DIRECTION('',(-3.38350590204176E-16,1.,0.));
#162=DIRECTION('',(-1.,-3.38350590204176E-16,0.));
#163=DIRECTION('',(-3.38350590204176E-16,1.,0.));
#164=DIRECTION('',(-1.,-3.38350590204176E-16,0.));
#165=DIRECTION('',(-3.38350590204176E-16,1.,0.));
#166=DIRECTION('',(-1.,-3.38350590204176E-16,0.));
#167=DIRECTION('',(-3.38350590204176E-16,1.,0.));
#168=DIRECTION('',(-0.196332649058034,-6.6429267685135E-17,0.980537348046394));
#169=DIRECTION('',(0.980537348046394,0.,0.196332649058034));
#170=DIRECTION('',(0.980537348046394,3.31765390428735E-16,0.196332649058034));
#171=DIRECTION('',(0.980537348046394,3.31765390428735E-16,0.196332649058034));
#172=DIRECTION('',(-3.38350590204176E-16,1.,0.));
#173=DIRECTION('',(-1.,-3.38350590204176E-16,0.));
#174=DIRECTION('',(-3.38350590204176E-16,1.,0.));
#175=DIRECTION('',(-1.,-3.38350590204176E-16,0.));
#176=DIRECTION('',(-3.38350590204176E-16,1.,0.));
#177=DIRECTION('',(-1.,-3.38350590204176E-16,0.));
#178=DIRECTION('',(-3.38350590204176E-16,1.,0.));
#179=DIRECTION('',(-1.,-3.38350590204176E-16,0.));
#180=DIRECTION('',(-3.38350590204176E-16,1.,0.));
#181=DIRECTION('',(-1.,-3.38350590204176E-16,0.));
#182=CARTESIAN_POINT('',(0.,0.,0.));
#183=CARTESIAN_POINT('',(0.0146099565632583,-0.0243500021,0.0101540056));
#184=CARTESIAN_POINT('',(0.0146099565632583,-0.0180000021,0.0101540056));
#185=CARTESIAN_POINT('',(0.0146099565632583,-0.0180000021,0.0165040056));
#186=CARTESIAN_POINT('',(0.0170548525502953,-0.0180000021,0.00429354626539404));
#187=CARTESIAN_POINT('',(0.0170548525502953,-0.0243500021,0.00429354626539404));
#188=CARTESIAN_POINT('',(0.0170548525502953,-0.0243500021,0.00429354626539404));
#189=CARTESIAN_POINT('',(0.0146099565632583,-0.0243500021,0.0101540056));
#190=CARTESIAN_POINT('',(0.0146099565632583,-0.0243500021,0.0165040056));
#191=CARTESIAN_POINT('',(0.0146099565632583,-0.0243500021,0.0165040056));
#192=CARTESIAN_POINT('',(0.0312830373996418,-0.0243500021,0.0188318899548662));
#193=CARTESIAN_POINT('',(0.0312830373996418,-0.0180000021,0.0188318899548662));
#194=CARTESIAN_POINT('',(0.0533379604760758,-0.0180000021,0.0219111835108221));
#195=CARTESIAN_POINT('',(0.0312830373996418,-0.0243500021,0.0188318899548662));
#196=CARTESIAN_POINT('',(0.0533379604760758,-0.0243500021,0.0219111835108221));
#197=CARTESIAN_POINT('',(0.0533379604760758,-0.0243500021,0.0219111835108221));
#198=CARTESIAN_POINT('',(0.054040413061554,-0.0243500021,0.0168799848101986));
#199=CARTESIAN_POINT('',(0.054040413061554,-0.0180000021,0.0168799848101986));
#200=CARTESIAN_POINT('',(0.0550377829187688,-0.0180000021,0.011898855082123));
#201=CARTESIAN_POINT('',(0.054040413061554,-0.0243500021,0.0168799848101986));
#202=CARTESIAN_POINT('',(0.0550377829187688,-0.0243500021,0.011898855082123));
#203=CARTESIAN_POINT('',(0.0550377829187688,-0.0243500021,0.011898855082123));
#204=CARTESIAN_POINT('',(0.036046317734532,-0.0243500021,0.00809620067375851));
#205=CARTESIAN_POINT('',(0.036046317734532,-0.0180000021,0.00809620067375851));
#206=CARTESIAN_POINT('',(0.036046317734532,-0.0243500021,0.00809620067375851));
#207=CARTESIAN_POINT('',(0.054040413061554,-0.0243500021,0.0168799848101986));
#208=CARTESIAN_POINT('',(0.054040413061554,-0.0243500021,0.0168799848101986));
#209=CARTESIAN_POINT('',(0.052452913061554,-0.0243500021,0.0168799848101986));
#210=CARTESIAN_POINT('',(0.054040413061554,-0.0180000021,0.0168799848101986));
#211=CARTESIAN_POINT('',(0.052452913061554,-0.0180000021,0.0168799848101986));
#212=CARTESIAN_POINT('',(0.029560206530777,-0.0243500021,0.037753352197607));
#213=CARTESIAN_POINT('',(0.029560206530777,-0.0180000021,0.037753352197607));
#214=MECHANICAL_DESIGN_GEOMETRIC_PRESENTATION_REPRESENTATION('',(#121),
#215);
#215=(
GEOMETRIC_REPRESENTATION_CONTEXT(3)
GLOBAL_UNCERTAINTY_ASSIGNED_CONTEXT((#216))
GLOBAL_UNIT_ASSIGNED_CONTEXT((#219,#218,#217))
REPRESENTATION_CONTEXT('Part 3','TOP_LEVEL_ASSEMBLY_PART')
);
#216=UNCERTAINTY_MEASURE_WITH_UNIT(LENGTH_MEASURE(1.E-8),#219,
'DISTANCE_ACCURACY_VALUE','Maximum Tolerance applied to model');
#217=(
NAMED_UNIT(*)
SI_UNIT($,.STERADIAN.)
SOLID_ANGLE_UNIT()
);
#218=(
NAMED_UNIT(*)
PLANE_ANGLE_UNIT()
SI_UNIT($,.RADIAN.)
);
#219=(
LENGTH_UNIT()
NAMED_UNIT(*)
SI_UNIT($,.METRE.)
);
#220=PRODUCT_DEFINITION_SHAPE('','',#221);
#221=PRODUCT_DEFINITION('','',#223,#222);
#222=PRODUCT_DEFINITION_CONTEXT('',#229,'design');
#223=PRODUCT_DEFINITION_FORMATION_WITH_SPECIFIED_SOURCE('','',#225,
 .NOT_KNOWN.);
#224=PRODUCT_RELATED_PRODUCT_CATEGORY('','',(#225));
#225=PRODUCT('Part 3','Part 3','Part 3',(#227));
#226=PRODUCT_CATEGORY('','');
#227=PRODUCT_CONTEXT('',#229,'mechanical');
#228=APPLICATION_PROTOCOL_DEFINITION('international standard',
'ap242_managed_model_based_3d_engineering',2011,#229);
#229=APPLICATION_CONTEXT('managed model based 3d engineering');
ENDSEC;
END-ISO-10303-21;
