ISO-10303-21;
HEADER;
/* Generated by software containing ST-Developer
 * from STEP Tools, Inc. (www.steptools.com) 
 */
/* OPTION: using custom renumber hook */

FILE_DESCRIPTION(
/* description */ ('STEP AP242',
'CAx-IF Rec.Pracs.---Representation and Presentation of Product Manufa
cturing Information (PMI)---4.0---2014-10-13',
'CAx-IF Rec.Pracs.---3D Tessellated Geometry---0.4---2014-09-14','2;1'),

/* implementation_level */ '2;1');

FILE_NAME(
/* name */ 'Part Studio 1 - Part 6',
/* time_stamp */ '2025-07-21T21:28:57Z',
/* author */ (''),
/* organization */ (''),
/* preprocessor_version */ 'ST-DEVELOPER v20',
/* originating_system */ 'ONSHAPE BY PTC INC, 1.201',
/* authorisation */ '  ');

FILE_SCHEMA (('AP242_MANAGED_MODEL_BASED_3D_ENGINEERING_MIM_LF { 1 0 10303 442 1 1 4 }'));
ENDSEC;

DATA;
#10=SHAPE_REPRESENTATION_RELATIONSHIP('','',#167,#11);
#11=ADVANCED_BREP_SHAPE_REPRESENTATION('',(#165),#279);
#12=PLANE('',#190);
#13=PLANE('',#191);
#14=ORIENTED_EDGE('',*,*,#42,.F.);
#15=ORIENTED_EDGE('',*,*,#43,.T.);
#16=ORIENTED_EDGE('',*,*,#44,.T.);
#17=ORIENTED_EDGE('',*,*,#45,.F.);
#18=ORIENTED_EDGE('',*,*,#46,.F.);
#19=ORIENTED_EDGE('',*,*,#47,.T.);
#20=ORIENTED_EDGE('',*,*,#48,.F.);
#21=ORIENTED_EDGE('',*,*,#49,.T.);
#22=ORIENTED_EDGE('',*,*,#50,.T.);
#23=ORIENTED_EDGE('',*,*,#51,.F.);
#24=ORIENTED_EDGE('',*,*,#52,.F.);
#25=ORIENTED_EDGE('',*,*,#53,.T.);
#26=ORIENTED_EDGE('',*,*,#54,.T.);
#27=ORIENTED_EDGE('',*,*,#55,.F.);
#28=ORIENTED_EDGE('',*,*,#52,.T.);
#29=ORIENTED_EDGE('',*,*,#50,.F.);
#30=ORIENTED_EDGE('',*,*,#48,.T.);
#31=ORIENTED_EDGE('',*,*,#46,.T.);
#32=ORIENTED_EDGE('',*,*,#44,.F.);
#33=ORIENTED_EDGE('',*,*,#42,.T.);
#34=ORIENTED_EDGE('',*,*,#54,.F.);
#35=ORIENTED_EDGE('',*,*,#53,.F.);
#36=ORIENTED_EDGE('',*,*,#51,.T.);
#37=ORIENTED_EDGE('',*,*,#49,.F.);
#38=ORIENTED_EDGE('',*,*,#47,.F.);
#39=ORIENTED_EDGE('',*,*,#45,.T.);
#40=ORIENTED_EDGE('',*,*,#43,.F.);
#41=ORIENTED_EDGE('',*,*,#55,.T.);
#42=EDGE_CURVE('',#56,#56,#70,.T.);
#43=EDGE_CURVE('',#57,#57,#71,.T.);
#44=EDGE_CURVE('',#58,#58,#72,.T.);
#45=EDGE_CURVE('',#59,#59,#73,.T.);
#46=EDGE_CURVE('',#60,#60,#74,.T.);
#47=EDGE_CURVE('',#61,#61,#75,.T.);
#48=EDGE_CURVE('',#62,#62,#76,.T.);
#49=EDGE_CURVE('',#63,#63,#77,.T.);
#50=EDGE_CURVE('',#64,#64,#78,.T.);
#51=EDGE_CURVE('',#65,#65,#79,.T.);
#52=EDGE_CURVE('',#66,#66,#80,.T.);
#53=EDGE_CURVE('',#67,#67,#81,.T.);
#54=EDGE_CURVE('',#68,#68,#82,.T.);
#55=EDGE_CURVE('',#69,#69,#83,.T.);
#56=VERTEX_POINT('',#243);
#57=VERTEX_POINT('',#245);
#58=VERTEX_POINT('',#248);
#59=VERTEX_POINT('',#250);
#60=VERTEX_POINT('',#253);
#61=VERTEX_POINT('',#255);
#62=VERTEX_POINT('',#258);
#63=VERTEX_POINT('',#260);
#64=VERTEX_POINT('',#263);
#65=VERTEX_POINT('',#265);
#66=VERTEX_POINT('',#268);
#67=VERTEX_POINT('',#270);
#68=VERTEX_POINT('',#273);
#69=VERTEX_POINT('',#275);
#70=CIRCLE('',#170,0.0015875);
#71=CIRCLE('',#171,0.0015875);
#72=CIRCLE('',#173,0.0015875);
#73=CIRCLE('',#174,0.0015875);
#74=CIRCLE('',#176,0.0015875);
#75=CIRCLE('',#177,0.0015875);
#76=CIRCLE('',#179,0.0015875);
#77=CIRCLE('',#180,0.0015875);
#78=CIRCLE('',#182,0.0015875);
#79=CIRCLE('',#183,0.0015875);
#80=CIRCLE('',#185,0.0500000015999974);
#81=CIRCLE('',#186,0.0500000015999974);
#82=CIRCLE('',#188,0.0015875);
#83=CIRCLE('',#189,0.0015875);
#84=EDGE_LOOP('',(#14));
#85=EDGE_LOOP('',(#15));
#86=EDGE_LOOP('',(#16));
#87=EDGE_LOOP('',(#17));
#88=EDGE_LOOP('',(#18));
#89=EDGE_LOOP('',(#19));
#90=EDGE_LOOP('',(#20));
#91=EDGE_LOOP('',(#21));
#92=EDGE_LOOP('',(#22));
#93=EDGE_LOOP('',(#23));
#94=EDGE_LOOP('',(#24));
#95=EDGE_LOOP('',(#25));
#96=EDGE_LOOP('',(#26));
#97=EDGE_LOOP('',(#27));
#98=EDGE_LOOP('',(#28));
#99=EDGE_LOOP('',(#29));
#100=EDGE_LOOP('',(#30));
#101=EDGE_LOOP('',(#31));
#102=EDGE_LOOP('',(#32));
#103=EDGE_LOOP('',(#33));
#104=EDGE_LOOP('',(#34));
#105=EDGE_LOOP('',(#35));
#106=EDGE_LOOP('',(#36));
#107=EDGE_LOOP('',(#37));
#108=EDGE_LOOP('',(#38));
#109=EDGE_LOOP('',(#39));
#110=EDGE_LOOP('',(#40));
#111=EDGE_LOOP('',(#41));
#112=FACE_BOUND('',#84,.T.);
#113=FACE_BOUND('',#85,.T.);
#114=FACE_BOUND('',#86,.T.);
#115=FACE_BOUND('',#87,.T.);
#116=FACE_BOUND('',#88,.T.);
#117=FACE_BOUND('',#89,.T.);
#118=FACE_BOUND('',#90,.T.);
#119=FACE_BOUND('',#91,.T.);
#120=FACE_BOUND('',#92,.T.);
#121=FACE_BOUND('',#93,.T.);
#122=FACE_BOUND('',#94,.T.);
#123=FACE_BOUND('',#95,.T.);
#124=FACE_BOUND('',#96,.T.);
#125=FACE_BOUND('',#97,.T.);
#126=FACE_BOUND('',#98,.T.);
#127=FACE_BOUND('',#99,.T.);
#128=FACE_BOUND('',#100,.T.);
#129=FACE_BOUND('',#101,.T.);
#130=FACE_BOUND('',#102,.T.);
#131=FACE_BOUND('',#103,.T.);
#132=FACE_BOUND('',#104,.T.);
#133=FACE_BOUND('',#105,.T.);
#134=FACE_BOUND('',#106,.T.);
#135=FACE_BOUND('',#107,.T.);
#136=FACE_BOUND('',#108,.T.);
#137=FACE_BOUND('',#109,.T.);
#138=FACE_BOUND('',#110,.T.);
#139=FACE_BOUND('',#111,.T.);
#140=CYLINDRICAL_SURFACE('',#169,0.0015875);
#141=CYLINDRICAL_SURFACE('',#172,0.0015875);
#142=CYLINDRICAL_SURFACE('',#175,0.0015875);
#143=CYLINDRICAL_SURFACE('',#178,0.0015875);
#144=CYLINDRICAL_SURFACE('',#181,0.0015875);
#145=CYLINDRICAL_SURFACE('',#184,0.0500000015999974);
#146=CYLINDRICAL_SURFACE('',#187,0.0015875);
#147=ADVANCED_FACE('',(#112,#113),#140,.F.);
#148=ADVANCED_FACE('',(#114,#115),#141,.F.);
#149=ADVANCED_FACE('',(#116,#117),#142,.F.);
#150=ADVANCED_FACE('',(#118,#119),#143,.F.);
#151=ADVANCED_FACE('',(#120,#121),#144,.F.);
#152=ADVANCED_FACE('',(#122,#123),#145,.T.);
#153=ADVANCED_FACE('',(#124,#125),#146,.F.);
#154=ADVANCED_FACE('',(#126,#127,#128,#129,#130,#131,#132),#12,.T.);
#155=ADVANCED_FACE('',(#133,#134,#135,#136,#137,#138,#139),#13,.F.);
#156=CLOSED_SHELL('',(#147,#148,#149,#150,#151,#152,#153,#154,#155));
#157=STYLED_ITEM('',(#158),#165);
#158=PRESENTATION_STYLE_ASSIGNMENT((#159));
#159=SURFACE_STYLE_USAGE(.BOTH.,#160);
#160=SURFACE_SIDE_STYLE('',(#161));
#161=SURFACE_STYLE_FILL_AREA(#162);
#162=FILL_AREA_STYLE('',(#163));
#163=FILL_AREA_STYLE_COLOUR('',#164);
#164=COLOUR_RGB('',0.231372549019608,0.380392156862745,0.705882352941177);
#165=MANIFOLD_SOLID_BREP('Part 6',#156);
#166=SHAPE_DEFINITION_REPRESENTATION(#284,#167);
#167=SHAPE_REPRESENTATION('Part 6',(#168),#279);
#168=AXIS2_PLACEMENT_3D('',#240,#192,#193);
#169=AXIS2_PLACEMENT_3D('',#241,#194,#195);
#170=AXIS2_PLACEMENT_3D('',#242,#196,#197);
#171=AXIS2_PLACEMENT_3D('',#244,#198,#199);
#172=AXIS2_PLACEMENT_3D('',#246,#200,#201);
#173=AXIS2_PLACEMENT_3D('',#247,#202,#203);
#174=AXIS2_PLACEMENT_3D('',#249,#204,#205);
#175=AXIS2_PLACEMENT_3D('',#251,#206,#207);
#176=AXIS2_PLACEMENT_3D('',#252,#208,#209);
#177=AXIS2_PLACEMENT_3D('',#254,#210,#211);
#178=AXIS2_PLACEMENT_3D('',#256,#212,#213);
#179=AXIS2_PLACEMENT_3D('',#257,#214,#215);
#180=AXIS2_PLACEMENT_3D('',#259,#216,#217);
#181=AXIS2_PLACEMENT_3D('',#261,#218,#219);
#182=AXIS2_PLACEMENT_3D('',#262,#220,#221);
#183=AXIS2_PLACEMENT_3D('',#264,#222,#223);
#184=AXIS2_PLACEMENT_3D('',#266,#224,#225);
#185=AXIS2_PLACEMENT_3D('',#267,#226,#227);
#186=AXIS2_PLACEMENT_3D('',#269,#228,#229);
#187=AXIS2_PLACEMENT_3D('',#271,#230,#231);
#188=AXIS2_PLACEMENT_3D('',#272,#232,#233);
#189=AXIS2_PLACEMENT_3D('',#274,#234,#235);
#190=AXIS2_PLACEMENT_3D('',#276,#236,#237);
#191=AXIS2_PLACEMENT_3D('',#277,#238,#239);
#192=DIRECTION('',(0.,0.,1.));
#193=DIRECTION('',(1.,0.,0.));
#194=DIRECTION('',(0.,0.,-1.));
#195=DIRECTION('',(-1.,0.,0.));
#196=DIRECTION('',(0.,0.,-1.));
#197=DIRECTION('',(1.,0.,0.));
#198=DIRECTION('',(0.,0.,-1.));
#199=DIRECTION('',(1.,0.,0.));
#200=DIRECTION('',(0.,0.,-1.));
#201=DIRECTION('',(-1.,0.,0.));
#202=DIRECTION('',(0.,0.,1.));
#203=DIRECTION('',(1.,0.,0.));
#204=DIRECTION('',(0.,0.,1.));
#205=DIRECTION('',(1.,0.,0.));
#206=DIRECTION('',(0.,0.,-1.));
#207=DIRECTION('',(-1.,0.,0.));
#208=DIRECTION('',(0.,0.,-1.));
#209=DIRECTION('',(1.,0.,0.));
#210=DIRECTION('',(0.,0.,-1.));
#211=DIRECTION('',(1.,0.,0.));
#212=DIRECTION('',(0.,0.,-1.));
#213=DIRECTION('',(-1.,0.,0.));
#214=DIRECTION('',(0.,0.,-1.));
#215=DIRECTION('',(1.,0.,0.));
#216=DIRECTION('',(0.,0.,-1.));
#217=DIRECTION('',(1.,0.,0.));
#218=DIRECTION('',(0.,0.,-1.));
#219=DIRECTION('',(-1.,0.,0.));
#220=DIRECTION('',(0.,0.,1.));
#221=DIRECTION('',(1.,0.,0.));
#222=DIRECTION('',(0.,0.,1.));
#223=DIRECTION('',(1.,0.,0.));
#224=DIRECTION('',(0.,0.,-1.));
#225=DIRECTION('',(-1.,0.,0.));
#226=DIRECTION('',(0.,0.,1.));
#227=DIRECTION('',(1.,0.,0.));
#228=DIRECTION('',(0.,0.,1.));
#229=DIRECTION('',(1.,0.,0.));
#230=DIRECTION('',(0.,0.,-1.));
#231=DIRECTION('',(-1.,0.,0.));
#232=DIRECTION('',(0.,0.,1.));
#233=DIRECTION('',(1.,0.,0.));
#234=DIRECTION('',(0.,0.,1.));
#235=DIRECTION('',(1.,0.,0.));
#236=DIRECTION('',(0.,0.,1.));
#237=DIRECTION('',(1.,0.,0.));
#238=DIRECTION('',(0.,0.,1.));
#239=DIRECTION('',(1.,0.,0.));
#240=CARTESIAN_POINT('',(0.,0.,0.));
#241=CARTESIAN_POINT('',(-0.00960979715427001,-0.0431196569216439,0.117475));
#242=CARTESIAN_POINT('',(-0.00960979715427001,-0.0431196569216439,0.117475));
#243=CARTESIAN_POINT('',(-0.00802229715427001,-0.0431196569216439,0.117475));
#244=CARTESIAN_POINT('',(-0.00960979715427001,-0.0431196569216439,0.1143));
#245=CARTESIAN_POINT('',(-0.00802229715427001,-0.0431196569216439,0.1143));
#246=CARTESIAN_POINT('',(0.0421476168737483,-0.0132375,0.117475));
#247=CARTESIAN_POINT('',(0.0421476168737483,-0.0132375,0.117475));
#248=CARTESIAN_POINT('',(0.0437351168737483,-0.0132375,0.117475));
#249=CARTESIAN_POINT('',(0.0421476168737483,-0.0132375,0.1143));
#250=CARTESIAN_POINT('',(0.0437351168737483,-0.0132375,0.1143));
#251=CARTESIAN_POINT('',(0.0421476168737483,0.0132375,0.117475));
#252=CARTESIAN_POINT('',(0.0421476168737483,0.0132375,0.117475));
#253=CARTESIAN_POINT('',(0.0437351168737483,0.0132375,0.117475));
#254=CARTESIAN_POINT('',(0.0421476168737483,0.0132375,0.1143));
#255=CARTESIAN_POINT('',(0.0437351168737483,0.0132375,0.1143));
#256=CARTESIAN_POINT('',(-0.0325378197194705,0.029882156921631,0.117475));
#257=CARTESIAN_POINT('',(-0.0325378197194705,0.029882156921631,0.117475));
#258=CARTESIAN_POINT('',(-0.0309503197194705,0.029882156921631,0.117475));
#259=CARTESIAN_POINT('',(-0.0325378197194705,0.029882156921631,0.1143));
#260=CARTESIAN_POINT('',(-0.0309503197194705,0.029882156921631,0.1143));
#261=CARTESIAN_POINT('',(-0.0096097971542775,0.0431196569216309,0.117475));
#262=CARTESIAN_POINT('',(-0.0096097971542775,0.0431196569216309,0.117475));
#263=CARTESIAN_POINT('',(-0.0080222971542775,0.0431196569216309,0.117475));
#264=CARTESIAN_POINT('',(-0.0096097971542775,0.0431196569216309,0.1143));
#265=CARTESIAN_POINT('',(-0.0080222971542775,0.0431196569216309,0.1143));
#266=CARTESIAN_POINT('',(-2.61596300177303E-15,2.03830008427275E-17,0.117475));
#267=CARTESIAN_POINT('',(-2.61596300177303E-15,2.03830008427275E-17,0.117475));
#268=CARTESIAN_POINT('',(0.0500000015999948,2.03830008427275E-17,0.117475));
#269=CARTESIAN_POINT('',(-2.61596300177303E-15,2.03830008427275E-17,0.1143));
#270=CARTESIAN_POINT('',(0.0500000015999948,2.03830008427275E-17,0.1143));
#271=CARTESIAN_POINT('',(-0.032537819719463,-0.029882156921644,0.117475));
#272=CARTESIAN_POINT('',(-0.032537819719463,-0.029882156921644,0.117475));
#273=CARTESIAN_POINT('',(-0.030950319719463,-0.029882156921644,0.117475));
#274=CARTESIAN_POINT('',(-0.032537819719463,-0.029882156921644,0.1143));
#275=CARTESIAN_POINT('',(-0.030950319719463,-0.029882156921644,0.1143));
#276=CARTESIAN_POINT('',(6.93889390390723E-18,-9.22872889219661E-16,0.117475));
#277=CARTESIAN_POINT('',(6.93889390390723E-18,-9.22872889219661E-16,0.1143));
#278=MECHANICAL_DESIGN_GEOMETRIC_PRESENTATION_REPRESENTATION('',(#157),
#279);
#279=(
GEOMETRIC_REPRESENTATION_CONTEXT(3)
GLOBAL_UNCERTAINTY_ASSIGNED_CONTEXT((#280))
GLOBAL_UNIT_ASSIGNED_CONTEXT((#283,#282,#281))
REPRESENTATION_CONTEXT('Part 6','TOP_LEVEL_ASSEMBLY_PART')
);
#280=UNCERTAINTY_MEASURE_WITH_UNIT(LENGTH_MEASURE(1.E-8),#283,
'DISTANCE_ACCURACY_VALUE','Maximum Tolerance applied to model');
#281=(
NAMED_UNIT(*)
SI_UNIT($,.STERADIAN.)
SOLID_ANGLE_UNIT()
);
#282=(
NAMED_UNIT(*)
PLANE_ANGLE_UNIT()
SI_UNIT($,.RADIAN.)
);
#283=(
LENGTH_UNIT()
NAMED_UNIT(*)
SI_UNIT($,.METRE.)
);
#284=PRODUCT_DEFINITION_SHAPE('','',#285);
#285=PRODUCT_DEFINITION('','',#287,#286);
#286=PRODUCT_DEFINITION_CONTEXT('',#293,'design');
#287=PRODUCT_DEFINITION_FORMATION_WITH_SPECIFIED_SOURCE('','',#289,
 .NOT_KNOWN.);
#288=PRODUCT_RELATED_PRODUCT_CATEGORY('','',(#289));
#289=PRODUCT('Part 6','Part 6','Part 6',(#291));
#290=PRODUCT_CATEGORY('','');
#291=PRODUCT_CONTEXT('',#293,'mechanical');
#292=APPLICATION_PROTOCOL_DEFINITION('international standard',
'ap242_managed_model_based_3d_engineering',2011,#293);
#293=APPLICATION_CONTEXT('managed model based 3d engineering');
ENDSEC;
END-ISO-10303-21;
